<svg xmlns="http://www.w3.org/2000/svg" xmlns:xlink="http://www.w3.org/1999/xlink" xmlns:svgjs="http://svgjs.dev/svgjs" version="1.1" viewBox="22.49 192.51 551.28 255.15"><path d="M47.905757904052734,311.78009033203125C34.16230265299479,287.4345397949219,9.031412124633789,270.28795115152997,31.413612365722656,253.6649169921875C53.79581260681152,237.04188283284506,124.34555689493814,221.59685770670572,182.19895935058594,212.04188537597656C240.05236180623373,202.4869130452474,326.8324559529622,184.6858698527018,378.5340270996094,196.3350830078125C430.23559824625653,207.9842961629232,460.07854715983075,257.8533935546875,492.40838623046875,281.9371643066406C524.7382253011068,306.02093505859375,565.706776936849,320.2879689534505,572.5130615234375,340.83770751953125C579.319346110026,361.387446085612,557.4607493082682,387.43454996744794,533.24609375,405.235595703125C509.03143819173175,423.03664143880206,474.6073303222656,446.858642578125,427.2251281738281,447.64398193359375C379.8429260253906,448.4293212890625,301.17801157633465,417.9319254557292,248.952880859375,409.9476318359375C196.72775014241537,401.9633382161458,147.38219769795737,416.09947713216144,113.87434387207031,399.73822021484375C80.36649004618326,383.37696329752606,61.64921315511068,336.1256408691406,47.905757904052734,311.78009033203125C34.16230265299479,287.4345397949219,9.031412124633789,270.28795115152997,31.413612365722656,253.6649169921875" fill="url(&quot;#SvgjsLinearGradient1000&quot;)" transform="matrix(1,0,0,1,0,0)" stroke-width="0" stroke="hsl(340, 45%, 30%)"/><defs><linearGradient id="SvgjsLinearGradient1000" gradientTransform="rotate(205, 0.5, 0.5)"><stop stop-color="hsl(230, 44%, 52%)" offset="0"/><stop stop-color="hsl(230, 40%, 28%)" offset="1"/></linearGradient></defs></svg>