<svg xmlns="http://www.w3.org/2000/svg" version="1.1" xmlns:xlink="http://www.w3.org/1999/xlink" xmlns:svgjs="http://svgjs.dev/svgjs" viewBox="0 0 800 400"><path d="M21.5246639251709,102.24214935302734C39.38415585517883,92.54259828567504,74.29147925376893,48.04932657877604,125.56053924560547,45.73991012573242C176.829599237442,43.430493672688804,267.5246754074097,87.24962678909301,320.17938232421875,88.78923797607422C372.8340892410278,90.32884916305542,375.62928619384763,61.32884767532349,432.2869873046875,54.708518981933594C488.94468841552737,48.0881902885437,595.5680345662435,36.0597924931844,650.2242431640625,50.22421646118164C704.8804517618815,64.38864042917888,742.8206577555338,110.89237179438274,750.6726684570312,137.2197265625C758.5246791585287,163.54708133061726,748.3109034729003,186.4977611287435,695.964111328125,203.5874481201172C643.6173191833497,220.67713511149088,506.55454416910806,234.61584678649902,445.7398986816406,236.77130126953125C384.9252531941732,238.92675575256348,371.72645965576174,227.5366165669759,341.70404052734375,216.14349365234375C311.68162139892576,204.7503707377116,295.0239185841878,179.17938011169434,270.8520202636719,170.40359497070312C246.68012194315594,161.6278098297119,232.7668207550049,158.863970413208,200.89686584472656,165.0224151611328C169.02691093444824,171.18085990905763,108.91181317011515,181.952167485555,85.20179748535156,206.2780303955078C61.49178180058797,230.60389330546062,58.31539737701416,279.0134656524658,62.780269622802734,306.7264709472656C67.2451418685913,334.43947624206544,85.65321317672729,358.0134635925293,111.21076202392578,367.7130126953125C136.76831087112427,377.4125617980957,187.33333596547445,372.774288482666,211.65919494628906,363.22869873046875C235.98505392710368,353.6831089782715,225.35575421651205,327.0418653869629,252.914794921875,312.1076354980469C280.473835627238,297.17340560913084,337.40207951863607,274.69357559204104,372.1972961425781,276.2331848144531C406.9925127665202,277.7727940368652,425.4289934794108,307.9895361836751,455.6053771972656,321.07623291015625C485.78176091512046,334.1629296366374,519.9611238098145,350.92676040649417,547.9820556640625,352.46636962890625C576.0029875183105,354.00597885131833,592.5067536417644,343.90133427937826,618.8341064453125,330.0448303222656C645.1614592488606,316.188326365153,683.4857921346029,287.9147886403402,701.3452758789062,271.7488708496094C719.2047596232096,255.5829530588786,719.1748677571615,242.0328801727295,722.8699340820312,235.8744354248047" fill="none" stroke-width="19" stroke="url(&quot;#SvgjsLinearGradient1001&quot;)" stroke-linecap="round" stroke-opacity="0.68" stroke-dasharray="0 0"></path><defs><linearGradient id="SvgjsLinearGradient1001" gradientTransform="rotate(277, 0.5, 0.5)"><stop stop-color="hsl(230, 41%, 57%)" offset="0"></stop><stop stop-color="hsl(230, 61%, 16%)" offset="1"></stop></linearGradient></defs></svg>