<svg xmlns="http://www.w3.org/2000/svg" xmlns:xlink="http://www.w3.org/1999/xlink" version="1.1" style="overflow: hidden; display: block;" viewBox="107.06 39.11 580.48 686.95"><defs><linearGradient id="dddraw-gradient" x1="711" y1="-400" x2="711" y2="800" spreadMethod="pad" gradientUnits="userSpaceOnUse"><stop offset="0%" stop-color="hsl(230, 44%, 53%)" stop-opacity="1"/><stop offset="100%" stop-color="hsl(230, 39%, 32%)" stop-opacity="1"/></linearGradient></defs><g id="two-0" transform="matrix(1 0 0 1 0 0)" opacity="1"/><path d="M 393.67564977819785 348.09467959231506 Q 393.67564977819785 348.09467959231506 397.65084688969966 345.84022683868363 401.6260440012015 343.5857740850522 413.75939874777237 340.132366144479 425.89275349434325 336.67895820390584 440.89262416319417 336.37282724887734 455.8924948320451 336.0666962938488 466.5069455847598 341.4346687708156 477.12139633747455 346.8026412477824 487.3173483218527 355.6768765233752 497.51330030623086 364.55111179896795 504.3806006550295 374.59425258925245 511.24790100382813 384.63739337953695 515.5596431410576 395.49692954837576 519.871385278287 406.35646571721463 522.0553297252748 418.5573338188324 524.2392741722624 430.7582019204501 525.3162811573635 444.66203297321226 526.3932881424646 458.56586402597435 525.6604684023857 471.03203573947326 524.9276486623068 483.4982074529721 522.1419463082916 494.59340299369 519.3562439542764 505.68859853440784 513.8388538970069 518.810659825004 508.32146383973736 531.9327211156001 500.27495357729936 544.2851522487549 492.22844331486135 556.6375833819096 482.5999535699706 565.1790355000935 472.97146382507975 573.7204876182775 460.510737690751 579.1701991332855 448.05001155642225 584.6199106482934 436.72405794162876 586.3574503343593 425.3981043268353 588.0949900204253 413.782183921966 588.9624489614455 402.1662635170967 589.8299079024656 390.0437141770981 589.64402788211 377.9211648370995 589.4581478617544 364.8626497045849 585.4152002811561 351.8041345720702 581.372252700558 339.9428475644721 576.789708934112 328.0815605568741 572.2071651676661 315.0862830758688 565.7553209478463 302.09100559486353 559.3034767280266 291.8508526323625 553.5941455847129 281.6106996698615 547.8848144413993 271.5734010595794 539.5635076413254 261.5361024492973 531.2422008412515 252.80740572607536 520.6147661239377 244.07870900285343 509.9873314066238 236.3942124949036 496.38048030884977 228.70971598695377 482.7736292110758 222.06556225062621 467.9295101025731 215.42140851429866 453.0853909940704 210.97050872979486 439.77372510934185 206.51960894529105 426.46205922461326 204.68951882049188 413.6066357280763 202.8594286956927 400.7512122315394 203.30024902703755 386.9690894978845 203.7410693583824 373.1869667642296 207.80673821277986 359.02567909013214 211.8724070671773 344.8643914160347 217.5334201969024 330.6379908996973 223.19443332662746 316.41159038335985 229.7141556910809 303.51906559992756 236.23387805553432 290.62654081649526 244.15377601468902 279.64056575159634 252.07367397384374 268.65459068669736 259.19029602650284 259.6808680559698 266.3069180791619 250.7071454252423 277.1580362449037 240.2152475703204 288.0091544106455 229.7233497153985 298.469790826043 220.1415360186224 308.93042724144044 210.55972232184627 320.18769397001563 202.47410941353158 331.4449606985909 194.3884965052169 341.8691217374308 188.96307143867188 352.29328277627076 183.53764637212683 366.91071378577305 179.0600300870579 381.52814479527535 174.58241380198893 396.4731021351125 173.5086898310167 411.41805947494976 172.43496586004449 422.9317161446512 172.33389821643425 434.44537281435265 172.23283057282399 450.1665133278879 172.50586963851248 465.8876538414232 172.778908704201 480.4516775214838 173.94043298889284 495.01570120154446 175.10195727358465 508.2745721820568 178.38948888036845 521.5334431625691 181.67702048715222 534.9984424779448 186.76418621661847 548.4634417933203 191.85135194608472 562.2482323141751 198.71982841977527 576.03302283503 205.58830489346582 589.2388897032235 214.10760823088657 602.4447565714172 222.62691156830732 611.315828989582 230.49805133059988 620.1869014077467 238.36919109289244 629.5565538098115 251.54524502462195 638.9262062118761 264.72129895635146 645.1974917524672 275.72796970963685 651.4687772930581 286.73464046292224 656.1627010759216 300.3795381194527 660.856624858785 314.0244357759832 665.3353150127721 326.3343145172579 669.814005166759 338.64419325853265 673.5002057768907 353.2559562515743 677.1864063870222 367.86771924461584 680.4340873132396 382.11778924844134 683.6817682394569 396.36785925226684 685.2086678218451 413.3193509816108 686.7355674042333 430.2708427109548 687.0088586743896 448.5899577630337 687.2821499445457 466.90907281511255 687.4476091033955 483.66698153034196 687.6130682622453 500.42489024557136 687.4718788747762 514.261063618914 687.330689487307 528.0972369922567 685.5057426420462 543.0401072019843 683.6807957967853 557.9829774117117 678.4416227079871 572.8101729971319 673.2024496191889 587.6373685825521 667.132450370482 598.7665729980333 661.0624511217752 609.8957774135146 652.8981830478883 620.4513034395153 644.7339149740014 631.006829465516 634.8893419351498 641.5848913827847 625.0447688962981 652.1629533000533 617.088729682722 660.3917993956757 609.1326904691459 668.6206454912979 598.426556777187 678.5575185045775 587.720423085228 688.4943915178573 576.3996027438197 696.0366625899097 565.0787824024113 703.5789336619622 553.2479388886347 707.7649206425672 541.417095374858 711.9509076231723 529.2251485377299 714.6056893077141 517.0332017006018 717.2604709922558 505.43003733350304 719.5148581654807 493.8268729664043 721.7692453387056 482.00209864187303 723.2894795024422 470.17732431734174 724.8097136661789 457.11435129652557 725.5151557083412 444.0513782757094 726.2205977505035 428.86788542739725 726.0074742636762 413.6843925790851 725.7943507768488 399.24168732052783 724.9276679533165 384.79898206197055 724.0609851297842 372.8775099892838 722.381864441796 360.95603791659704 720.7027437538078 348.3382876056953 719.2373656728104 335.72053729479353 717.771987591813 323.91708204653014 714.3927815394109 312.1136267982668 711.0135754870087 299.3070852150811 707.0365660606285 286.5005436318954 703.0595566342482 274.08735508983204 698.442177972596 261.6741665477687 693.8247993109437 250.5085488785889 689.7656940501281 239.34293120940907 685.7065887893126 227.36681466261314 680.6798946743106 215.39069811581717 675.6532005593086 203.40461748612222 666.8474875981973 191.41853685642727 658.041774637086 182.3897345703321 649.1560622915897 173.36093228423695 640.2703499460935 164.34316435524937 627.4098545286487 155.32539642626182 614.5493591112039 149.53797321483762 604.4587745811921 143.75055000341342 594.3681900511804 137.98653165507548 581.2103928987917 132.22251330673754 568.0525957464031 127.26462219881684 554.2098543122831 122.30673109089614 540.3671128781633 118.64691161342967 527.8538489755828 114.9870921359632 515.3405850730022 112.23812422144358 503.31283358901123 109.48915630692397 491.28508210502025 108.26353085047808 479.71153476699726 107.0379053940322 468.13798742897427 107.05742924267858 455.5844138390926 107.07695309132498 443.03084024921094 107.4677369925644 426.22561072080964 107.8585208938038 409.42038119240834 110.40095056093786 395.1771424023963 112.94338022807192 380.9339036123843 116.37410956504507 367.52607313356947 119.80483890201822 354.1182426547546 124.19662080101317 341.95305084463075 128.58840270000812 329.7878590345068 134.62519324801687 314.52425627268644 140.66198379602562 299.260653510866 146.69243290279243 286.8026476124718 152.72288200955924 274.34464171407757 160.50550063936862 260.33073149734776 168.288119269178 246.31682128061797 176.09143254833302 236.58922048882857 183.89474582748804 226.8616196970392 194.89480985238953 215.7198343928308 205.894873877291 204.57804908862238 214.38027878992347 196.45621727934832 222.86568370255594 188.3343854700743 232.6258909796972 180.49123413363125 242.38609825683847 172.6480827971882 254.14412328948276 164.26277305396616 265.90214832212706 155.87746331074413 279.08852521746786 148.16245508038986 292.27490211280866 140.44744685003556 303.00452749684837 134.89332494859053 313.7341528808881 129.33920304714547 324.9189106319857 124.46174686781072 336.1036683830833 119.58429068847595 347.24911397396374 114.54224749466758 358.39455956484414 109.50020430085921 369.08493807997024 105.25392635328882 379.7753165950963 101.00764840571841 395.4379371579124 95.03794403515809 411.10055772072855 89.06823966459778 425.0350566720832 84.25860756701749 438.9695556234379 79.44897546943722 451.7318685489623 75.45973590909465 464.49418147448677 71.47049634875208 477.6908012058734 67.17325434479088 490.88742093726 62.876012340829675 505.27699018253116 59.621557729358074 519.6665594278023 56.36710311788647 532.3232093806487 52.532662398073725 544.9798593334951 48.69822167826097 556.7398450083431 46.09787584526846 568.4998306831909 43.497530012275945 574.2278152429441 41.19399087098972 579.9557998026972 38.89045172970349 582.6108660386658 39.30279587508534 585.2659322746342 39.71514002046719 587.6503392838221 40.953690635559745 590.0347462930099 42.1922412506523 591.898846032133 44.12732175910976 593.762945771256 46.06240226756723 594.9115665055533 48.491409229342466 596.0601872398507 50.920416191117695 596.3730680752352 53.589031936117266 596.6859489106197 56.25764768111683 596.1303311410338 58.88646743639313 595.5747133714481 61.515287191669444 594.2087703240365 63.82907283490404 592.842827276625 66.14285847813863 590.8095735490256 67.89935604170476 588.7763198214262 69.65585360527089 586.2886376156456 70.67115733059286 583.800955409865 71.68646105591483 581.1193057095325 71.85426837493726 578.4376560092 72.02207569395969 575.8428082458274 71.32481713608412 573.2479604824549 70.62755857820855 571.0115959018406 69.13823729850293 568.7752313212261 67.64891601879731 567.1314978853032 65.52346434838944 565.4877644493804 63.39801267798158 564.6087614827936 60.85896596782794 563.7297585162067 58.3199192576743 563.7075178615919 55.633116368571194 563.685277206977 52.94631347946809 564.5221274667433 50.39306338315171 565.3589777265095 47.83981328683534 566.9673004575523 45.68744194238256 568.5756231885952 43.53507059792979 570.7870265764184 42.0089318532757 572.9984299642416 40.4827931086216 575.5813794903863 39.74267409319296 578.1643290165312 39.00255507776431 580.8483891837776 39.125946447848946 583.5324493510241 39.249337817933586 586.0365983513384 40.22332046451149 588.5407473516528 41.19730311108938 590.6028001236712 42.91990079395739 592.6648528956894 44.642498476825395 594.0689119698521 46.9333547638656 595.4729710440149 49.22421105090581 596.0720310646218 51.84347268413778 596.6710910852286 54.46273431736975 596.4024303099854 57.136163912376176 596.1337695347422 59.8095935073826 595.0255168177366 62.25728227984942 593.9172641007311 64.70497105231624 592.0854537939838 66.67064534163913 590.2536434872366 68.636319630962 587.890066613415 69.91417282016121 585.5264897395936 71.1920260093604 582.8786134213105 71.64826653220629 580.2307371030276 72.10450705505218 580.2332281571958 72.1044864347545 580.2357192113637 72.10446581445683 574.2936770765128 74.02858086271445 568.3516349416619 75.95269591097207 555.6636241684537 78.4560591252763 542.9756133952454 80.95942233958053 530.8117520435442 83.30430772486643 518.647890691843 85.64919311015234 507.36422242663826 87.75501858763894 496.0805541614335 89.86084406512556 483.7931071165283 92.98275863495536 471.50566007162314 96.10467320478514 459.1192064193545 99.4541839786071 446.73275276708586 102.80369475242907 432.3861032481654 107.41829392890003 418.03945372924494 112.03289310537097 403.3354834159049 117.59041506414852 388.63151310256484 123.14793702292604 373.8850099540656 129.22834351781972 359.1385068055664 135.3087500127134 343.03126359810756 143.3526908937588 326.92402039064865 151.39663177480418 312.2595795017335 160.16704858775938 297.5951386128184 168.93746540071461 285.27191345298473 176.53614312119407 272.94868829315106 184.13482084167356 263.3668773582243 191.6271625192635 253.78506642329762 199.11950419685343 244.03624623397684 207.05650800487894 234.28742604465603 214.99351181290447 225.5122743897972 222.72090489098565 216.73712273493837 230.4482979690668 207.8100092437391 240.86027380481477 198.8828957525398 251.2722496405627 190.47046594408226 262.6040309942294 182.05803613562475 273.93581234789605 175.79276338040341 283.5858413102012 169.52749062518208 293.2358702725064 163.06607950146855 305.21625241204663 156.604668377755 317.1966345515868 152.1832951370804 327.8345368694422 147.76192189640577 338.4724391872977 143.785712228384 349.36177567357595 139.80950256036226 360.25111215985413 136.96649444743008 373.021364423063 134.12348633449787 385.7916166862719 132.49530919739823 398.7465782175028 130.8671320602986 411.70153974873375 130.2196979822301 427.3661161735032 129.5722639041616 443.03069259827265 129.60076457390687 454.5607378194985 129.62926524365213 466.09078304072443 131.42150635874793 481.5015829540916 133.21374747384377 496.91238286745875 136.29629726834293 508.1449926098341 139.3788470628421 519.3776023522095 144.41156445184714 532.2788373548301 149.44428184085217 545.1800723574509 155.56763790092947 557.1014423555253 161.69099396100677 569.0228123535995 170.77576933536668 583.5999295176274 179.86054470972658 598.1770466816553 187.57891111256913 608.3087288949037 195.2972775154117 618.440411108152 205.56356576979852 628.9590408605193 215.8298540241853 639.4776706128866 226.92891288399434 646.6757542830501 238.0279717438034 653.8738379532134 250.00607226092936 659.146938414255 261.9841727780553 664.4200388752967 278.9217912330903 669.7123442879133 295.8594096881252 675.00464970053 311.6013383630919 679.3192195658738 327.34326703805857 683.6337894312177 341.75003508622 687.1267367729986 356.15680313438145 690.6196841147794 368.0580835384221 691.7244845661676 379.9593639424628 692.8292850175559 392.63338720951606 693.5365344869342 405.3074104765693 694.2437839563127 417.8639151674522 694.0084678018695 430.42041985833515 693.7731516474264 442.43223027266964 693.2394758451578 454.44404068700413 692.7058000428893 468.3416452461269 691.7499974785665 482.2392498052497 690.7941949142436 493.61959364012006 688.8198992807493 504.9999374749904 686.8456036472548 517.5947946724359 684.3362728663319 530.1896518698813 681.8269420854089 541.7625349949244 678.1112226578628 553.3354181199676 674.3955032303166 562.8526969127965 667.8310189737578 572.3699757056256 661.2665347171989 583.9253035733257 651.2675067806392 595.4806314410256 641.2684788440796 605.2533638863947 630.7164340689287 615.0260963317637 620.1643892937778 623.8927845951298 611.2223907602965 632.7594728584958 602.2803922268153 638.6759205867565 592.2925305679641 644.5923683150174 582.304668909113 650.8198941270659 570.042736011319 657.0474199391143 557.7808031135248 660.0596248830393 545.8589272089872 663.0718298269644 533.9370513044496 664.0379032290541 521.9018699184851 665.0039766311437 509.86668853252064 665.2571584429588 494.15102345287585 665.5103402547741 478.4353583732311 665.2964865690699 465.075280396475 665.0826328833656 451.71520241971893 662.8337199219868 435.94638456524984 660.5848069606079 420.17756671078075 658.5878390596274 405.67954698856624 656.5908711586468 391.18152726635174 653.6386590318024 377.69685292345457 650.686446904958 364.2121785805574 647.4401017708844 352.00628235000534 644.193756636811 339.8003861194532 641.1611176262805 328.71829192733986 638.12847861575 317.6361977352265 628.2463869893813 301.51374461252374 618.3642953630125 285.3912914898209 611.6807396002462 274.327643428398 604.99718383748 263.26399536697505 595.9777789233681 253.78151597331765 586.9583740092562 244.29903657966025 576.0625622905661 237.12042357567864 565.1667505718762 229.94181057169703 550.6881510735961 223.19787555888166 536.2095515753163 216.4539405460663 524.5348806379034 212.12608570713235 512.8602097004904 207.7982308681984 500.98822040335506 204.81200996625222 489.1162311062197 201.825789064306 477.50194248163325 200.91087609318492 465.8876538570468 199.9959631220638 450.1773590026788 200.26907784757702 434.46706414831084 200.54219257309026 422.9620228346141 201.48824471867954 411.4569815209174 202.43429686426884 396.6426445069338 204.4213216061602 381.82830749295016 206.40834634805157 368.15531619450326 211.6541511758988 354.4823248960564 216.899956003746 344.1531614428229 222.6214012107132 333.8239979895895 228.3428464176804 323.3522348770257 237.16106610313608 312.88047176446184 245.9792857885918 304.46854079721777 253.78527451401578 296.05660982997375 261.5912632394398 287.3460726246325 270.32064631815416 278.6355354192913 279.0500293968685 269.3325379335124 291.65686109622175 260.02954044773355 304.26369279557497 253.98381915753487 316.5109590604774 247.93809786733618 328.7582253253798 243.13688115425634 341.756951696746 238.33566444117648 354.7556780681122 235.08943768362866 365.7252796434848 231.84321092608087 376.6948812188573 231.7452091452805 391.0565787148545 231.64720736448012 405.4182762108516 234.8854230246738 419.95616806027647 238.12363868486744 434.49405990970126 243.7153658897353 447.6288095895304 249.30709309460315 460.76355926935963 256.1333185977791 473.32333994901705 262.9595441009551 485.88312062867453 273.00799346278063 497.7841670842168 283.0564428246061 509.68521353975905 293.1649866837655 517.621069704658 303.27353054292496 525.556925869557 315.8231355646888 531.8551673459986 328.37274058645266 538.1534088224403 341.5814073494541 543.6847083239047 354.7900741124555 549.216007825369 366.51666103980017 553.7008904310253 378.2432479671449 558.1857730366816 390.2044687305241 557.9998917301093 402.1656894939033 557.8140104235371 414.86818983648106 556.9133837697914 427.5706901790589 556.0127571160456 441.60846420341613 551.2899748070013 455.6462382277734 546.567192497957 464.5344744272978 537.1418209191909 473.42271062682227 527.7164493404247 479.8241083065735 513.6905198171472 486.22550598632483 499.66459029386976 489.871246166915 487.4443598406941 493.51698634750517 475.2241293875184 493.0572405351514 462.2964125169366 492.5974947227976 449.36869564635475 490.45189946132075 434.15790551883265 488.30630419984396 418.9471153913105 483.8481169180004 406.85069043101345 479.3899296361568 394.7542654707164 469.9587400821723 384.360933395869 460.52755052818776 373.9676013210215 450.2367224704823 368.3085998653478 439.94589441277685 362.649598409674 426.4274556012955 364.5413301310609 412.9090167898142 366.43306185244774 409.61668350580817 368.3314836105351 406.32435022180215 370.22990536862244 404.90808944282776 370.8258744781921 403.4918286638534 371.42184358776166 401.9740952618761 371.66154985414704 400.45636185989866 371.9012561205324 398.9253665715516 371.77076780426876 397.3943712832045 371.6402794880051 395.93909562658 371.14718057616454 394.4838199699555 370.654081664324 393.18884463459233 369.82703108883095 391.8938692992292 368.99998051333785 390.83445831246297 367.8870464924987 389.7750473256967 366.7741124716596 389.01277370385435 365.4399787830565 388.250500082012 364.10584509445346 387.82966720381035 362.6280516507521 387.40883432560867 361.15025820705074 387.3539010177015 359.6146944326328 387.29896770979434 358.07913065821486 387.6131266986183 356.5750435917977 387.92728568744224 355.07095652538055 388.5922780378061 353.6857637779335 389.25727038817 352.30057103048654 390.23444671342617 351.1147800695743 391.2116230386823 349.9289891086621 392.44418980489445 349.01151816064703 393.6767565711066 348.094047212632 393.6762031746522 348.0943634024735 Z" fill="url(#dddraw-gradient)"/></svg>