<svg xmlns="http://www.w3.org/2000/svg" version="1.1" xmlns:xlink="http://www.w3.org/1999/xlink" xmlns:svgjs="http://svgjs.dev/svgjs" viewBox="0 0 800 800" opacity="1"><defs><linearGradient x1="50%" y1="0%" x2="50%" y2="100%" id="cccoil-grad"><stop stop-color="hsl(206, 75%, 49%)" stop-opacity="1" offset="0%"></stop><stop stop-color="hsl(331, 90%, 56%)" stop-opacity="1" offset="100%"></stop></linearGradient></defs><g stroke="url(#cccoil-grad)" fill="none" stroke-linecap="round"><circle r="379.5" cx="400" cy="400" stroke-width="9" stroke-dasharray="2051 2384" transform="rotate(360, 400, 400)" opacity="1.00"></circle><circle r="363" cx="400" cy="400" stroke-width="9" stroke-dasharray="1872 2281" transform="rotate(344, 400, 400)" opacity="0.45"></circle><circle r="346.5" cx="400" cy="400" stroke-width="9" stroke-dasharray="1702 2177" transform="rotate(327, 400, 400)" opacity="1.00"></circle><circle r="330" cx="400" cy="400" stroke-width="9" stroke-dasharray="1540 2073" transform="rotate(311, 400, 400)" opacity="0.70"></circle><circle r="313.5" cx="400" cy="400" stroke-width="9" stroke-dasharray="1386 1970" transform="rotate(295, 400, 400)" opacity="0.32"></circle><circle r="297" cx="400" cy="400" stroke-width="9" stroke-dasharray="1240 1866" transform="rotate(278, 400, 400)" opacity="0.83"></circle><circle r="280.5" cx="400" cy="400" stroke-width="9" stroke-dasharray="1102 1762" transform="rotate(262, 400, 400)" opacity="0.74"></circle><circle r="264" cx="400" cy="400" stroke-width="9" stroke-dasharray="973 1659" transform="rotate(245, 400, 400)" opacity="0.55"></circle><circle r="247.5" cx="400" cy="400" stroke-width="9" stroke-dasharray="851 1555" transform="rotate(229, 400, 400)" opacity="0.35"></circle><circle r="231" cx="400" cy="400" stroke-width="9" stroke-dasharray="738 1451" transform="rotate(213, 400, 400)" opacity="0.12"></circle><circle r="214.5" cx="400" cy="400" stroke-width="9" stroke-dasharray="632 1348" transform="rotate(196, 400, 400)" opacity="0.09"></circle><circle r="198" cx="400" cy="400" stroke-width="9" stroke-dasharray="535 1244" transform="rotate(180, 400, 400)" opacity="0.63"></circle><circle r="181.5" cx="400" cy="400" stroke-width="9" stroke-dasharray="446 1140" transform="rotate(164, 400, 400)" opacity="0.78"></circle><circle r="165" cx="400" cy="400" stroke-width="9" stroke-dasharray="365 1037" transform="rotate(147, 400, 400)" opacity="0.37"></circle><circle r="148.5" cx="400" cy="400" stroke-width="9" stroke-dasharray="292 933" transform="rotate(131, 400, 400)" opacity="0.19"></circle><circle r="132" cx="400" cy="400" stroke-width="9" stroke-dasharray="227 829" transform="rotate(115, 400, 400)" opacity="0.86"></circle><circle r="115.5" cx="400" cy="400" stroke-width="9" stroke-dasharray="170 726" transform="rotate(98, 400, 400)" opacity="0.49"></circle><circle r="99" cx="400" cy="400" stroke-width="9" stroke-dasharray="122 622" transform="rotate(82, 400, 400)" opacity="0.45"></circle><circle r="82.5" cx="400" cy="400" stroke-width="9" stroke-dasharray="81 518" transform="rotate(65, 400, 400)" opacity="0.87"></circle><circle r="66" cx="400" cy="400" stroke-width="9" stroke-dasharray="49 415" transform="rotate(49, 400, 400)" opacity="0.21"></circle><circle r="49.5" cx="400" cy="400" stroke-width="9" stroke-dasharray="24 311" transform="rotate(33, 400, 400)" opacity="0.79"></circle><circle r="33" cx="400" cy="400" stroke-width="9" stroke-dasharray="8 207" transform="rotate(16, 400, 400)" opacity="0.12"></circle><circle r="16.5" cx="400" cy="400" stroke-width="9" stroke-dasharray="0 104" opacity="0.69"></circle></g></svg>