<svg xmlns="http://www.w3.org/2000/svg" version="1.1" xmlns:xlink="http://www.w3.org/1999/xlink" xmlns:svgjs="http://svgjs.dev/svgjs" viewBox="0 0 800 800"><defs><linearGradient x1="50%" y1="0%" x2="50%" y2="100%" id="ccchaos-grad"><stop stop-color="hsl(206, 75%, 49%)" stop-opacity="1" offset="0%"></stop><stop stop-color="hsl(331, 90%, 56%)" stop-opacity="1" offset="100%"></stop></linearGradient></defs><g stroke-width="2" stroke="url(#ccchaos-grad)" fill="none" stroke-linecap="round"><path d="M360.04 68.13C370.32 66.15 380.46 64.9 390.45 64.4 400.46 64.12 410.38 64.68 420.23 66.06 430.2 67.75 440.23 70.29 450.4 73.63 460.83 77.29 471.58 81.72 482.72 86.86 494.33 92.24 506.53 98.26 519.4 104.84 532.88 111.56 547.15 118.76 562.2 126.38 577.82 134.02 594.14 142.02 611 150.3 628.08 158.52 645.32 166.99 662.38 175.67 678.89 184.24 694.54 193.01 708.86 201.94 721.6 210.74 732.23 219.72 740.29 228.87 745.93 237.9 748.53 247.11 747.9 256.5 744.78 265.8 738.68 275.31 729.9 285.02 719.78 294.67 708.12 304.54 695.68 314.64 684.09 324.7 673.38 335.01 664.44 345.56 658.63 356.09 655.9 366.87 656.7 377.9 661.65 388.93 670.18 400.21 681.9 411.73 696.56 423.25 712.49 434.75 728.59 446.19 744.63 457.62 758.8 469 770.26 480.27 779.09 491.53 784.04 502.67 784.91 513.65 782.24 524.59 775.6 535.34 765.44 545.83 752.53 556.26 737.13 566.39 719.95 576.17 701.73 585.82 682.97 595.06 664.32 603.83 646.22 612.42 629.09 620.47 613.25 627.94 598.88 635.19 586.07 641.81 574.81 647.76 565.17 653.48 556.88 658.53 549.71 662.91 541.2 668.91 527.74 677.89 521.46 681.2 515.25 684.44 499.83 690.56 490.18 693.89 483.38 696.7 475.72 699.64 467.24 702.71 458.65 706.4 449.26 710.19 439.11 714.02 428.91 718.3 418 722.45 406.43 726.33 394.86 730.33 382.96 733.69 370.81 736.3 358.72 738.66 346.43 740.04 334.02 740.39 321.71 740.22 309.34 738.92 296.98 736.52 284.8 733.51 272.7 729.42 260.79 724.33 249.12 718.73 237.74 712.24 226.73 704.98 216.06 697.4 205.87 689.2 196.25 680.5 187.05 671.69 178.49 662.52 170.63 653.08 163.22 643.69 156.52 634.13 150.56 624.45 144.94 614.92 139.98 605.31 135.66 595.66 131.47 586.19 127.76 576.67 124.49 567.09 121.07 557.69 117.9 548.2 114.93 538.62 111.57 529.17 108.28 519.58 105.05 509.86 101.32 500.22 97.61 490.4 93.97 480.4 89.9 470.44 85.97 460.27 82.27 449.89 78.34 439.53 74.79 428.93 71.73 418.13 68.72 407.33 66.37 396.3 64.78 385.08 63.51 373.86 63.17 362.7 63.75 351.65 64.79 340.61 66.8 329.68 69.72 318.92 73.08 308.17 77.29 297.61 82.27 287.26 87.52 276.96 93.39 266.9 99.76 257.13 106.12 247.43 112.81 238.05 119.71 229.03 126.32 220.1 132.99 211.55 139.66 203.43 145.84 195.41 151.97 187.83 158.03 180.72 163.57 173.7 169.09 167.14 174.63 161.08 179.74 155.06 185 149.51 190.43 144.41 195.63 139.31 201.15 134.61 207.02 130.3 212.83 125.9 219.09 121.82 225.81 118.05 232.59 114.08 239.87 110.35 247.62 106.85 255.49 103.07 263.81 99.47 272.55 96.07 281.4 92.36 290.61 88.83 300.12 85.54 309.7 81.99 319.53 78.72 329.54 75.8 339.57 72.75 349.75 70.17 360.03 68.13" stroke-dasharray="6 8" transform="rotate(0, 400, 400)" opacity="0.97"></path><path d="M360.13 74.11C370.22 72.15 380.25 70.9 390.19 70.39 400.17 70.09 410.12 70.6 420.09 71.92 430.18 73.54 440.39 75.98 450.81 79.22 461.49 82.76 472.53 87.05 484 92.05 495.91 97.29 508.42 103.16 521.58 109.59 535.28 116.16 549.71 123.22 564.84 130.7 580.44 138.21 596.62 146.08 613.21 154.25 629.88 162.37 646.56 170.74 662.91 179.33 678.6 187.82 693.31 196.5 706.59 205.36 718.26 214.1 727.8 223.01 734.79 232.09 739.45 241.06 741.18 250.2 739.83 259.52 736.18 268.75 729.76 278.17 720.89 287.79 710.86 297.35 699.49 307.12 687.51 317.1 676.45 327.05 666.34 337.23 657.99 347.64 652.7 358.02 650.37 368.65 651.42 379.52 656.43 390.37 664.84 401.47 676.29 412.8 690.54 424.12 706.01 435.41 721.67 446.63 737.31 457.85 751.22 468.99 762.59 480.02 771.51 491.03 776.76 501.92 778.12 512.63 776.13 523.3 770.29 533.77 761.01 543.98 749.04 554.11 734.53 563.94 718.18 573.41 700.68 582.76 682.48 591.7 664.21 600.16 646.31 608.45 629.18 616.21 613.15 623.4 598.43 630.37 585.12 636.74 573.27 642.46 562.93 647.98 553.9 652.85 546 657.08 539.33 661.16 533.42 664.66 528.01 667.59 521.11 671.76 507.58 678.4 500.02 681.3 494.86 683.59 489.02 685.85 482.43 688.15 475.78 691.01 468.34 693.98 460.11 697.06 451.8 700.74 442.72 704.5 432.9 708.27 423.02 712.49 412.46 716.56 401.24 720.35 390.02 724.26 378.47 727.54 366.68 730.1 354.93 732.41 342.99 733.79 330.94 734.17 318.99 734.06 306.99 732.86 295.02 730.59 283.23 727.75 271.54 723.84 260.05 718.96 248.82 713.59 237.88 707.34 227.33 700.32 217.13 692.99 207.41 685.03 198.26 676.56 189.52 667.96 181.41 658.98 173.99 649.72 166.99 640.49 160.67 631.06 155.07 621.5 149.77 612.07 145.1 602.55 141.03 592.96 137.05 583.55 133.53 574.07 130.4 564.54 127.09 555.18 124.01 545.73 121.1 536.19 117.79 526.79 114.53 517.26 111.3 507.6 107.57 498.03 103.85 488.29 100.18 478.39 96.08 468.53 92.1 458.47 88.34 448.23 84.35 438 80.73 427.57 77.59 416.94 74.5 406.31 72.07 395.48 70.39 384.47 69.05 373.45 68.63 362.52 69.16 351.71 70.15 340.9 72.11 330.21 74.99 319.69 78.33 309.2 82.52 298.89 87.48 288.8 92.73 278.75 98.59 268.96 104.97 259.46 111.35 250.02 118.07 240.89 125 232.13 131.65 223.45 138.38 215.15 145.11 207.26 151.37 199.47 157.57 192.11 163.7 185.2 169.31 178.37 174.89 172 180.47 166.09 185.61 160.22 190.85 154.79 196.25 149.8 201.38 144.79 206.79 140.16 212.52 135.92 218.15 131.56 224.19 127.52 230.67 123.77 237.16 119.82 244.13 116.1 251.56 112.6 259.07 108.83 267.04 105.24 275.42 101.84 283.89 98.14 292.73 94.63 301.9 91.35 311.12 87.83 320.62 84.59 330.34 81.7 340.08 78.69 350.02 76.13 360.12 74.11" stroke-dasharray="14 12" transform="rotate(6.296296296296296, 400, 400)" opacity="0.43"></path><path d="M360.89 80.1C370.82 78.16 380.74 76.91 390.65 76.38 400.6 76.06 410.6 76.53 420.67 77.78 430.87 79.33 441.26 81.68 451.9 84.81 462.8 88.23 474.1 92.4 485.85 97.25 498.01 102.35 510.75 108.07 524.13 114.34 537.97 120.77 552.48 127.68 567.61 135.01 583.09 142.39 599.05 150.13 615.27 158.17 631.45 166.18 647.51 174.45 663.1 182.94 677.92 191.34 691.67 199.94 703.9 208.72 714.51 217.39 722.98 226.23 728.94 235.23 732.67 244.13 733.58 253.2 731.58 262.44 727.47 271.59 720.78 280.93 711.86 290.46 701.97 299.92 690.92 309.59 679.4 319.46 668.89 329.29 659.37 339.34 651.6 349.6 646.8 359.85 644.87 370.32 646.15 381.02 651.21 391.7 659.51 402.62 670.68 413.74 684.53 424.87 699.55 435.94 714.76 446.94 730.01 457.93 743.64 468.84 754.9 479.63 763.89 490.4 769.41 501.03 771.24 511.47 769.88 521.87 764.82 532.06 756.4 541.97 745.34 551.82 731.74 561.35 716.23 570.52 699.48 579.57 681.89 588.2 664.06 596.36 646.42 604.36 629.37 611.84 613.25 618.75 598.26 625.47 584.54 631.6 572.17 637.11 561.2 642.42 551.49 647.13 542.89 651.22 535.49 655.19 528.89 658.61 522.86 661.49 515.1 665.64 500.41 672.38 492.57 675.38 487.31 677.74 481.45 680.07 474.93 682.42 468.38 685.32 461.11 688.32 453.1 691.42 445.02 695.08 436.22 698.81 426.7 702.53 417.14 706.67 406.9 710.66 396.03 714.36 385.16 718.18 373.96 721.39 362.53 723.9 351.14 726.17 339.57 727.54 327.89 727.95 316.33 727.9 304.72 726.79 293.16 724.64 281.78 721.95 270.52 718.24 259.48 713.57 248.69 708.41 238.22 702.4 228.14 695.63 218.41 688.54 209.16 680.82 200.48 672.58 192.2 664.2 184.54 655.43 177.55 646.35 170.95 637.28 165.01 628 159.75 618.57 154.76 609.26 150.36 599.83 146.53 590.33 142.75 580.98 139.39 571.57 136.38 562.1 133.18 552.77 130.17 543.37 127.31 533.9 124.03 524.54 120.78 515.07 117.55 505.48 113.81 495.98 110.08 486.32 106.37 476.52 102.23 466.76 98.21 456.83 94.39 446.72 90.34 436.63 86.65 426.35 83.43 415.9 80.27 405.44 77.76 394.8 76 384 74.59 373.2 74.1 362.49 74.56 351.9 75.5 341.32 77.41 330.88 80.26 320.61 83.56 310.36 87.72 300.3 92.66 290.47 97.89 280.68 103.75 271.14 110.12 261.9 116.52 252.71 123.25 243.84 130.21 235.33 136.91 226.89 143.7 218.83 150.49 211.18 156.83 203.61 163.11 196.45 169.32 189.74 175.02 183.1 180.66 176.89 186.29 171.13 191.48 165.4 196.74 160.09 202.13 155.2 207.22 150.28 212.55 145.72 218.17 141.53 223.65 137.22 229.51 133.2 235.78 129.48 242.02 125.54 248.72 121.83 255.87 118.34 263.06 114.57 270.7 110.99 278.75 107.59 286.87 103.91 295.37 100.42 304.22 97.16 313.11 93.67 322.3 90.46 331.77 87.6 341.24 84.62 350.95 82.09 360.88 80.1" stroke-dasharray="14 10" transform="rotate(12.592592592592592, 400, 400)" opacity="0.86"></path><path d="M362.31 86.08C372.09 84.16 381.93 82.92 391.82 82.37 401.74 82.03 411.78 82.46 421.95 83.66 432.26 85.13 442.8 87.39 453.64 90.41 464.73 93.72 476.24 97.75 488.21 102.46 500.56 107.41 513.48 112.98 526.98 119.1 540.89 125.37 555.4 132.14 570.43 139.32 585.71 146.56 601.35 154.17 617.13 162.08 632.75 169.97 648.12 178.12 662.89 186.5 676.82 194.81 689.59 203.32 700.77 212.01 710.34 220.6 717.78 229.36 722.75 238.28 725.61 247.1 725.77 256.1 723.17 265.25 718.66 274.32 711.77 283.58 702.84 293.01 693.13 302.37 682.42 311.94 671.37 321.69 661.41 331.4 652.47 341.32 645.27 351.45 640.95 361.55 639.38 371.87 640.89 382.39 646 392.9 654.17 403.63 665.07 414.56 678.53 425.48 693.1 436.35 707.87 447.12 722.72 457.89 736.08 468.56 747.21 479.1 756.25 489.62 762.01 499.99 764.27 510.16 763.51 520.29 759.19 530.2 751.61 539.83 741.45 549.38 728.74 558.62 714.08 567.49 698.1 576.24 681.16 584.58 663.83 592.45 646.53 600.16 629.64 607.37 613.51 614.03 598.33 620.5 584.29 626.4 571.48 631.7 559.95 636.84 549.62 641.39 540.38 645.36 532.29 649.23 525.02 652.57 518.38 655.42 512.52 658.3 506.96 660.79 501.48 662.95 496.43 665.32 491.19 667.48 485.62 669.5 480.2 671.91 474.28 674.31 467.78 676.72 461.28 679.66 454.13 682.68 446.3 685.79 438.42 689.43 429.85 693.12 420.62 696.79 411.34 700.85 401.42 704.76 390.89 708.38 380.36 712.11 369.51 715.24 358.44 717.69 347.42 719.93 336.23 721.29 324.95 721.72 313.77 721.72 302.57 720.71 291.44 718.68 280.49 716.14 269.67 712.61 259.09 708.14 248.77 703.21 238.77 697.43 229.18 690.9 219.92 684.05 211.14 676.57 202.94 668.57 195.11 660.41 187.89 651.85 181.33 642.97 175.11 634.08 169.53 624.96 164.61 615.67 159.9 606.48 155.76 597.16 152.14 587.76 148.54 578.49 145.33 569.15 142.44 559.75 139.31 550.48 136.37 541.14 133.54 531.73 130.28 522.43 127.04 513.02 123.8 503.51 120.04 494.08 116.28 484.52 112.53 474.82 108.35 465.16 104.28 455.34 100.41 445.37 96.3 435.42 92.55 425.29 89.26 415.01 86.03 404.73 83.44 394.28 81.61 383.68 80.13 373.09 79.58 362.59 79.97 352.24 80.86 341.89 82.72 331.68 85.51 321.65 88.77 311.65 92.9 301.84 97.8 292.26 103.01 282.72 108.85 273.44 115.21 264.45 121.61 255.52 128.36 246.9 135.34 238.63 142.09 230.43 148.92 222.6 155.78 215.17 162.2 207.81 168.57 200.85 174.86 194.33 180.65 187.86 186.38 181.81 192.08 176.2 197.33 170.6 202.63 165.4 208.03 160.61 213.1 155.76 218.39 151.28 223.93 147.13 229.3 142.86 235.02 138.88 241.11 135.17 247.14 131.25 253.61 127.55 260.5 124.06 267.4 120.3 274.75 116.72 282.51 113.34 290.31 109.67 298.5 106.2 307.07 102.97 315.65 99.5 324.57 96.33 333.79 93.49 343.01 90.56 352.53 88.06 362.31 86.08" stroke-dasharray="12 2" transform="rotate(18.88888888888889, 400, 400)" opacity="0.62"></path><path d="M364.38 92.06C374.03 90.16 383.78 88.93 393.65 88.37 403.55 88.01 413.62 88.4 423.89 89.53 434.28 90.94 444.95 93.11 455.96 96.02 467.19 99.21 478.87 103.12 491.01 107.69 503.48 112.49 516.5 117.91 530.07 123.87 543.96 129.99 558.38 136.59 573.22 143.62 588.23 150.72 603.47 158.19 618.73 165.96 633.73 173.73 648.35 181.77 662.27 190.03 675.29 198.23 687.06 206.65 697.21 215.23 705.76 223.74 712.19 232.42 716.23 241.25 718.27 249.99 717.74 258.9 714.62 267.97 709.76 276.96 702.72 286.12 693.83 295.44 684.33 304.71 673.98 314.17 663.42 323.8 654 333.39 645.64 343.19 639 353.16 635.14 363.12 633.93 373.28 635.64 383.63 640.78 393.97 648.83 404.52 659.46 415.24 672.53 425.96 686.66 436.61 700.99 447.15 715.45 457.7 728.52 468.13 739.51 478.42 748.58 488.69 754.56 498.8 757.21 508.7 757.02 518.56 753.41 528.19 746.63 537.53 737.35 546.8 725.54 555.75 711.73 564.32 696.55 572.79 680.29 580.84 663.51 588.42 646.6 595.86 629.94 602.81 613.88 609.21 598.61 615.45 584.33 621.14 571.16 626.25 559.15 631.22 548.27 635.63 538.44 639.48 529.71 643.26 521.8 646.54 514.56 649.36 508.1 652.23 502 654.73 496.07 656.92 490.6 659.33 485.03 661.55 479.22 663.64 473.61 666.11 467.58 668.57 461.05 671.03 454.56 674 447.48 677.05 439.79 680.16 432.07 683.78 423.72 687.43 414.73 691.05 405.72 695.04 396.1 698.86 385.9 702.4 375.7 706.04 365.21 709.1 354.51 711.49 343.86 713.68 333.05 715.03 322.17 715.49 311.4 715.54 300.63 714.61 289.93 712.71 279.42 710.31 269.06 706.95 258.95 702.68 249.1 697.96 239.57 692.42 230.47 686.13 221.69 679.52 213.39 672.29 205.65 664.52 198.26 656.59 191.47 648.25 185.32 639.57 179.48 630.87 174.24 621.92 169.63 612.78 165.2 603.72 161.29 594.53 157.88 585.24 154.44 576.06 151.35 566.8 148.56 557.48 145.51 548.29 142.6 539.01 139.8 529.67 136.54 520.44 133.29 511.1 130.03 501.68 126.25 492.33 122.45 482.85 118.67 473.26 114.45 463.71 110.33 454.01 106.4 444.18 102.24 434.36 98.43 424.39 95.07 414.28 91.78 404.17 89.13 393.91 87.22 383.52 85.67 373.13 85.06 362.85 85.39 352.72 86.22 342.6 88.02 332.63 90.75 322.84 93.97 313.08 98.05 303.51 102.91 294.19 108.08 284.9 113.9 275.86 120.24 267.12 126.64 258.43 133.39 250.05 140.39 242.02 147.18 234.05 154.07 226.45 160.98 219.23 167.49 212.08 173.94 205.32 180.32 198.97 186.21 192.67 192.04 186.78 197.82 181.3 203.15 175.82 208.5 170.73 213.93 166.02 219.03 161.25 224.3 156.83 229.79 152.73 235.08 148.5 240.68 144.54 246.63 140.84 252.49 136.94 258.76 133.25 265.43 129.76 272.09 126.02 279.18 122.45 286.68 119.07 294.2 115.43 302.12 111.98 310.42 108.76 318.73 105.34 327.39 102.19 336.4 99.39 345.4 96.49 354.73 94.02 364.37 92.06" stroke-dasharray="7 2" transform="rotate(25.185185185185183, 400, 400)" opacity="0.81"></path><path d="M367.05 98.05C376.58 96.17 386.26 94.94 396.1 94.37 405.99 93.99 416.09 94.34 426.42 95.42 436.88 96.75 447.66 98.84 458.79 101.64 470.13 104.72 481.92 108.49 494.17 112.92 506.71 117.58 519.76 122.84 533.3 128.64 547.1 134.61 561.35 141.06 575.92 147.93 590.57 154.88 605.34 162.19 620.01 169.82 634.34 177.46 648.18 185.37 661.21 193.51 673.3 201.61 684.08 209.91 693.21 218.4 700.77 226.81 706.25 235.39 709.4 244.13 710.68 252.79 709.52 261.61 705.94 270.58 700.79 279.48 693.65 288.54 684.85 297.76 675.59 306.93 665.62 316.27 655.56 325.78 646.68 335.26 638.89 344.91 632.78 354.75 629.37 364.56 628.49 374.56 630.4 384.74 635.57 394.9 643.49 405.26 653.85 415.77 666.54 426.29 680.23 436.72 694.13 447.04 708.19 457.36 720.97 467.55 731.81 477.59 740.89 487.62 747.05 497.46 750.07 507.09 750.41 516.69 747.47 526.04 741.48 535.09 733.04 544.08 722.11 552.74 709.17 561.03 694.79 569.21 679.25 576.98 663.06 584.29 646.61 591.47 630.26 598.16 614.34 604.33 599.05 610.35 584.62 615.84 571.17 620.77 558.76 625.58 547.4 629.85 537.05 633.6 527.72 637.3 519.22 640.53 511.4 643.32 504.36 646.18 497.73 648.7 491.35 650.93 485.43 653.38 479.51 655.66 473.44 657.81 467.59 660.34 461.41 662.85 454.82 665.37 448.29 668.37 441.26 671.43 433.67 674.54 426.07 678.13 417.9 681.74 409.15 685.3 400.37 689.22 391.03 692.96 381.15 696.41 371.27 699.97 361.13 702.95 350.8 705.29 340.51 707.44 330.1 708.78 319.63 709.26 309.27 709.36 298.93 708.5 288.68 706.72 278.61 704.46 268.72 701.27 259.09 697.19 249.71 692.69 240.66 687.37 232.05 681.32 223.73 674.95 215.9 667.96 208.63 660.44 201.67 652.74 195.29 644.61 189.54 636.15 184.05 627.64 179.14 618.87 174.82 609.91 170.65 600.99 166.96 591.93 163.72 582.76 160.43 573.69 157.45 564.53 154.73 555.31 151.74 546.19 148.86 537 146.06 527.74 142.81 518.57 139.54 509.32 136.25 499.99 132.44 490.72 128.6 481.34 124.77 471.86 120.51 462.41 116.35 452.84 112.36 443.14 108.15 433.47 104.29 423.65 100.86 413.71 97.52 403.77 94.8 393.7 92.83 383.51 91.22 373.32 90.55 363.26 90.81 353.36 91.58 343.45 93.32 333.71 95.99 324.17 99.15 314.64 103.17 305.32 107.98 296.24 113.12 287.19 118.9 278.4 125.21 269.9 131.6 261.45 138.35 253.3 145.36 245.51 152.18 237.76 159.11 230.37 166.08 223.36 172.67 216.4 179.21 209.83 185.69 203.65 191.68 197.51 197.61 191.76 203.48 186.41 208.9 181.05 214.34 176.05 219.82 171.43 224.95 166.74 230.23 162.37 235.7 158.31 240.94 154.12 246.47 150.18 252.31 146.5 258.04 142.62 264.14 138.93 270.63 135.45 277.08 131.72 283.95 128.16 291.23 124.8 298.49 121.17 306.17 117.75 314.24 114.56 322.3 111.16 330.75 108.05 339.56 105.28 348.36 102.42 357.52 99.98 367.04 98.05" stroke-dasharray="11 5" transform="rotate(31.48148148148148, 400, 400)" opacity="0.69"></path><path d="M370.28 104.03C379.7 102.17 389.31 100.95 399.13 100.37 408.99 99.97 419.11 100.29 429.49 101.31 440 102.57 450.84 104.57 462.06 107.27 473.47 110.23 485.31 113.88 497.61 118.17 510.14 122.68 523.15 127.78 536.59 133.43 550.23 139.23 564.22 145.52 578.46 152.23 592.68 159.03 606.91 166.19 620.94 173.68 634.54 181.17 647.56 188.95 659.69 196.96 670.84 204.94 680.64 213.13 688.77 221.5 695.38 229.81 699.95 238.29 702.28 246.93 702.85 255.49 701.13 264.22 697.15 273.09 691.77 281.89 684.58 290.85 675.9 299.97 666.91 309.03 657.35 318.25 647.79 327.64 639.45 336.99 632.21 346.51 626.62 356.19 623.64 365.86 623.08 375.7 625.17 385.7 630.36 395.69 638.14 405.85 648.24 416.16 660.55 426.47 673.81 436.69 687.29 446.78 700.96 456.87 713.44 466.82 724.12 476.61 733.17 486.38 739.49 495.97 742.85 505.33 743.68 514.66 741.38 523.73 736.14 532.51 728.54 541.22 718.47 549.6 706.38 557.61 692.83 565.51 678.03 573.01 662.47 580.06 646.53 586.99 630.54 593.44 614.84 599.38 599.62 605.19 585.12 610.49 571.48 615.25 558.75 619.91 546.99 624.07 536.17 627.73 526.31 631.35 517.26 634.54 508.91 637.31 501.31 640.17 494.16 642.71 487.32 644.97 480.96 647.47 474.67 649.8 468.31 652.01 462.2 654.59 455.84 657.15 449.16 659.72 442.56 662.74 435.52 665.81 428.01 668.92 420.5 672.49 412.48 676.05 403.94 679.56 395.37 683.4 386.29 687.06 376.72 690.43 367.15 693.89 357.34 696.81 347.38 699.09 337.46 701.2 327.44 702.53 317.39 703.03 307.44 703.16 297.53 702.39 287.75 700.71 278.13 698.59 268.7 695.56 259.55 691.67 250.64 687.37 242.07 682.28 233.94 676.46 226.08 670.34 218.71 663.59 211.88 656.31 205.34 648.85 199.36 640.95 193.98 632.7 188.83 624.4 184.23 615.82 180.18 607.03 176.24 598.27 172.74 589.35 169.67 580.32 166.5 571.37 163.61 562.32 160.96 553.2 158 544.18 155.14 535.07 152.34 525.91 149.07 516.83 145.78 507.66 142.45 498.42 138.6 489.25 134.72 479.97 130.84 470.6 126.54 461.27 122.33 451.82 118.29 442.26 114.04 432.73 110.12 423.06 106.64 413.29 103.25 403.53 100.48 393.64 98.44 383.65 96.78 373.67 96.04 363.82 96.23 354.14 96.94 344.45 98.61 334.94 101.22 325.63 104.32 316.33 108.28 307.25 113.03 298.41 118.11 289.6 123.85 281.04 130.12 272.79 136.49 264.57 143.23 256.65 150.24 249.08 157.09 241.55 164.06 234.36 171.08 227.55 177.75 220.78 184.38 214.38 190.94 208.37 197.05 202.39 203.08 196.77 209.06 191.54 214.58 186.29 220.11 181.39 225.66 176.84 230.85 172.21 236.16 167.9 241.64 163.88 246.87 159.72 252.35 155.81 258.11 152.14 263.74 148.27 269.72 144.6 276.07 141.13 282.34 137.41 289.03 133.86 296.11 130.51 303.16 126.91 310.63 123.51 318.49 120.34 326.34 116.98 334.59 113.91 343.22 111.17 351.85 108.35 360.86 105.94 370.27 104.03" stroke-dasharray="7 11" transform="rotate(37.77777777777778, 400, 400)" opacity="0.95"></path><path d="M374.02 110.01C383.33 108.18 392.88 106.96 402.67 106.38 412.5 105.96 422.61 106.24 433.02 107.2 443.54 108.4 454.43 110.32 465.68 112.91 477.11 115.76 488.96 119.28 501.23 123.42 513.7 127.79 526.6 132.74 539.87 138.23 553.27 143.87 566.94 149.99 580.76 156.54 594.48 163.18 608.12 170.19 621.46 177.52 634.3 184.87 646.48 192.51 657.69 200.38 667.9 208.24 676.73 216.3 683.89 224.55 689.59 232.75 693.3 241.13 694.86 249.65 694.8 258.12 692.57 266.74 688.25 275.5 682.7 284.2 675.5 293.06 666.99 302.06 658.29 311.01 649.14 320.11 640.09 329.37 632.29 338.59 625.59 347.97 620.51 357.5 617.95 367.02 617.69 376.69 619.95 386.51 625.15 396.33 632.8 406.3 642.63 416.4 654.57 426.5 667.41 436.5 680.46 446.36 693.73 456.22 705.91 465.93 716.42 475.47 725.43 484.99 731.89 494.32 735.55 503.42 736.84 512.48 735.15 521.28 730.62 529.78 723.82 538.21 714.6 546.32 703.36 554.05 690.64 561.69 676.61 568.93 661.71 575.73 646.34 582.41 630.77 588.63 615.36 594.36 600.28 599.97 585.78 605.09 572.03 609.71 559.07 614.23 546.98 618.28 535.77 621.86 525.44 625.41 515.9 628.56 507.05 631.32 498.92 634.18 491.28 636.74 483.99 639.04 477.19 641.58 470.52 643.97 463.87 646.24 457.47 648.87 450.92 651.48 444.11 654.08 437.41 657.13 430.35 660.21 422.88 663.31 415.43 666.84 407.53 670.37 399.18 673.82 390.8 677.58 381.97 681.16 372.69 684.44 363.41 687.82 353.93 690.66 344.34 692.89 334.78 694.96 325.15 696.27 315.51 696.79 305.98 696.96 296.5 696.26 287.17 694.69 278 692.7 269.03 689.83 260.37 686.12 251.91 682.02 243.82 677.15 236.15 671.57 228.75 665.68 221.82 659.17 215.43 652.14 209.29 644.91 203.69 637.25 198.66 629.22 193.82 621.13 189.51 612.74 185.71 604.14 181.97 595.56 178.65 586.8 175.72 577.91 172.65 569.09 169.84 560.16 167.23 551.16 164.3 542.24 161.44 533.24 158.62 524.17 155.33 515.18 152 506.12 148.62 496.98 144.74 487.9 140.81 478.73 136.88 469.48 132.54 460.27 128.28 450.95 124.19 441.53 119.9 432.14 115.94 422.63 112.41 413.03 108.97 403.43 106.14 393.73 104.05 383.95 102.33 374.17 101.53 364.53 101.66 355.06 102.3 345.6 103.91 336.31 106.44 327.23 109.47 318.17 113.37 309.31 118.04 300.71 123.07 292.13 128.75 283.81 134.97 275.78 141.31 267.79 148.03 260.1 155.03 252.74 161.9 245.41 168.91 238.43 175.98 231.81 182.72 225.22 189.43 218.99 196.09 213.13 202.3 207.29 208.45 201.8 214.53 196.68 220.18 191.53 225.8 186.72 231.44 182.24 236.71 177.68 242.08 173.42 247.58 169.43 252.82 165.31 258.29 161.42 264.01 157.77 269.57 153.92 275.46 150.25 281.69 146.79 287.83 143.08 294.36 139.55 301.29 136.21 308.16 132.64 315.45 129.26 323.14 126.12 330.8 122.8 338.87 119.76 347.35 117.06 355.82 114.27 364.7 111.9 374.01 110.02" stroke-dasharray="12 3" transform="rotate(44.07407407407407, 400, 400)" opacity="0.81"></path><path d="M378.2 116C387.41 114.18 396.9 112.97 406.64 112.38 416.43 111.95 426.53 112.19 436.94 113.1 447.45 114.24 458.33 116.07 469.58 118.56 480.97 121.3 492.78 124.69 504.96 128.7 517.31 132.92 530.03 137.71 543.05 143.03 556.14 148.52 569.42 154.47 582.76 160.85 595.94 167.33 608.94 174.18 621.54 181.35 633.59 188.55 644.9 196.04 655.2 203.77 664.48 211.49 672.37 219.43 678.6 227.55 683.42 235.64 686.33 243.89 687.19 252.3 686.54 260.66 683.88 269.17 679.28 277.81 673.61 286.41 666.45 295.15 658.13 304.03 649.75 312.86 641.03 321.85 632.49 330.96 625.22 340.05 619.05 349.29 614.46 358.67 612.29 368.03 612.32 377.54 614.73 387.18 619.94 396.82 627.45 406.59 637.02 416.48 648.59 426.38 661.02 436.15 673.65 445.78 686.53 455.41 698.41 464.89 708.72 474.18 717.68 483.45 724.25 492.52 728.18 501.35 729.9 510.15 728.77 518.68 724.93 526.91 718.91 535.08 710.51 542.92 700.11 550.39 688.22 557.77 674.97 564.76 660.76 571.31 645.99 577.76 630.9 583.77 615.84 589.29 600.99 594.72 586.57 599.67 572.79 604.15 559.67 608.55 547.34 612.49 535.81 616 525.08 619.5 515.1 622.61 505.8 625.37 497.19 628.23 489.09 630.81 481.37 633.16 474.14 635.74 467.1 638.17 460.14 640.5 453.45 643.18 446.68 645.83 439.73 648.47 432.9 651.53 425.79 654.61 418.35 657.7 410.93 661.21 403.13 664.68 394.94 668.07 386.73 671.76 378.12 675.25 369.12 678.46 360.12 681.75 350.96 684.52 341.72 686.69 332.51 688.72 323.27 690.02 314.05 690.55 304.91 690.76 295.87 690.12 286.99 688.65 278.26 686.78 269.75 684.07 261.55 680.55 253.55 676.64 245.92 671.98 238.72 666.63 231.74 660.98 225.24 654.71 219.26 647.92 213.5 640.93 208.26 633.51 203.56 625.71 199.01 617.83 194.96 609.65 191.39 601.25 187.84 592.84 184.67 584.25 181.85 575.52 178.87 566.84 176.11 558.05 173.53 549.17 170.61 540.37 167.74 531.48 164.89 522.53 161.57 513.64 158.19 504.68 154.77 495.66 150.84 486.69 146.86 477.63 142.88 468.5 138.5 459.41 134.2 450.22 130.06 440.95 125.74 431.7 121.73 422.35 118.16 412.92 114.68 403.5 111.81 393.98 109.66 384.4 107.89 374.81 107.03 365.38 107.09 356.13 107.67 346.89 109.21 337.82 111.66 328.97 114.62 320.12 118.43 311.5 123.03 303.13 127.99 294.77 133.61 286.68 139.77 278.87 146.07 271.1 152.76 263.62 159.75 256.47 166.62 249.35 173.66 242.56 180.76 236.11 187.57 229.7 194.36 223.63 201.1 217.92 207.43 212.21 213.69 206.85 219.88 201.83 225.65 196.78 231.38 192.05 237.12 187.64 242.49 183.14 247.93 178.92 253.48 174.97 258.76 170.87 264.24 167.01 269.95 163.37 275.47 159.53 281.3 155.89 287.45 152.43 293.49 148.74 299.91 145.23 306.7 141.9 313.43 138.35 320.57 135.01 328.11 131.9 335.61 128.61 343.53 125.61 351.88 122.94 360.21 120.2 368.97 117.86 378.19 116" stroke-dasharray="14 10" transform="rotate(50.37037037037037, 400, 400)" opacity="0.26"></path><path d="M382.74 121.98C391.87 120.19 401.28 118.99 410.98 118.39 420.71 117.94 430.77 118.15 441.15 119.01 451.62 120.08 462.46 121.83 473.65 124.22 484.97 126.85 496.67 130.12 508.71 133.98 520.87 138.06 533.35 142.7 546.05 147.86 558.78 153.18 571.61 158.97 584.41 165.17 596.99 171.48 609.31 178.17 621.14 185.17 632.39 192.22 642.83 199.56 652.21 207.14 660.58 214.72 667.55 222.52 672.89 230.51 676.9 238.46 679.06 246.59 679.27 254.88 678.11 263.12 675.07 271.51 670.24 280.04 664.5 288.52 657.42 297.14 649.33 305.89 641.29 314.6 633.02 323.46 624.98 332.43 618.23 341.39 612.58 350.48 608.46 359.7 606.67 368.9 606.97 378.24 609.53 387.7 614.73 397.15 622.1 406.73 631.41 416.41 642.62 426.1 654.63 435.65 666.85 445.05 679.35 454.45 690.91 463.68 701.03 472.73 709.92 481.75 716.57 490.57 720.74 499.14 722.85 507.68 722.26 515.95 719.06 523.91 713.79 531.82 706.2 539.4 696.62 546.61 685.57 553.75 673.1 560.49 659.61 566.81 645.48 573.04 630.92 578.84 616.26 584.18 601.7 589.43 587.45 594.23 573.71 598.57 560.52 602.86 548.01 606.72 536.24 610.15 525.18 613.6 514.83 616.69 505.14 619.45 496.09 622.31 487.56 624.92 479.45 627.31 471.81 629.93 464.41 632.41 457.14 634.79 450.16 637.51 443.16 640.2 436.05 642.87 429.08 645.94 421.9 649.03 414.46 652.1 407.05 655.57 399.33 659 391.27 662.33 383.22 665.94 374.81 669.35 366.07 672.48 357.33 675.69 348.49 678.38 339.59 680.5 330.72 682.48 321.85 683.76 313.04 684.3 304.3 684.55 295.68 683.98 287.24 682.6 278.94 680.85 270.89 678.29 263.15 674.94 255.59 671.22 248.39 666.77 241.63 661.65 235.08 656.23 228.98 650.2 223.39 643.66 217.98 636.91 213.07 629.72 208.68 622.16 204.4 614.5 200.58 606.54 197.21 598.33 193.82 590.12 190.78 581.7 188.06 573.14 185.15 564.62 182.43 555.97 179.86 547.23 176.93 538.56 174.04 529.79 171.15 520.96 167.78 512.19 164.36 503.35 160.88 494.44 156.9 485.59 152.88 476.65 148.84 467.65 144.42 458.68 140.08 449.63 135.9 440.51 131.54 431.41 127.51 422.22 123.89 412.96 120.38 403.71 117.47 394.38 115.27 384.99 113.45 375.6 112.53 366.38 112.53 357.34 113.04 348.31 114.5 339.46 116.87 330.83 119.75 322.21 123.49 313.81 128 305.66 132.88 297.52 138.42 289.65 144.51 282.06 150.76 274.49 157.41 267.22 164.37 260.27 171.25 253.34 178.29 246.74 185.43 240.47 192.29 234.22 199.16 228.3 205.98 222.73 212.42 217.15 218.79 211.9 225.09 206.98 230.98 202.02 236.84 197.37 242.69 193.02 248.16 188.58 253.69 184.4 259.32 180.48 264.66 176.42 270.17 172.58 275.89 168.95 281.41 165.13 287.21 161.5 293.31 158.05 299.28 154.38 305.61 150.89 312.3 147.58 318.92 144.06 325.93 140.75 333.35 137.67 340.72 134.42 348.52 131.46 356.75 128.83 364.95 126.12 373.61 123.82 382.73 121.98" stroke-dasharray="8 4" transform="rotate(56.666666666666664, 400, 400)" opacity="0.15"></path><path d="M387.58 127.96C396.62 126.2 405.96 125.01 415.59 124.4 425.25 123.94 435.25 124.11 445.57 124.92 455.97 125.93 466.72 127.6 477.81 129.89 489 132.41 500.54 135.55 512.38 139.28 524.3 143.21 536.47 147.7 548.8 152.69 561.1 157.85 573.43 163.47 585.65 169.51 597.59 175.65 609.19 182.16 620.23 189 630.66 195.89 640.23 203.06 648.71 210.49 656.19 217.92 662.29 225.58 666.78 233.42 670.02 241.24 671.49 249.24 671.12 257.39 669.5 265.51 666.14 273.78 661.15 282.17 655.38 290.53 648.42 299.03 640.6 307.64 632.91 316.23 625.09 324.95 617.56 333.78 611.32 342.59 606.18 351.54 602.52 360.59 601.09 369.63 601.64 378.8 604.33 388.07 609.52 397.34 616.75 406.72 625.8 416.19 636.65 425.66 648.26 434.99 660.07 444.16 672.18 453.33 683.43 462.32 693.34 471.12 702.14 479.9 708.85 488.46 713.23 496.78 715.7 505.06 715.61 513.07 713.02 520.78 708.47 528.43 701.66 535.76 692.89 542.73 682.66 549.62 670.98 556.13 658.23 562.24 644.77 568.26 630.78 573.86 616.59 579.02 602.37 584.11 588.36 588.77 574.73 592.99 561.55 597.17 548.95 600.94 537.02 604.33 525.7 607.73 515.04 610.8 505.02 613.56 495.58 616.43 486.67 619.07 478.19 621.49 470.17 624.15 462.42 626.68 454.87 629.11 447.6 631.86 440.36 634.59 433.1 637.28 425.97 640.37 418.7 643.45 411.25 646.51 403.83 649.94 396.17 653.31 388.24 656.59 380.31 660.12 372.1 663.45 363.6 666.49 355.11 669.62 346.56 672.24 337.99 674.3 329.46 676.24 320.95 677.5 312.53 678.05 304.18 678.33 295.97 677.82 287.96 676.54 280.08 674.9 272.46 672.48 265.16 669.3 258.02 665.77 251.26 661.53 244.92 656.62 238.75 651.43 233.04 645.65 227.81 639.34 222.74 632.84 218.14 625.89 214.02 618.56 209.98 611.13 206.37 603.39 203.17 595.39 199.93 587.37 196.99 579.15 194.34 570.77 191.48 562.41 188.78 553.92 186.2 545.33 183.25 536.79 180.33 528.16 177.39 519.46 173.98 510.82 170.5 502.1 166.95 493.32 162.93 484.59 158.85 475.78 154.77 466.92 150.3 458.08 145.92 449.17 141.71 440.2 137.33 431.25 133.26 422.22 129.61 413.14 126.07 404.06 123.12 394.91 120.88 385.73 119.02 376.54 118.05 367.52 117.98 358.69 118.42 349.87 119.8 341.23 122.09 332.82 124.88 324.41 128.52 316.23 132.94 308.3 137.74 300.38 143.19 292.72 149.2 285.34 155.39 277.98 161.99 270.91 168.91 264.14 175.78 257.4 182.83 250.97 189.98 244.87 196.89 238.77 203.82 233 210.72 227.56 217.26 222.1 223.74 216.96 230.16 212.14 236.18 207.27 242.16 202.68 248.12 198.39 253.71 194 259.35 189.87 265.06 185.98 270.48 181.95 276.05 178.13 281.8 174.51 287.34 170.72 293.14 167.09 299.21 163.66 305.15 160.01 311.42 156.54 318.04 153.25 324.57 149.76 331.49 146.48 338.81 143.43 346.07 140.23 353.76 137.3 361.88 134.71 369.98 132.05 378.54 129.78 387.57 127.97" stroke-dasharray="2 3" transform="rotate(62.96296296296296, 400, 400)" opacity="0.95"></path><path d="M392.63 133.95C401.58 132.21 410.84 131.02 420.39 130.41 429.97 129.94 439.88 130.08 450.1 130.83 460.4 131.79 471.03 133.37 481.97 135.57 492.99 137.99 504.32 141.01 515.89 144.59 527.51 148.38 539.33 152.72 551.23 157.55 563.06 162.54 574.84 167.99 586.42 173.85 597.7 179.82 608.55 186.16 618.79 192.82 628.4 199.54 637.11 206.56 644.71 213.82 651.34 221.1 656.59 228.6 660.29 236.29 662.81 243.97 663.66 251.83 662.76 259.84 660.75 267.83 657.14 275.96 652.03 284.22 646.28 292.45 639.48 300.81 631.94 309.29 624.63 317.74 617.26 326.32 610.24 335 604.51 343.67 599.85 352.46 596.63 361.34 595.54 370.22 596.34 379.22 599.14 388.3 604.31 397.38 611.4 406.56 620.19 415.82 630.69 425.07 641.91 434.18 653.31 443.12 665.03 452.06 675.97 460.81 685.66 469.37 694.36 477.9 701.1 486.22 705.67 494.28 708.46 502.31 708.83 510.08 706.83 517.53 702.95 524.94 696.89 532.02 688.92 538.75 679.5 545.41 668.62 551.7 656.61 557.6 643.85 563.42 630.47 568.84 616.78 573.83 602.98 578.77 589.26 583.29 575.83 587.41 562.72 591.49 550.11 595.2 538.08 598.53 526.58 601.9 515.69 604.95 505.39 607.71 495.64 610.59 486.39 613.25 477.59 615.72 469.22 618.41 461.15 620.98 453.32 623.46 445.77 626.25 438.31 629 430.88 631.72 423.6 634.8 416.24 637.88 408.75 640.92 401.32 644.31 393.7 647.63 385.88 650.84 378.06 654.3 370.02 657.55 361.75 660.51 353.49 663.55 345.21 666.1 336.97 668.11 328.74 670.01 320.58 671.25 312.54 671.81 304.57 672.11 296.75 671.66 289.17 670.46 281.68 668.94 274.48 666.65 267.6 663.63 260.87 660.29 254.5 656.24 248.56 651.55 242.77 646.59 237.41 641.04 232.52 634.98 227.75 628.72 223.42 622.01 219.56 614.92 215.73 607.72 212.31 600.2 209.25 592.43 206.12 584.61 203.28 576.58 200.67 568.39 197.84 560.21 195.15 551.89 192.55 543.46 189.57 535.07 186.6 526.59 183.6 518.03 180.13 509.52 176.6 500.94 172.99 492.29 168.91 483.69 164.78 475.02 160.65 466.3 156.15 457.6 151.74 448.84 147.49 440.02 143.08 431.22 138.99 422.36 135.32 413.45 131.75 404.54 128.77 395.58 126.49 386.59 124.59 377.6 123.56 368.78 123.43 360.16 123.8 351.54 125.11 343.12 127.3 334.92 130 326.73 133.55 318.76 137.86 311.04 142.56 303.32 147.92 295.87 153.85 288.69 159.96 281.53 166.5 274.65 173.37 268.07 180.21 261.51 187.25 255.24 194.41 249.3 201.36 243.35 208.34 237.71 215.31 232.4 221.94 227.06 228.52 222.02 235.05 217.28 241.2 212.49 247.3 207.98 253.38 203.74 259.1 199.4 264.85 195.31 270.66 191.45 276.18 187.45 281.82 183.65 287.63 180.05 293.21 176.27 299.03 172.67 305.1 169.25 311.03 165.62 317.27 162.17 323.84 158.91 330.31 155.45 337.16 152.2 344.4 149.18 351.58 146.03 359.17 143.14 367.21 140.59 375.21 137.97 383.68 135.74 392.62 133.95" stroke-dasharray="7 6" transform="rotate(69.25925925925925, 400, 400)" opacity="0.74"></path><path d="M397.81 139.93C406.67 138.22 415.83 137.04 425.28 136.43 434.76 135.94 444.56 136.05 454.66 136.76 464.81 137.65 475.28 139.16 486.03 141.26 496.83 143.57 507.9 146.47 519.16 149.93 530.43 153.57 541.84 157.75 553.27 162.42 564.58 167.24 575.77 172.52 586.7 178.21 597.28 184 607.38 190.16 616.81 196.65 625.6 203.2 633.46 210.05 640.2 217.14 646.01 224.26 650.47 231.6 653.43 239.14 655.3 246.67 655.57 254.38 654.22 262.24 651.88 270.09 648.06 278.08 642.89 286.2 637.2 294.29 630.6 302.51 623.37 310.84 616.44 319.15 609.53 327.58 603.01 336.11 597.77 344.63 593.59 353.25 590.79 361.97 590.03 370.68 591.05 379.49 593.96 388.38 599.1 397.28 606.04 406.25 614.58 415.29 624.73 424.33 635.56 433.22 646.57 441.93 657.9 450.63 668.52 459.16 677.99 467.47 686.56 475.76 693.32 483.83 698.04 491.65 701.13 499.44 701.92 506.95 700.47 514.17 697.23 521.33 691.9 528.18 684.69 534.68 676.07 541.12 665.98 547.2 654.74 552.9 642.69 558.53 629.95 563.77 616.82 568.62 603.47 573.41 590.11 577.81 576.94 581.83 563.99 585.82 551.44 589.46 539.39 592.75 527.78 596.09 516.72 599.13 506.22 601.89 496.2 604.79 486.67 607.48 477.59 609.98 468.91 612.71 460.56 615.32 452.48 617.83 444.66 620.65 436.99 623.43 429.4 626.17 421.96 629.25 414.5 632.31 406.98 635.33 399.52 638.68 391.94 641.95 384.21 645.1 376.49 648.47 368.6 651.64 360.55 654.53 352.5 657.48 344.49 659.96 336.54 661.92 328.62 663.77 320.79 664.99 313.12 665.55 305.49 665.88 298.06 665.48 290.87 664.37 283.77 662.95 276.96 660.79 270.48 657.94 264.13 654.76 258.14 650.92 252.57 646.44 247.12 641.7 242.09 636.38 237.5 630.56 233.01 624.54 228.94 618.07 225.29 611.22 221.65 604.26 218.38 596.97 215.45 589.42 212.41 581.82 209.63 574 207.06 566 204.23 558 201.53 549.86 198.89 541.6 195.87 533.37 192.85 525.05 189.78 516.64 186.26 508.28 182.65 499.84 178.98 491.34 174.85 482.88 170.67 474.35 166.48 465.77 161.95 457.22 157.51 448.61 153.23 439.95 148.81 431.31 144.7 422.62 141 413.88 137.42 405.15 134.42 396.38 132.1 387.59 130.16 378.79 129.08 370.17 128.89 361.76 129.19 353.34 130.41 345.13 132.51 337.14 135.12 329.15 138.56 321.39 142.76 313.87 147.36 306.36 152.62 299.11 158.44 292.13 164.47 285.15 170.94 278.46 177.74 272.06 184.55 265.66 191.57 259.56 198.72 253.76 205.7 247.96 212.72 242.45 219.74 237.25 226.46 232.02 233.14 227.08 239.77 222.42 246.04 217.71 252.27 213.26 258.46 209.07 264.32 204.79 270.19 200.73 276.11 196.9 281.73 192.92 287.46 189.15 293.34 185.57 298.99 181.81 304.85 178.22 310.94 174.82 316.88 171.22 323.11 167.79 329.65 164.55 336.09 161.13 342.89 157.91 350.06 154.94 357.17 151.82 364.7 148.98 372.65 146.46 380.57 143.89 388.94 141.69 397.8 139.93" stroke-dasharray="13 1" transform="rotate(75.55555555555556, 400, 400)" opacity="0.93"></path><path d="M403.02 145.92C411.79 144.23 420.84 143.07 430.17 142.44 439.54 141.95 449.2 142.03 459.14 142.69 469.12 143.53 479.39 144.96 489.9 146.97 500.45 149.17 511.21 151.95 522.11 155.27 532.99 158.78 543.95 162.8 554.86 167.31 565.61 171.97 576.19 177.07 586.43 182.58 596.3 188.2 605.64 194.18 614.27 200.49 622.25 206.86 629.29 213.53 635.21 220.45 640.24 227.4 643.96 234.58 646.23 241.95 647.5 249.32 647.27 256.88 645.52 264.59 642.9 272.28 638.93 280.13 633.75 288.09 628.17 296.04 621.78 304.11 614.88 312.29 608.35 320.46 601.9 328.73 595.89 337.1 591.13 345.46 587.4 353.92 585 362.46 584.55 371 585.78 379.63 588.78 388.33 593.89 397.03 600.68 405.8 608.97 414.62 618.78 423.45 629.22 432.11 639.84 440.6 650.8 449.07 661.09 457.36 670.33 465.43 678.77 473.49 685.52 481.32 690.37 488.9 693.71 496.44 694.9 503.72 693.95 510.7 691.33 517.63 686.69 524.26 680.22 530.54 672.38 536.77 663.08 542.65 652.6 548.15 641.27 553.61 629.2 558.69 616.65 563.39 603.82 568.05 590.88 572.34 578.02 576.26 565.3 580.18 552.88 583.76 540.87 587.01 529.24 590.32 518.08 593.36 507.44 596.13 497.22 599.04 487.47 601.75 478.16 604.29 469.22 607.05 460.62 609.69 452.31 612.24 444.26 615.09 436.4 617.88 428.66 620.64 421.07 623.71 413.51 626.76 405.95 629.75 398.46 633.05 390.9 636.27 383.25 639.35 375.62 642.65 367.87 645.74 360.02 648.54 352.17 651.42 344.4 653.82 336.74 655.73 329.1 657.53 321.59 658.73 314.26 659.3 306.97 659.65 299.89 659.3 293.08 658.27 286.34 656.95 279.9 654.92 273.8 652.21 267.79 649.21 262.16 645.55 256.93 641.29 251.79 636.76 247.06 631.68 242.75 626.09 238.5 620.31 234.65 614.09 231.19 607.48 227.71 600.75 224.57 593.7 221.74 586.37 218.77 578.99 216.02 571.38 213.46 563.59 210.63 555.79 207.9 547.83 205.22 539.75 202.15 531.7 199.06 523.54 195.92 515.3 192.33 507.09 188.66 498.8 184.92 490.46 180.73 482.14 176.5 473.77 172.27 465.34 167.72 456.94 163.25 448.49 158.95 440 154.52 431.52 150.39 422.99 146.68 414.43 143.08 405.88 140.06 397.3 137.72 388.69 135.73 380.09 134.61 371.68 134.35 363.46 134.59 355.25 135.72 347.24 137.73 339.45 140.24 331.66 143.57 324.1 147.65 316.79 152.14 309.48 157.28 302.41 163 295.62 168.93 288.83 175.31 282.31 182.04 276.08 188.79 269.85 195.78 263.9 202.91 258.24 209.9 252.57 216.95 247.19 224.01 242.1 230.8 236.97 237.57 232.12 244.29 227.55 250.68 222.91 257.03 218.52 263.34 214.38 269.33 210.14 275.32 206.12 281.35 202.32 287.09 198.37 292.93 194.62 298.88 191.06 304.61 187.32 310.53 183.76 316.66 180.37 322.63 176.8 328.87 173.39 335.4 170.18 341.83 166.8 348.59 163.62 355.72 160.68 362.78 157.61 370.24 154.82 378.12 152.34 385.96 149.81 394.25 147.65 403.01 145.92" stroke-dasharray="5 7" transform="rotate(81.85185185185185, 400, 400)" opacity="0.99"></path><path d="M408.19 151.9C416.85 150.24 425.78 149.09 434.98 148.46 444.2 147.95 453.71 148.01 463.45 148.62 473.24 149.41 483.27 150.76 493.5 152.68 503.75 154.79 514.16 157.45 524.67 160.63 535.12 164 545.58 167.87 555.95 172.22 566.12 176.71 576.05 181.64 585.6 186.97 594.75 192.41 603.33 198.21 611.16 204.33 618.36 210.53 624.61 217.02 629.75 223.76 634.04 230.53 637.07 237.54 638.72 244.74 639.44 251.95 638.77 259.34 636.69 266.89 633.85 274.43 629.78 282.12 624.64 289.92 619.19 297.72 613.05 305.64 606.5 313.66 600.37 321.67 594.38 329.78 588.86 337.99 584.56 346.18 581.28 354.47 579.26 362.84 579.1 371.2 580.53 379.64 583.62 388.14 588.68 396.65 595.32 405.21 603.36 413.82 612.84 422.43 622.9 430.87 633.13 439.13 643.71 447.38 653.68 455.43 662.68 463.27 670.97 471.09 677.7 478.69 682.65 486.03 686.22 493.34 687.76 500.39 687.29 507.14 685.24 513.85 681.26 520.25 675.51 526.33 668.43 532.35 659.9 538.04 650.17 543.37 639.59 548.66 628.2 553.59 616.27 558.15 603.99 562.69 591.51 566.88 579.02 570.72 566.59 574.56 554.37 578.09 542.49 581.31 530.89 584.6 519.71 587.62 508.99 590.41 498.64 593.33 488.73 596.06 479.24 598.63 470.09 601.42 461.28 604.1 452.79 606.68 444.53 609.55 436.49 612.36 428.62 615.12 420.9 618.19 413.25 621.21 405.65 624.18 398.12 627.43 390.58 630.59 383.01 633.6 375.45 636.82 367.84 639.83 360.17 642.56 352.5 645.35 344.96 647.69 337.57 649.54 330.19 651.3 322.97 652.47 315.97 653.05 308.99 653.41 302.25 653.11 295.79 652.16 289.39 650.93 283.29 649.02 277.54 646.46 271.86 643.63 266.54 640.15 261.62 636.09 256.77 631.78 252.3 626.92 248.24 621.56 244.21 616.02 240.55 610.04 237.25 603.68 233.9 597.19 230.86 590.38 228.1 583.28 225.17 576.13 222.45 568.73 219.88 561.15 217.03 553.56 214.25 545.79 211.52 537.91 208.39 530.03 205.22 522.05 202.01 513.98 198.35 505.93 194.61 497.81 190.8 489.63 186.57 481.47 182.29 473.25 178.02 464.99 173.44 456.75 168.95 448.46 164.63 440.13 160.19 431.82 156.06 423.46 152.34 415.09 148.74 406.71 145.7 398.32 143.33 389.91 141.31 381.5 140.14 373.28 139.82 365.27 139.99 357.25 141.04 349.44 142.95 341.85 145.35 334.26 148.56 326.9 152.53 319.78 156.9 312.66 161.92 305.78 167.51 299.17 173.34 292.56 179.62 286.21 186.26 280.14 192.95 274.06 199.88 268.25 206.98 262.73 213.96 257.19 221.03 251.93 228.12 246.94 234.97 241.92 241.81 237.15 248.61 232.65 255.11 228.08 261.57 223.75 268 219.66 274.11 215.46 280.23 211.48 286.37 207.71 292.24 203.79 298.18 200.06 304.22 196.52 310.04 192.81 316.03 189.27 322.21 185.9 328.23 182.36 334.49 178.99 341.03 175.8 347.46 172.46 354.21 169.32 361.3 166.42 368.32 163.4 375.73 160.65 383.53 158.21 391.31 155.72 399.52 153.6 408.18 151.9" stroke-dasharray="3 13" transform="rotate(88.14814814814814, 400, 400)" opacity="0.28"></path><path d="M413.21 157.88C421.76 156.25 430.57 155.11 439.61 154.48 448.67 153.97 457.98 154 467.51 154.57 477.07 155.29 486.83 156.58 496.75 158.41 506.66 160.41 516.69 162.96 526.76 166.01 536.75 169.24 546.69 172.97 556.48 177.15 566.05 181.47 575.32 186.23 584.16 191.38 592.6 196.64 600.43 202.26 607.49 208.2 613.93 214.21 619.42 220.51 623.82 227.07 627.43 233.67 629.81 240.5 630.9 247.52 631.14 254.56 630.08 261.78 627.73 269.16 624.73 276.54 620.62 284.06 615.54 291.7 610.26 299.34 604.4 307.09 598.21 314.95 592.5 322.8 586.97 330.75 581.92 338.78 578.08 346.8 575.22 354.92 573.58 363.1 573.69 371.28 575.29 379.53 578.46 387.84 583.48 396.14 589.96 404.5 597.75 412.89 606.9 421.28 616.59 429.5 626.44 437.52 636.64 445.55 646.29 453.38 655.04 460.98 663.17 468.58 669.85 475.94 674.88 483.05 678.65 490.14 680.52 496.95 680.48 503.48 678.97 509.98 675.61 516.18 670.55 522.05 664.21 527.88 656.43 533.39 647.45 538.56 637.61 543.68 626.93 548.47 615.64 552.91 603.95 557.34 591.97 561.43 579.91 565.19 567.83 568.97 555.87 572.46 544.17 575.65 532.69 578.91 521.55 581.93 510.82 584.73 500.4 587.66 490.39 590.42 480.78 593.02 471.47 595.83 462.5 598.54 453.85 601.15 445.43 604.03 437.24 606.85 429.26 609.61 421.41 612.67 413.69 615.67 406.06 618.61 398.5 621.81 390.97 624.9 383.47 627.86 375.99 631 368.49 633.93 361 636.58 353.5 639.29 346.17 641.55 339.03 643.35 331.89 645.06 324.95 646.22 318.25 646.79 311.56 647.17 305.14 646.92 299 646.03 292.91 644.89 287.13 643.1 281.69 640.69 276.31 638 271.29 634.71 266.64 630.84 262.04 626.74 257.81 622.1 253.97 616.98 250.12 611.68 246.61 605.94 243.45 599.82 240.21 593.57 237.24 586.99 234.52 580.14 231.62 573.21 228.9 566.04 226.31 558.68 223.42 551.29 220.59 543.73 217.78 536.05 214.58 528.36 211.34 520.56 208.05 512.67 204.32 504.8 200.51 496.85 196.63 488.83 192.35 480.84 188.03 472.79 183.72 464.7 179.12 456.62 174.61 448.5 170.28 440.34 165.84 432.2 161.71 424.02 157.98 415.83 154.38 407.64 151.33 399.43 148.94 391.22 146.9 383 145.68 374.98 145.3 367.16 145.4 359.35 146.36 351.73 148.17 344.34 150.46 336.94 153.56 329.77 157.39 322.84 161.63 315.9 166.52 309.21 171.98 302.77 177.7 296.33 183.86 290.14 190.4 284.22 197.01 278.3 203.88 272.63 210.94 267.24 217.9 261.82 224.96 256.67 232.07 251.78 238.96 246.85 245.86 242.17 252.73 237.74 259.32 233.23 265.89 228.96 272.42 224.91 278.66 220.76 284.9 216.81 291.15 213.07 297.14 209.19 303.19 205.48 309.33 201.96 315.25 198.28 321.31 194.76 327.55 191.41 333.63 187.9 339.93 184.56 346.48 181.41 352.93 178.11 359.67 175.02 366.73 172.15 373.73 169.18 381.09 166.48 388.82 164.08 396.53 161.64 404.65 159.56 413.2 157.88" stroke-dasharray="6 9" transform="rotate(94.44444444444444, 400, 400)" opacity="0.80"></path><path d="M418.01 163.87C426.44 162.26 435.1 161.14 443.97 160.51 452.85 159.98 461.95 159.99 471.23 160.51 480.53 161.19 489.99 162.41 499.56 164.14 509.12 166.05 518.73 168.48 528.33 171.41 537.84 174.5 547.24 178.08 556.42 182.1 565.38 186.26 573.99 190.84 582.13 195.81 589.86 200.89 596.95 206.32 603.26 212.07 608.98 217.9 613.75 224.02 617.46 230.39 620.43 236.8 622.24 243.44 622.81 250.29 622.64 257.15 621.26 264.19 618.69 271.4 615.57 278.6 611.46 285.95 606.5 293.42 601.42 300.89 595.86 308.48 590.04 316.16 584.74 323.84 579.67 331.62 575.09 339.47 571.69 347.32 569.24 355.26 567.94 363.25 568.31 371.25 570.08 379.31 573.3 387.41 578.27 395.51 584.6 403.66 592.14 411.83 600.96 420 610.29 428 619.77 435.81 629.6 443.61 638.92 451.21 647.42 458.59 655.38 465.96 661.99 473.09 667.08 479.98 671.01 486.84 673.17 493.44 673.53 499.76 672.53 506.05 669.75 512.05 665.35 517.73 659.71 523.38 652.67 528.72 644.44 533.72 635.34 538.7 625.36 543.36 614.73 547.69 603.65 552 592.23 556.01 580.63 559.7 568.95 563.42 557.32 566.86 545.87 570.03 534.56 573.28 523.54 576.29 512.86 579.1 502.44 582.04 492.39 584.82 482.71 587.45 473.3 590.28 464.21 593.01 455.46 595.65 446.9 598.54 438.6 601.36 430.53 604.13 422.59 607.16 414.8 610.14 407.15 613.04 399.57 616.19 392.06 619.22 384.62 622.11 377.2 625.17 369.82 628.02 362.48 630.59 355.14 633.22 348.01 635.42 341.1 637.16 334.19 638.83 327.51 639.96 321.08 640.53 314.67 640.93 308.53 640.71 302.68 639.9 294.13 638 278.73 630.79 271.96 625.56 267.58 621.66 263.55 617.24 259.88 612.35 256.19 607.27 252.82 601.77 249.76 595.89 246.59 589.89 243.68 583.55 240.98 576.93 238.09 570.24 235.34 563.3 232.71 556.16 229.78 548.99 226.88 541.65 223.99 534.17 220.72 526.68 217.4 519.07 214.02 511.37 210.22 503.69 206.34 495.91 202.4 488.08 198.07 480.26 193.71 472.38 189.37 464.46 184.75 456.56 180.24 448.6 175.9 440.63 171.47 432.66 167.34 424.66 163.61 416.65 160.01 408.65 156.96 400.63 154.55 392.61 152.48 384.59 151.23 376.76 150.79 369.14 150.82 361.51 151.69 354.09 153.39 346.89 155.58 339.68 158.55 332.7 162.25 325.95 166.35 319.19 171.11 312.67 176.43 306.4 182.01 300.13 188.05 294.1 194.48 288.33 201 282.54 207.79 277.01 214.77 271.74 221.7 266.44 228.74 261.39 235.85 256.6 242.77 251.76 249.71 247.16 256.63 242.79 263.31 238.35 269.96 234.13 276.59 230.13 282.94 226.03 289.29 222.11 295.65 218.4 301.76 214.55 307.92 210.87 314.15 207.37 320.18 203.72 326.33 200.23 332.63 196.91 338.77 193.43 345.12 190.13 351.69 187.01 358.16 183.76 364.9 180.7 371.94 177.88 378.92 174.96 386.23 172.3 393.9 169.95 401.54 167.56 409.57 165.51 418 163.87" stroke-dasharray="6 8" transform="rotate(100.74074074074073, 400, 400)" opacity="0.24"></path><path d="M422.5 169.85C430.8 168.27 439.3 167.16 447.97 166.53 456.66 166 465.53 165.98 474.54 166.47 483.55 167.09 492.68 168.24 501.88 169.89 511.05 171.71 520.22 174.03 529.34 176.83 538.33 179.78 547.17 183.21 555.75 187.07 564.09 191.07 572.04 195.48 579.48 200.27 586.52 205.16 592.9 210.41 598.49 215.97 603.51 221.61 607.61 227.53 610.68 233.71 613.08 239.94 614.36 246.39 614.49 253.05 613.96 259.73 612.31 266.59 609.58 273.61 606.4 280.63 602.33 287.81 597.52 295.1 592.67 302.39 587.42 309.81 581.99 317.31 577.1 324.82 572.48 332.41 568.36 340.09 565.38 347.76 563.32 355.51 562.35 363.31 562.96 371.11 564.87 378.98 568.15 386.88 573.06 394.78 579.23 402.72 586.53 410.67 595.03 418.62 604 426.4 613.11 433.98 622.57 441.56 631.57 448.94 639.82 456.09 647.59 463.24 654.12 470.16 659.24 476.82 663.31 483.47 665.73 489.86 666.45 495.98 665.91 502.07 663.69 507.87 659.91 513.37 654.96 518.85 648.63 524.02 641.12 528.88 632.75 533.72 623.49 538.26 613.53 542.47 603.09 546.69 592.24 550.62 581.15 554.25 569.92 557.91 558.67 561.32 547.52 564.46 536.45 567.69 525.6 570.71 515.05 573.52 504.69 576.47 494.66 579.27 484.97 581.92 475.51 584.77 466.36 587.52 457.54 590.17 448.9 593.07 440.52 595.9 432.38 598.65 424.37 601.67 416.54 604.62 408.88 607.48 401.28 610.57 393.8 613.54 386.43 616.36 379.07 619.35 371.8 622.11 364.61 624.61 357.42 627.16 350.47 629.29 343.77 630.98 337.06 632.6 330.62 633.7 324.44 634.27 315.33 634.59 298.65 631.99 291.14 629.06 283.99 625.2 271.42 614.43 265.98 607.65 262.41 602.81 259.14 597.55 256.15 591.91 253.04 586.15 250.15 580.05 247.46 573.67 244.55 567.22 241.77 560.51 239.08 553.6 236.09 546.66 233.12 539.53 230.15 532.26 226.79 524.98 223.39 517.57 219.92 510.07 216.05 502.57 212.11 494.99 208.1 487.34 203.73 479.7 199.34 472 194.97 464.26 190.34 456.53 185.82 448.76 181.48 440.97 177.06 433.18 172.95 425.37 169.23 417.54 165.64 409.72 162.59 401.89 160.16 394.07 158.07 386.24 156.78 378.61 156.28 371.18 156.24 363.74 157.03 356.51 158.63 349.5 160.7 342.48 163.54 335.67 167.1 329.1 171.06 322.52 175.67 316.17 180.84 310.06 186.29 303.95 192.19 298.07 198.49 292.44 204.9 286.79 211.59 281.39 218.5 276.23 225.37 271.05 232.38 266.1 239.46 261.4 246.4 256.64 253.36 252.11 260.32 247.81 267.06 243.44 273.79 239.27 280.49 235.31 286.95 231.25 293.4 227.38 299.86 223.69 306.08 219.88 312.34 216.23 318.67 212.75 324.79 209.13 331.03 205.67 337.39 202.38 343.61 198.95 350 195.68 356.61 192.6 363.1 189.39 369.85 186.38 376.87 183.6 383.83 180.73 391.09 178.12 398.69 175.81 406.26 173.47 414.19 171.47 422.49 169.85" stroke-dasharray="4 1" transform="rotate(107.03703703703704, 400, 400)" opacity="0.87"></path><path d="M426.61 175.83C434.77 174.28 443.09 173.19 451.55 172.56 460.03 172.03 468.64 171.98 477.35 172.43 486.06 173 494.84 174.09 503.64 175.65 512.4 177.38 521.11 179.59 529.72 182.26 538.19 185.09 546.46 188.37 554.43 192.07 562.15 195.9 569.45 200.14 576.21 204.75 582.58 209.47 588.27 214.53 593.18 219.89 597.56 225.34 601.03 231.07 603.51 237.05 605.39 243.09 606.21 249.35 605.95 255.81 605.12 262.3 603.26 268.98 600.43 275.81 597.23 282.65 593.24 289.64 588.61 296.75 584.01 303.86 579.08 311.09 574.05 318.41 569.58 325.73 565.4 333.15 561.72 340.63 559.16 348.12 557.46 355.68 556.8 363.28 557.63 370.89 559.69 378.56 563 386.25 567.85 393.94 573.86 401.67 580.92 409.4 589.11 417.14 597.72 424.69 606.47 432.05 615.57 439.41 624.25 446.57 632.23 453.51 639.81 460.43 646.24 467.13 651.37 473.59 655.55 480.03 658.19 486.22 659.24 492.14 659.13 498.03 657.43 503.65 654.23 508.98 649.93 514.29 644.29 519.32 637.49 524.04 629.85 528.74 621.29 533.16 612.01 537.28 602.23 541.41 591.98 545.26 581.44 548.83 570.7 552.45 559.86 555.81 549.07 558.94 538.3 562.15 527.68 565.17 517.3 567.99 507.07 570.95 497.12 573.76 487.48 576.43 478.03 579.29 468.87 582.06 460.03 584.72 451.34 587.62 442.92 590.45 434.75 593.19 426.7 596.18 418.85 599.1 411.19 601.92 403.6 604.95 396.15 607.86 388.84 610.62 381.56 613.52 374.39 616.21 367.33 618.62 360.28 621.09 353.5 623.16 347 624.79 340.48 626.37 334.25 627.45 328.31 628.01 319.54 628.36 303.56 625.96 296.38 623.2 289.54 619.56 277.48 609.35 272.22 602.9 268.75 598.28 265.56 593.25 262.62 587.85 259.53 582.33 256.65 576.48 253.94 570.34 251 564.13 248.17 557.66 245.42 550.98 242.35 544.26 239.3 537.36 236.23 530.3 232.8 523.24 229.31 516.04 225.76 508.74 221.81 501.44 217.8 494.05 213.74 486.6 209.33 479.15 204.91 471.64 200.51 464.09 195.88 456.54 191.37 448.96 187.04 441.35 182.64 433.75 178.54 426.12 174.83 418.48 171.26 410.85 168.21 403.21 165.77 395.58 163.67 387.95 162.33 380.51 161.78 373.27 161.68 366.03 162.38 358.98 163.87 352.15 165.82 345.32 168.53 338.69 171.95 332.29 175.77 325.88 180.22 319.7 185.23 313.74 190.52 307.78 196.29 302.05 202.44 296.55 208.73 291.04 215.31 285.76 222.12 280.71 228.92 275.64 235.88 270.79 242.92 266.17 249.84 261.5 256.81 257.04 263.79 252.81 270.58 248.5 277.37 244.38 284.13 240.46 290.68 236.45 297.22 232.61 303.76 228.95 310.09 225.17 316.45 221.56 322.85 218.11 329.08 214.52 335.39 211.1 341.82 207.84 348.1 204.44 354.55 201.21 361.17 198.17 367.7 195.01 374.45 192.05 381.45 189.32 388.39 186.5 395.61 183.94 403.12 181.68 410.62 179.38 418.44 177.42 426.6 175.84" stroke-dasharray="10 9" transform="rotate(113.33333333333333, 400, 400)" opacity="0.15"></path><path d="M430.27 181.82C438.27 180.3 446.4 179.22 454.64 178.59 462.88 178.05 471.22 177.99 479.61 178.39 487.99 178.92 496.41 179.94 504.79 181.43 513.12 183.06 521.37 185.16 529.45 187.71 537.4 190.41 545.1 193.54 552.46 197.09 559.57 200.77 566.23 204.83 572.33 209.26 578.05 213.79 583.1 218.66 587.37 223.84 591.14 229.09 594.05 234.63 596 240.41 597.4 246.25 597.82 252.32 597.24 258.58 596.16 264.88 594.15 271.36 591.26 278 588.08 284.65 584.21 291.45 579.79 298.36 575.46 305.29 570.88 312.33 566.24 319.46 562.18 326.6 558.43 333.82 555.19 341.11 553.02 348.41 551.67 355.77 551.31 363.18 552.34 370.59 554.52 378.05 557.86 385.54 562.64 393.02 568.49 400.54 575.31 408.05 583.19 415.57 591.46 422.9 599.85 430.05 608.59 437.18 616.94 444.12 624.66 450.85 632.04 457.56 638.36 464.05 643.48 470.3 649.15 479.54 651.59 496.69 648.33 504.59 644.65 509.74 639.67 514.61 633.55 519.2 626.62 523.79 618.76 528.1 610.16 532.12 601.05 536.17 591.42 539.95 581.44 543.47 571.23 547.03 560.86 550.37 550.46 553.48 540.04 556.67 529.72 559.68 519.57 562.51 509.53 565.47 499.71 568.3 490.18 570.99 480.79 573.86 471.67 576.63 462.85 579.31 454.17 582.2 445.74 585.01 437.58 587.75 429.52 590.71 421.67 593.58 414.04 596.36 406.46 599.33 399.06 602.18 391.82 604.87 384.61 607.69 377.54 610.3 370.61 612.64 363.69 615.03 357.07 617.03 350.74 618.61 341.39 620.67 324.17 622.12 316.33 621.43 308.8 619.92 295.33 613.9 289.38 609.45 283.69 604.23 273.6 591.3 269.11 583.74 266.04 578.45 263.14 572.84 260.39 566.95 257.41 560.97 254.51 554.74 251.68 548.3 248.54 541.81 245.39 535.14 242.24 528.31 238.72 521.46 235.14 514.48 231.5 507.39 227.5 500.3 223.42 493.11 219.31 485.85 214.87 478.6 210.42 471.28 206.01 463.92 201.38 456.57 196.88 449.17 192.56 441.76 188.18 434.34 184.11 426.9 180.42 419.46 176.86 412.02 173.82 404.58 171.38 397.14 169.26 389.71 167.9 382.46 167.29 375.4 167.12 368.35 167.74 361.49 169.12 354.84 170.95 348.18 173.53 341.73 176.8 335.49 180.46 329.25 184.75 323.23 189.6 317.42 194.73 311.61 200.34 306.02 206.34 300.65 212.49 295.27 218.95 290.1 225.64 285.17 232.36 280.2 239.23 275.44 246.22 270.9 253.11 266.32 260.07 261.93 267.04 257.76 273.86 253.51 280.68 249.44 287.49 245.57 294.11 241.6 300.72 237.8 307.33 234.18 313.75 230.44 320.19 226.85 326.67 223.44 332.98 219.89 339.37 216.5 345.85 213.27 352.21 209.92 358.69 206.73 365.34 203.74 371.89 200.62 378.65 197.71 385.62 195.03 392.53 192.27 399.7 189.76 407.13 187.54 414.55 185.29 422.25 183.37 430.26 181.82" stroke-dasharray="10 6" transform="rotate(119.62962962962963, 400, 400)" opacity="0.46"></path><path d="M433.41 187.8C441.25 186.31 449.17 185.25 457.16 184.63 465.16 184.08 473.2 184 481.26 184.37 489.31 184.85 497.34 185.8 505.29 187.21 513.19 188.75 520.95 190.75 528.51 193.18 535.93 195.75 543.06 198.75 549.82 202.14 556.34 205.65 562.38 209.55 567.85 213.8 572.96 218.15 577.4 222.84 581.07 227.82 585.48 235.55 589.19 252.37 588.37 261.37 587.11 267.47 584.99 273.75 582.08 280.19 578.97 286.64 575.26 293.25 571.07 299.97 567.03 306.7 562.8 313.54 558.56 320.48 554.91 327.42 551.58 334.45 548.75 341.55 546.96 348.64 545.95 355.81 545.85 363.01 547.08 370.22 549.36 377.48 552.73 384.75 557.42 392.03 563.12 399.33 569.7 406.62 577.27 413.92 585.2 421.04 593.24 427.96 601.63 434.88 609.66 441.61 617.11 448.12 624.27 454.63 630.47 460.91 635.55 466.96 641.37 475.9 644.73 492.53 642.21 500.18 639.1 505.18 634.76 509.92 629.3 514.39 623.05 518.85 615.89 523.06 607.97 527 599.52 530.96 590.52 534.68 581.14 538.15 571.48 541.67 561.61 544.97 551.66 548.06 541.63 551.25 531.65 554.25 521.78 557.08 511.98 560.05 502.36 562.88 492.98 565.58 483.71 568.46 474.68 571.24 465.93 573.92 457.3 576.8 448.91 579.6 440.78 582.32 432.74 585.24 424.93 588.08 417.34 590.81 409.8 593.72 402.45 596.5 395.29 599.12 388.16 601.86 381.19 604.39 374.39 606.66 367.6 608.97 361.12 610.9 354.96 612.43 345.85 614.42 329.17 615.88 321.61 615.25 314.34 613.85 301.33 608.2 295.57 604 290.02 599.05 280.1 586.76 275.62 579.54 272.53 574.5 269.6 569.13 266.8 563.47 263.76 557.74 260.79 551.75 257.87 545.55 254.64 539.29 251.41 532.85 248.15 526.25 244.55 519.63 240.88 512.87 237.17 505.99 233.1 499.11 228.97 492.13 224.81 485.08 220.34 478.03 215.87 470.92 211.45 463.75 206.84 456.6 202.35 449.4 198.04 442.17 193.7 434.95 189.65 427.71 185.99 420.46 182.46 413.22 179.43 405.96 176.99 398.72 174.86 391.48 173.47 384.43 172.81 377.56 172.58 370.69 173.11 364.02 174.38 357.54 176.1 351.06 178.54 344.78 181.65 338.71 185.16 332.63 189.28 326.76 193.95 321.11 198.92 315.44 204.35 309.98 210.19 304.74 216.19 299.48 222.51 294.43 229.07 289.6 235.68 284.73 242.46 280.06 249.37 275.61 256.21 271.1 263.13 266.78 270.09 262.67 276.91 258.48 283.75 254.47 290.58 250.64 297.25 246.71 303.91 242.96 310.58 239.37 317.07 235.67 323.58 232.12 330.12 228.74 336.51 225.23 342.96 221.88 349.48 218.69 355.89 215.38 362.42 212.24 369.07 209.29 375.65 206.23 382.4 203.37 389.33 200.73 396.22 198.03 403.32 195.57 410.66 193.4 417.98 191.2 425.56 189.32 433.4 187.8" stroke-dasharray="1 4" transform="rotate(125.92592592592592, 400, 400)" opacity="0.66"></path><path d="M435.99 193.78C443.65 192.33 451.35 191.28 459.08 190.66 466.81 190.11 474.55 190.01 482.27 190.34 489.96 190.79 497.6 191.68 505.12 193.01 512.57 194.47 519.85 196.36 526.89 198.68 533.78 201.12 540.36 203.97 546.54 207.21 552.48 210.57 557.93 214.3 562.8 218.37 569.27 224.79 578.01 239.26 580.04 247.21 580.67 252.65 580.46 258.31 579.4 264.17 578 270.07 575.82 276.15 572.95 282.38 569.94 288.64 566.4 295.04 562.47 301.56 558.73 308.09 554.86 314.74 551.01 321.47 547.76 328.21 544.85 335.04 542.42 341.94 540.98 348.83 540.28 355.79 540.45 362.8 541.84 369.8 544.22 376.84 547.6 383.91 552.21 390.97 557.74 398.05 564.09 405.13 571.36 412.21 578.96 419.11 586.66 425.82 594.69 432.53 602.41 439.05 609.59 445.35 616.53 451.65 622.59 457.74 627.62 463.6 633.54 472.25 637.71 488.36 635.87 495.78 633.31 500.64 629.56 505.25 624.74 509.6 619.16 513.96 612.67 518.07 605.42 521.92 597.63 525.81 589.28 529.46 580.49 532.89 571.41 536.37 562.07 539.64 552.59 542.72 543.01 545.88 533.41 548.88 523.87 551.71 514.36 554.68 504.99 557.51 495.81 560.22 486.71 563.1 477.83 565.87 469.19 568.55 460.65 571.42 452.34 574.2 444.28 576.9 436.3 579.78 428.55 582.58 421.02 585.26 413.55 588.11 406.27 590.82 399.2 593.37 392.15 596.03 385.28 598.48 378.61 600.67 371.94 602.91 365.59 604.77 359.58 606.25 350.7 608.18 334.5 609.63 327.17 609.07 320.12 607.78 307.49 602.47 301.88 598.5 296.43 593.83 286.59 582.16 282.09 575.29 278.98 570.47 276 565.34 273.13 559.93 270.03 554.43 266.97 548.69 263.96 542.72 260.64 536.71 257.32 530.5 253.96 524.13 250.27 517.74 246.53 511.2 242.74 504.55 238.61 497.89 234.43 491.13 230.23 484.29 225.74 477.44 221.26 470.53 216.84 463.57 212.24 456.62 207.78 449.62 203.5 442.59 199.19 435.57 195.18 428.52 191.55 421.47 188.05 414.42 185.04 407.36 182.6 400.32 180.47 393.28 179.05 386.41 178.34 379.73 178.04 373.05 178.49 366.55 179.65 360.25 181.25 353.94 183.55 347.83 186.51 341.92 189.85 336 193.8 330.28 198.29 324.77 203.08 319.24 208.34 313.91 213.99 308.79 219.83 303.65 225.99 298.71 232.41 293.98 238.89 289.21 245.56 284.64 252.37 280.26 259.14 275.83 266 271.58 272.91 267.53 279.72 263.4 286.55 259.44 293.38 255.66 300.08 251.78 306.78 248.07 313.47 244.52 320.02 240.86 326.58 237.35 333.16 234 339.61 230.54 346.11 227.23 352.67 224.08 359.12 220.82 365.67 217.73 372.33 214.82 378.92 211.82 385.65 209.01 392.54 206.43 399.39 203.78 406.42 201.38 413.66 199.26 420.88 197.11 428.32 195.27 435.98 193.79" stroke-dasharray="4 6" transform="rotate(132.22222222222223, 400, 400)" opacity="0.58"></path><path d="M437.95 199.77C445.42 198.34 452.89 197.32 460.35 196.7 467.81 196.15 475.24 196.03 482.6 196.33 489.93 196.73 497.16 197.56 504.24 198.82 511.25 200.19 518.05 201.99 524.57 204.19 530.96 206.51 536.99 209.22 542.61 212.31 550.45 217.3 562.88 229.12 567.19 235.87 570.21 243.01 571.79 258.62 570.34 267 568.85 272.69 566.67 278.56 563.86 284.59 560.98 290.64 557.65 296.83 554 303.15 550.57 309.48 547.06 315.92 543.6 322.45 540.75 328.99 538.23 335.61 536.18 342.3 535.08 348.99 534.68 355.74 535.08 362.54 536.63 369.33 539.09 376.17 542.47 383.02 547 389.87 552.37 396.73 558.48 403.59 565.46 410.45 572.73 417.14 580.09 423.64 587.78 430.14 595.18 436.44 602.09 442.55 608.8 448.65 614.71 454.54 619.67 460.21 625.65 468.59 630.54 484.2 629.32 491.41 627.27 496.13 624.09 500.61 619.87 504.85 614.93 509.1 609.09 513.12 602.5 516.9 595.37 520.71 587.66 524.31 579.49 527.69 571 531.13 562.21 534.37 553.24 537.43 544.12 540.58 534.94 543.57 525.78 546.4 516.61 549.36 507.52 552.19 498.59 554.91 489.72 557.77 481.02 560.55 472.54 563.22 464.14 566.06 455.95 568.83 448 571.49 440.11 574.34 432.44 577.08 425.01 579.71 417.61 582.5 410.43 585.14 403.45 587.62 396.5 590.2 389.74 592.57 383.19 594.69 376.63 596.85 370.42 598.65 364.54 600.07 355.87 601.95 340.09 603.38 332.97 602.88 326.1 601.69 313.77 596.72 308.26 592.97 302.87 588.56 293.06 577.5 288.52 570.96 285.36 566.38 282.32 561.48 279.38 556.3 276.19 551.05 273.05 545.54 269.94 539.82 266.53 534.05 263.11 528.08 259.66 521.94 255.89 515.78 252.08 509.47 248.21 503.05 244.03 496.61 239.81 490.07 235.57 483.44 231.07 476.81 226.6 470.11 222.18 463.36 217.61 456.61 213.17 449.81 208.93 442.99 204.66 436.17 200.69 429.32 197.09 422.47 193.63 415.62 190.64 408.76 188.21 401.91 186.07 395.06 184.63 388.39 183.88 381.89 183.52 375.4 183.88 369.08 184.94 362.95 186.41 356.81 188.57 350.86 191.37 345.11 194.55 339.35 198.32 333.77 202.63 328.4 207.23 323.01 212.29 317.81 217.76 312.81 223.42 307.79 229.41 302.96 235.67 298.32 242.01 293.65 248.55 289.16 255.23 284.86 261.91 280.51 268.69 276.33 275.53 272.34 282.3 268.27 289.1 264.37 295.91 260.63 302.61 256.81 309.32 253.14 316.02 249.63 322.6 246.01 329.2 242.55 335.8 239.24 342.29 235.83 348.82 232.56 355.4 229.46 361.88 226.25 368.44 223.21 375.09 220.35 381.67 217.41 388.38 214.65 395.21 212.13 402.01 209.53 408.96 207.19 416.08 205.11 423.19 203.02 430.47 201.22 437.94 199.77" stroke-dasharray="4 8" transform="rotate(138.5185185185185, 400, 400)" opacity="0.53"></path><path d="M439.27 205.75C446.53 204.36 453.76 203.35 460.94 202.74 468.11 202.19 475.22 202.05 482.21 202.32 489.18 202.68 496.01 203.46 502.65 204.64 509.22 205.93 515.54 207.63 521.57 209.72 530.21 213.21 545.11 222.19 551.08 227.61 556.03 233.49 562.1 246.79 563.08 254.14 562.87 261.79 558.61 278.18 554.84 286.82 552.12 292.66 549.02 298.65 545.65 304.75 542.55 310.87 539.39 317.11 536.33 323.43 533.86 329.76 531.72 336.17 530.05 342.65 529.26 349.13 529.13 355.68 529.75 362.26 531.45 368.84 533.98 375.46 537.35 382.09 541.78 388.73 546.98 395.38 552.87 402.02 559.56 408.66 566.51 415.13 573.53 421.42 580.89 427.71 587.97 433.81 594.61 439.72 601.09 445.62 606.83 451.32 611.71 456.81 617.72 464.93 623.22 480.06 622.58 487.05 619.67 493.83 607.76 506.26 599.2 511.93 592.73 515.68 585.65 519.22 578.09 522.55 570.21 525.95 561.98 529.16 553.53 532.2 544.92 535.33 536.19 538.31 527.44 541.14 518.65 544.09 509.9 546.92 501.26 549.63 492.65 552.49 484.18 555.25 475.9 557.91 467.68 560.73 459.65 563.46 451.83 566.1 444.08 568.9 436.53 571.59 429.2 574.17 421.92 576.89 414.84 579.46 407.98 581.86 401.13 584.37 394.49 586.66 388.05 588.71 381.62 590.79 375.53 592.52 369.78 593.9 361.29 595.71 345.88 597.13 338.93 596.68 332.21 595.58 320.11 590.93 314.67 587.4 309.32 583.24 299.48 572.77 294.87 566.56 291.65 562.2 288.54 557.53 285.51 552.6 282.25 547.58 279.01 542.31 275.8 536.83 272.3 531.3 268.79 525.57 265.25 519.67 261.4 513.74 257.51 507.67 253.58 501.47 249.36 495.26 245.1 488.94 240.84 482.54 236.34 476.13 231.86 469.64 227.46 463.1 222.92 456.56 218.52 449.98 214.32 443.36 210.1 436.74 206.18 430.1 202.62 423.45 199.2 416.8 196.24 410.14 193.82 403.49 191.69 396.84 190.22 390.35 189.42 384.04 189 377.73 189.28 371.59 190.24 365.63 191.59 359.66 193.61 353.88 196.25 348.28 199.26 342.67 202.84 337.24 206.96 332 211.36 326.74 216.23 321.67 221.51 316.79 226.98 311.88 232.78 307.16 238.86 302.62 245.03 298.04 251.42 293.64 257.97 289.42 264.54 285.14 271.21 281.03 277.96 277.1 284.66 273.09 291.41 269.24 298.18 265.56 304.85 261.79 311.55 258.17 318.24 254.7 324.83 251.14 331.43 247.72 338.04 244.45 344.55 241.09 351.09 237.87 357.66 234.81 364.15 231.66 370.71 228.67 377.33 225.87 383.89 222.98 390.55 220.29 397.32 217.81 404.05 215.28 410.91 212.99 417.9 210.97 424.88 208.92 432 207.17 439.26 205.75" stroke-dasharray="11 9" transform="rotate(144.8148148148148, 400, 400)" opacity="0.99"></path><path d="M439.92 211.74C446.97 210.37 453.95 209.39 460.83 208.78 467.71 208.23 474.49 208.08 481.12 208.32 487.73 208.64 494.15 209.36 500.36 210.47 509.43 212.49 525.82 218.58 532.91 222.6 539.24 227.12 548.78 237.89 551.81 244.07 553.76 250.62 553.87 265 552.11 272.76 550.56 278.03 548.48 283.48 545.92 289.08 543.38 294.71 540.53 300.48 537.47 306.37 534.68 312.28 531.89 318.3 529.21 324.41 527.11 330.53 525.34 336.73 524.01 342.99 523.52 349.26 523.65 355.59 524.47 361.96 526.29 368.33 528.88 374.73 532.23 381.15 536.56 387.57 541.6 394 547.25 400.43 553.66 406.85 560.3 413.11 567 419.19 574.02 425.28 580.79 431.18 587.15 436.89 593.4 442.6 598.97 448.11 603.75 453.42 609.75 461.28 615.78 475.95 615.65 482.75 613.42 489.33 603.17 501.47 595.53 507.03 589.69 510.71 583.24 514.19 576.29 517.49 569.01 520.84 561.37 524.03 553.46 527.05 545.37 530.15 537.12 533.11 528.81 535.93 520.42 538.87 512.04 541.69 503.74 544.39 495.43 547.24 487.23 549.98 479.19 552.62 471.19 555.42 463.35 558.12 455.71 560.72 448.12 563.47 440.72 566.11 433.53 568.63 426.38 571.28 419.42 573.78 412.68 576.11 405.96 578.53 399.43 580.75 393.12 582.72 383.82 585.57 366.89 589.47 359.22 590.44 351.81 590.87 338.4 589.46 332.35 587.6 326.46 585.11 315.72 577.88 310.78 573.2 305.8 567.98 296.22 555.73 291.51 548.81 288.16 544.03 284.83 539 281.52 533.76 277.93 528.46 274.33 522.97 270.7 517.32 266.79 511.63 262.83 505.79 258.85 499.82 254.59 493.84 250.31 487.75 246.03 481.57 241.53 475.38 237.07 469.11 232.69 462.79 228.19 456.47 223.83 450.09 219.68 443.68 215.52 437.27 211.65 430.84 208.14 424.39 204.76 417.94 201.84 411.48 199.43 405.03 197.3 398.58 195.82 392.28 194.98 386.15 194.5 380.02 194.7 374.06 195.55 368.27 196.78 362.47 198.66 356.84 201.14 351.4 203.97 345.94 207.37 340.65 211.29 335.55 215.5 330.43 220.16 325.48 225.23 320.71 230.5 315.92 236.1 311.3 241.99 306.85 247.99 302.37 254.21 298.05 260.6 293.91 267.02 289.71 273.57 285.67 280.21 281.8 286.82 277.86 293.48 274.07 300.18 270.43 306.81 266.72 313.46 263.15 320.12 259.73 326.69 256.22 333.27 252.85 339.86 249.63 346.37 246.32 352.89 243.15 359.44 240.15 365.92 237.05 372.45 234.12 379.03 231.37 385.56 228.55 392.16 225.91 398.84 223.5 405.49 221.03 412.24 218.79 419.08 216.82 425.92 214.83 432.87 213.12 439.91 211.74" stroke-dasharray="12 10" transform="rotate(151.11111111111111, 400, 400)" opacity="0.97"></path><path d="M439.9 217.72C446.71 216.39 453.43 215.43 460.02 214.83 466.61 214.28 473.05 214.11 479.32 214.32 488.58 214.94 505.8 218.21 513.59 220.84 523.37 224.88 531.46 230.32 537.47 237 542.58 244.01 545.3 252.15 545.47 261.22 544.82 270.52 541.91 280.64 537.11 291.38 532.59 302.23 527.35 313.64 522.23 325.41 520.49 331.31 519.06 337.3 518.06 343.35 517.85 349.4 518.22 355.51 519.22 361.66 521.15 367.82 523.78 374.01 527.11 380.21 531.35 386.41 536.22 392.63 541.64 398.83 547.77 405.04 554.1 411.09 560.49 416.97 567.18 422.84 573.64 428.55 579.73 434.07 585.73 439.58 591.12 444.92 595.79 450.06 600.06 455.19 603.45 460.14 605.9 464.87 609.01 474.36 608.1 483.05 603.46 490.91 596.46 498.85 586.4 506.05 574.07 512.5 560.41 519.18 545.41 525.27 529.82 530.79 513.86 536.73 497.88 542.27 482.33 547.36 474.59 550.12 466.98 552.79 459.54 555.34 452.14 558.04 444.92 560.63 437.89 563.09 430.89 565.67 424.08 568.1 417.47 570.36 410.89 572.7 404.49 574.84 398.3 576.74 389.19 579.47 372.6 583.24 365.07 584.18 357.8 584.62 344.6 583.33 338.62 581.59 330.6 578.63 323.45 574.06 317.04 568.05 310.07 561.59 303.55 553.81 297.35 544.94 290.25 535.77 283.16 525.67 276.02 514.87 267.82 503.93 259.48 492.42 251.13 480.52 246.65 474.56 242.22 468.51 237.87 462.41 233.41 456.3 229.11 450.14 225.01 443.95 220.91 437.75 217.1 431.52 213.64 425.28 210.32 419.03 207.43 412.78 205.04 406.52 202.92 400.27 201.42 394.17 200.55 388.22 200.07 379.38 202.86 362.5 206.04 354.47 208.71 349.16 211.92 344.01 215.63 339.04 223.9 329.04 233.86 319.68 245.07 311.02 256.77 302.21 269.3 294 282.29 286.44 295.24 278.63 308.43 271.37 321.67 264.71 334.65 257.73 347.69 251.28 360.75 245.46 367.2 242.43 373.68 239.56 380.19 236.86 386.66 234.1 393.19 231.53 399.76 229.17 406.32 226.77 412.94 224.59 419.63 222.67 426.31 220.73 433.07 219.07 439.89 217.72" stroke-dasharray="6 12" transform="rotate(157.40740740740742, 400, 400)" opacity="0.18"></path><path d="M439.19 223.7C445.77 222.41 452.22 221.47 458.51 220.87 464.79 220.33 470.91 220.15 476.82 220.33 488.54 220.92 499.26 222.99 508.67 226.43 517.6 230.24 524.84 235.4 530.06 241.75 534.5 248.41 536.67 256.17 536.51 264.84 535.71 273.72 532.89 283.41 528.43 293.72 524.38 304.15 519.78 315.11 515.4 326.44 513.19 337.83 512.53 349.53 514.02 361.39 516.04 367.32 518.7 373.29 522 379.27 526.13 385.26 530.83 391.26 536.03 397.25 541.89 403.24 547.92 409.08 553.99 414.75 560.36 420.42 566.51 425.93 572.33 431.27 583.69 441.93 592.42 451.89 597.96 461.07 601.43 470.26 601.18 478.72 597.42 486.39 591.47 494.15 582.57 501.21 571.42 507.57 558.94 514.17 545.05 520.21 530.43 525.69 515.38 531.59 500.16 537.08 485.24 542.13 470.33 547.69 455.9 552.88 442.19 557.55 435.37 560.06 428.72 562.42 422.27 564.6 415.83 566.87 409.57 568.93 403.51 570.76 394.59 573.39 378.33 577 370.93 577.91 361.18 578.68 352.5 577.88 344.82 575.57 336.84 572.81 329.66 568.52 323.15 562.85 316.09 556.76 309.42 549.4 303.02 540.97 295.76 532.27 288.5 522.64 281.2 512.32 272.91 501.86 264.52 490.82 256.16 479.38 247.1 467.9 238.36 456.1 230.3 444.14 226.28 438.15 222.54 432.13 219.13 426.1 215.86 420.06 213.02 414.01 210.65 407.96 207.79 398.95 205.56 381.66 206.22 373.4 208.57 362.46 213.26 352.13 219.99 342.47 227.84 332.73 237.34 323.6 248.11 315.12 259.41 306.5 271.56 298.46 284.22 291.02 296.91 283.36 309.88 276.22 322.92 269.66 335.77 262.8 348.69 256.47 361.6 250.76 374.33 244.75 387.18 239.39 400.1 234.84 406.54 232.5 413.02 230.38 419.54 228.51 426.05 226.63 432.6 225.02 439.18 223.71" stroke-dasharray="0 2" transform="rotate(163.7037037037037, 400, 400)" opacity="0.70"></path><path d="M437.82 229.69C450.49 227.2 462.49 226.1 473.65 226.35 484.66 226.86 494.61 228.8 503.19 232.04 511.34 235.63 517.81 240.51 522.33 246.53 526.18 252.85 527.92 260.24 527.52 268.5 526.65 276.98 523.98 286.24 519.91 296.11 516.35 306.1 512.39 316.63 508.71 327.51 507.13 338.45 507 349.72 508.85 361.13 513.84 372.57 521.13 384.14 530.42 395.69 542.1 407.24 553.94 418.21 564.96 428.51 575.86 438.8 584.37 448.43 589.96 457.33 593.74 466.24 594.06 474.46 591.11 481.95 586.15 489.53 578.35 496.46 568.33 502.73 557.02 509.23 544.23 515.21 530.6 520.66 516.5 526.49 502.1 531.92 487.85 536.91 473.56 542.38 459.64 547.46 446.35 552.02 433.12 556.97 420.51 561.3 408.67 564.77 396.82 568.35 386.2 570.66 376.73 571.65 367.13 572.41 358.54 571.69 350.88 569.52 342.93 566.96 335.7 562.94 329.08 557.6 321.91 551.87 315.08 544.91 308.49 536.93 301.08 528.68 293.67 519.52 286.23 509.68 277.88 499.69 269.45 489.12 261.1 478.15 252.12 467.13 243.5 455.77 235.57 444.24 227.74 432.71 221.15 421.02 216.26 409.32 212.36 397.61 210.82 386.43 211.59 375.86 213.69 365.26 218.04 355.22 224.36 345.81 231.78 336.34 240.82 327.43 251.12 319.15 261.99 310.72 273.73 302.84 286.01 295.54 298.39 288.02 311.09 281.01 323.88 274.57 336.55 267.84 349.29 261.63 362 256.03 374.58 250.17 387.22 244.94 399.85 240.51 412.45 235.93 425.14 232.25 437.81 229.69" stroke-dasharray="6 10" transform="rotate(170, 400, 400)" opacity="0.94"></path><path d="M435.81 235.67C447.97 233.25 459.37 232.17 469.84 232.37 480.17 232.82 489.37 234.62 497.19 237.68 504.62 241.05 510.4 245.66 514.32 251.36 517.68 257.35 519.08 264.36 518.53 272.22 517.66 280.29 515.21 289.13 511.56 298.56 508.51 308.11 505.18 318.19 502.18 328.63 501.18 339.13 501.54 349.95 503.71 360.92 508.77 371.92 515.89 383.05 524.81 394.17 535.92 405.29 547.15 415.86 557.62 425.8 568.05 435.73 576.32 445.04 581.91 453.66 585.93 462.3 586.77 470.29 584.54 477.59 580.49 484.99 573.73 491.79 564.79 497.97 554.62 504.37 542.93 510.28 530.3 515.68 517.17 521.43 503.61 526.8 490.08 531.73 476.47 537.09 463.11 542.05 450.27 546.49 437.48 551.28 425.23 555.46 413.67 558.79 402.11 562.22 391.7 564.44 382.37 565.39 372.92 566.15 364.41 565.49 356.76 563.47 348.81 561.09 341.52 557.32 334.78 552.29 327.5 546.91 320.53 540.35 313.75 532.8 306.21 524.99 298.67 516.3 291.1 506.93 282.71 497.41 274.28 487.31 265.96 476.81 257.09 466.25 248.6 455.35 240.81 444.25 233.14 433.16 226.69 421.89 221.87 410.59 218 399.29 216.38 388.48 216.97 378.23 218.82 367.96 222.84 358.23 228.76 349.08 235.73 339.86 244.31 331.19 254.12 323.09 264.53 314.86 275.82 307.15 287.68 299.99 299.71 292.63 312.08 285.75 324.57 279.43 337 272.84 349.51 266.76 361.97 261.29 374.34 255.57 386.73 250.48 399.04 246.17 411.34 241.73 423.64 238.16 435.8 235.67" stroke-dasharray="1 13" transform="rotate(176.29629629629628, 400, 400)" opacity="0.57"></path><path d="M433.19 241.65C444.83 239.31 455.63 238.24 465.43 238.4 475.11 238.78 483.62 240.46 490.73 243.33 497.51 246.49 502.68 250.84 506.09 256.23 509.04 261.89 510.19 268.53 509.57 276 508.77 283.66 506.59 292.08 503.38 301.08 500.85 310.19 498.13 319.82 495.79 329.82 495.34 339.87 496.16 350.23 498.61 360.77 503.71 371.32 510.66 382.01 519.2 392.7 529.76 403.4 540.39 413.57 550.31 423.15 560.27 432.73 568.26 441.72 573.82 450.06 578.02 458.43 579.3 466.2 577.73 473.32 574.51 480.55 568.72 487.21 560.81 493.29 551.74 499.58 541.12 505.41 529.49 510.75 517.34 516.42 504.66 521.71 491.88 526.56 478.98 531.81 466.23 536.65 453.88 540.96 441.57 545.59 429.7 549.61 418.45 552.8 407.19 556.1 397 558.21 387.81 559.13 378.5 559.87 370.06 559.28 362.4 557.39 354.46 555.18 347.1 551.66 340.23 546.93 332.85 541.89 325.73 535.72 318.79 528.58 311.14 521.21 303.48 512.97 295.82 504.06 287.42 495.02 279 485.39 270.73 475.35 261.99 465.26 253.65 454.81 246.02 444.16 238.53 433.5 232.22 422.65 227.48 411.76 223.64 400.87 221.96 390.43 222.38 380.51 223.99 370.58 227.67 361.14 233.19 352.25 239.72 343.3 247.81 334.85 257.12 326.95 267.03 318.93 277.86 311.39 289.26 304.38 300.89 297.18 312.89 290.45 325.03 284.25 337.16 277.81 349.38 271.87 361.54 266.52 373.65 260.96 385.74 256.01 397.71 251.82 409.66 247.52 421.54 244.07 433.18 241.66" stroke-dasharray="12 8" transform="rotate(182.5925925925926, 400, 400)" opacity="0.81"></path><path d="M430 247.64C441.12 245.36 451.33 244.31 460.5 244.43 469.55 244.76 477.41 246.31 483.89 249.01 490.08 251.96 494.72 256.05 497.71 261.15 500.34 266.48 501.31 272.76 500.71 279.84 500.03 287.1 498.15 295.09 495.41 303.66 493.4 312.33 491.28 321.52 489.55 331.07 489.61 340.67 490.84 350.59 493.54 360.68 498.65 370.79 505.42 381.04 513.59 391.31 523.6 401.57 533.65 411.36 543.03 420.58 552.51 429.81 560.21 438.49 565.7 446.56 570.03 454.67 571.67 462.21 570.69 469.15 568.23 476.2 563.34 482.72 556.4 488.69 548.37 494.87 538.8 500.61 528.16 505.88 516.98 511.45 505.19 516.65 493.19 521.41 481.04 526.54 468.92 531.25 457.1 535.43 445.29 539.9 433.84 543.76 422.9 546.82 411.97 549.97 402 551.99 392.95 552.87 383.79 553.6 375.41 553.06 367.74 551.3 359.8 549.25 352.38 545.96 345.39 541.53 337.92 536.81 330.68 531.01 323.58 524.28 315.85 517.33 308.1 509.54 300.38 501.09 291.99 492.51 283.62 483.35 275.42 473.78 266.83 464.15 258.66 454.16 251.2 443.94 243.9 433.72 237.74 423.31 233.09 412.82 229.29 402.34 227.55 392.27 227.81 382.69 229.18 373.09 232.54 363.95 237.65 355.33 243.73 346.64 251.33 338.43 260.12 330.73 269.53 322.91 279.85 315.55 290.77 308.7 301.95 301.67 313.53 295.09 325.27 289.02 337.06 282.74 348.94 276.95 360.75 271.74 372.55 266.33 384.31 261.53 395.88 257.47 407.46 253.31 418.89 249.98 430 247.64" stroke-dasharray="13 0" transform="rotate(188.88888888888889, 400, 400)" opacity="0.48"></path><path d="M426.31 253.62C436.89 251.42 446.52 250.39 455.08 250.47 463.54 250.74 470.8 252.18 476.72 254.71 484.48 259.39 492.05 274.08 491.95 283.75 491.45 290.61 489.91 298.19 487.65 306.32 486.14 314.56 484.6 323.3 483.46 332.4 483.99 341.55 485.58 351.02 488.5 360.67 493.61 370.33 500.18 380.15 507.98 389.99 517.46 399.84 526.93 409.23 535.79 418.1 544.78 426.98 552.17 435.35 557.55 443.15 561.95 450.99 563.9 458.31 563.43 465.08 561.65 471.94 557.58 478.31 551.56 484.18 544.52 490.23 535.95 495.87 526.27 501.06 516.07 506.53 505.17 511.63 493.96 516.29 482.58 521.28 471.12 525.85 459.85 529.9 448.58 534.21 437.57 537.91 426.97 540.84 416.38 543.84 406.65 545.77 397.74 546.62 388.73 547.33 380.42 546.84 372.75 545.2 364.81 543.3 357.34 540.23 350.24 536.08 342.7 531.66 335.35 526.22 328.13 519.88 320.33 513.35 312.53 506 304.77 498 296.42 489.88 288.12 481.19 280.03 472.07 271.61 462.91 263.62 453.37 256.35 443.6 249.25 433.83 243.25 423.84 238.7 413.77 234.95 403.69 233.15 394 233.26 384.75 234.41 375.49 237.44 366.65 242.15 358.3 247.78 349.88 254.88 341.9 263.15 334.41 272.04 326.81 281.82 319.64 292.23 312.95 302.93 306.1 314.04 299.68 325.34 293.76 336.74 287.64 348.23 282.01 359.64 276.94 371.08 271.69 382.45 267.04 393.6 263.11 404.77 259.1 415.73 255.88 426.31 253.62" stroke-dasharray="2 2" transform="rotate(195.1851851851852, 400, 400)" opacity="0.08"></path><path d="M422.17 259.6C432.21 257.48 441.28 256.47 449.27 256.52 460.53 257.41 476.42 264.8 480.72 271.1 482.92 275.81 483.76 281.39 483.36 287.72 483.07 294.19 481.89 301.35 480.12 309.06 479.11 316.87 478.11 325.16 477.52 333.82 478.47 342.52 480.4 351.54 483.49 360.75 488.57 369.97 494.94 379.35 502.37 388.77 511.33 398.19 520.24 407.2 528.58 415.73 537.09 424.26 544.15 432.32 549.4 439.86 553.82 447.43 556.01 454.53 555.98 461.11 554.8 467.78 551.48 474.01 546.3 479.75 540.19 485.67 532.58 491.2 523.84 496.29 514.59 501.64 504.58 506.63 494.16 511.19 483.56 516.03 472.78 520.47 462.09 524.37 451.38 528.51 440.82 532.06 430.59 534.85 420.35 537.72 410.86 539.56 402.11 540.36 393.27 541.05 385.03 540.61 377.36 539.08 369.45 537.33 361.93 534.47 354.74 530.58 347.15 526.47 339.72 521.36 332.41 515.41 324.58 509.28 316.76 502.36 308.99 494.8 300.72 487.14 292.52 478.9 284.56 470.24 276.33 461.54 268.54 452.46 261.47 443.13 254.58 433.8 248.76 424.24 244.31 414.58 240.62 404.92 238.77 395.6 238.73 386.69 239.66 377.77 242.38 369.24 246.69 361.15 251.88 353.01 258.48 345.28 266.22 338 274.56 330.62 283.8 323.64 293.66 317.12 303.84 310.46 314.46 304.21 325.28 298.45 336.22 292.51 347.27 287.03 358.26 282.12 369.28 277.04 380.23 272.55 390.92 268.75 401.65 264.89 412.12 261.78 422.17 259.6" stroke-dasharray="13 0" transform="rotate(201.48148148148147, 400, 400)" opacity="0.89"></path><path d="M417.65 265.59C427.15 263.54 435.68 262.55 443.14 262.58 453.62 263.36 468.28 270.24 472.24 276.14 474.33 280.55 475.19 285.8 474.97 291.75 474.92 297.84 474.11 304.6 472.82 311.88 472.29 319.26 471.81 327.12 471.72 335.33 473.06 343.59 475.27 352.16 478.52 360.92 483.54 369.7 489.69 378.65 496.76 387.65 505.21 396.66 513.58 405.28 521.4 413.46 529.43 421.65 536.15 429.4 541.23 436.68 545.63 443.99 548.01 450.86 548.35 457.25 547.7 463.73 545.05 469.79 540.64 475.41 535.4 481.19 528.69 486.59 520.84 491.58 512.51 496.8 503.37 501.66 493.75 506.1 483.93 510.8 473.85 515.09 463.74 518.85 453.61 522.82 443.54 526.21 433.68 528.87 423.82 531.6 414.6 533.34 406.01 534.11 397.35 534.78 389.21 534.38 381.55 532.95 373.68 531.34 366.14 528.67 358.89 525.05 351.28 521.21 343.79 516.44 336.43 510.86 328.6 505.11 320.79 498.61 313.05 491.49 304.88 484.27 296.82 476.49 289.01 468.28 280.99 460.03 273.43 451.4 266.56 442.52 259.9 433.63 254.26 424.51 249.92 415.26 246.29 406.01 244.41 397.06 244.23 388.5 244.95 379.92 247.36 371.7 251.29 363.89 256.04 356.03 262.14 348.54 269.34 341.48 277.13 334.33 285.8 327.56 295.1 321.23 304.73 314.76 314.81 308.7 325.11 303.1 335.56 297.34 346.13 292.04 356.64 287.28 367.22 282.38 377.7 278.04 387.92 274.39 398.17 270.67 408.14 267.69 417.65 265.59" stroke-dasharray="4 10" transform="rotate(207.7777777777778, 400, 400)" opacity="0.59"></path><path d="M412.83 271.57C421.8 269.6 429.8 268.64 436.76 268.64 446.53 269.33 460.13 275.71 463.85 281.23 466.34 287.81 466.79 304.75 465.76 314.8 465.69 321.75 465.7 329.17 466.06 336.95 467.75 344.76 470.2 352.89 473.56 361.21 478.52 369.55 484.45 378.07 491.15 386.65 499.1 395.24 506.94 403.48 514.26 411.31 521.81 419.15 528.17 426.6 533.06 433.61 537.39 440.66 539.9 447.3 540.55 453.49 540.35 459.78 538.3 465.67 534.6 471.15 530.15 476.78 524.28 482.05 517.29 486.92 509.84 492 501.55 496.72 492.7 501.04 483.67 505.58 474.28 509.71 464.78 513.32 455.24 517.12 445.66 520.36 436.2 522.89 426.73 525.47 417.8 527.13 409.4 527.85 400.93 528.5 392.9 528.14 385.29 526.81 377.48 525.32 369.95 522.85 362.66 519.46 355.06 515.9 347.56 511.45 340.17 506.22 332.38 500.85 324.62 494.75 316.95 488.06 308.91 481.27 301 473.93 293.38 466.18 285.6 458.38 278.27 450.21 271.63 441.77 265.2 433.32 259.74 424.62 255.53 415.79 251.97 406.96 250.06 398.4 249.75 390.18 250.28 381.95 252.39 374.04 255.94 366.51 260.25 358.94 265.85 351.71 272.52 344.88 279.75 337.97 287.84 331.41 296.56 325.27 305.62 319.01 315.14 313.13 324.89 307.71 334.81 302.14 344.86 297.02 354.86 292.42 364.95 287.7 374.93 283.53 384.65 280.02 394.4 276.45 403.86 273.59 412.83 271.57" stroke-dasharray="4 9" transform="rotate(214.07407407407408, 400, 400)" opacity="0.85"></path><path d="M407.79 277.56C416.24 275.67 423.73 274.73 430.22 274.7 439.35 275.3 452.05 281.21 455.61 286.36 458.13 292.49 459.35 308.36 458.96 317.8 459.31 324.34 459.77 331.33 460.55 338.67 462.53 346.04 465.2 353.73 468.64 361.62 473.5 369.52 479.2 377.61 485.54 385.77 493.01 393.94 500.33 401.81 507.15 409.3 514.23 416.79 520.23 423.94 524.9 430.68 529.13 437.45 531.72 443.86 532.62 449.85 532.79 455.93 531.27 461.65 528.2 466.98 524.47 472.44 519.39 477.56 513.19 482.3 506.58 487.23 499.1 491.81 491.02 495.99 482.75 500.36 474.06 504.33 465.16 507.8 456.22 511.43 447.16 514.51 438.1 516.9 429.05 519.35 420.42 520.92 412.23 521.6 403.98 522.22 396.09 521.9 388.54 520.67 380.83 519.29 373.33 517 366.04 513.84 358.48 510.53 351.01 506.39 343.63 501.51 335.92 496.5 328.24 490.8 320.68 484.52 312.81 478.15 305.09 471.26 297.67 463.94 290.14 456.59 283.07 448.86 276.67 440.86 270.49 432.85 265.23 424.59 261.14 416.18 257.67 407.76 255.74 399.58 255.31 391.72 255.64 383.84 257.47 376.25 260.65 369.01 264.54 361.73 269.65 354.76 275.77 348.17 282.44 341.5 289.95 335.17 298.08 329.23 306.55 323.19 315.47 317.52 324.65 312.27 334 306.91 343.51 301.97 352.97 297.54 362.53 293.01 371.99 289.01 381.18 285.64 390.42 282.23 399.35 279.49 407.79 277.56" stroke-dasharray="0 13" transform="rotate(220.37037037037038, 400, 400)" opacity="0.69"></path><path d="M402.62 283.54C410.55 281.73 417.56 280.82 423.62 280.77 432.15 281.29 444.1 286.75 447.57 291.53 450.18 297.24 452.18 312.06 452.41 320.9 453.16 327.03 454.02 333.6 455.17 340.51 457.41 347.45 460.25 354.7 463.74 362.16 468.49 369.63 473.95 377.29 479.94 385.04 486.93 392.8 493.75 400.28 500.09 407.42 506.7 414.57 512.32 421.41 516.76 427.88 520.86 434.38 523.48 440.54 524.56 446.33 525.05 452.19 523.98 457.72 521.47 462.89 518.39 468.18 514.02 473.14 508.57 477.74 502.74 482.5 496.04 486.93 488.69 490.96 481.16 495.16 473.16 498.97 464.86 502.28 456.53 505.73 447.99 508.65 439.36 510.92 430.73 513.23 422.42 514.71 414.47 515.36 406.46 515.95 398.74 515.65 391.29 514.51 383.7 513.25 376.28 511.12 369.03 508.19 361.55 505.12 354.14 501.27 346.82 496.73 339.22 492.06 331.67 486.74 324.25 480.87 316.58 474.91 309.08 468.45 301.9 461.57 294.64 454.66 287.83 447.37 281.68 439.81 275.75 432.24 270.7 424.41 266.75 416.41 263.36 408.41 261.42 400.63 260.89 393.11 261.05 385.59 262.6 378.33 265.42 371.38 268.9 364.4 273.53 357.71 279.12 351.36 285.23 344.95 292.15 338.86 299.68 333.13 307.54 327.32 315.86 321.85 324.43 316.8 333.2 311.65 342.13 306.9 351.03 302.65 360.03 298.31 368.95 294.48 377.6 291.26 386.3 288 394.7 285.39 402.62 283.54" stroke-dasharray="5 4" transform="rotate(226.66666666666666, 400, 400)" opacity="0.19"></path><path d="M397.41 289.52C408.1 287.36 425.02 287.3 431.16 289.34 436.34 292.32 442.52 302.04 443.94 308.59 445.31 315.84 447.84 332.9 449.93 342.46 452.39 348.98 455.35 355.79 458.86 362.82 463.49 369.86 468.69 377.1 474.33 384.44 480.85 391.78 487.18 398.88 493.06 405.68 499.19 412.49 504.45 419.01 508.63 425.2 513.87 434.38 516.78 451.22 514.42 458.88 511.91 463.98 508.19 468.77 503.43 473.22 498.33 477.8 492.36 482.07 485.72 485.94 478.91 489.96 471.58 493.6 463.88 496.76 456.14 500.03 448.13 502.8 439.95 504.93 431.77 507.12 423.8 508.5 416.11 509.11 408.37 509.67 400.84 509.4 393.52 508.35 386.09 507.18 378.78 505.21 371.62 502.5 364.26 499.66 356.95 496.09 349.74 491.87 342.3 487.54 334.91 482.59 327.67 477.1 320.23 471.55 312.98 465.51 306.05 459.06 299.08 452.58 292.56 445.73 286.67 438.6 281.01 431.47 276.17 424.07 272.36 416.49 269.07 408.92 267.13 401.52 266.5 394.37 266.49 387.2 267.79 380.27 270.26 373.63 273.34 366.96 277.5 360.55 282.58 354.46 288.13 348.31 294.46 342.46 301.38 336.96 308.63 331.39 316.33 326.14 324.29 321.29 332.46 316.36 340.78 311.81 349.1 307.74 357.53 303.6 365.87 299.95 373.98 296.87 382.14 293.77 390 291.29 397.41 289.52" stroke-dasharray="4 5" transform="rotate(232.962962962963, 400, 400)" opacity="0.51"></path><path d="M392.24 295.51C402.21 293.44 418.04 293.31 423.86 295.18 428.85 297.91 435.19 306.9 436.96 312.98 438.76 319.71 442.3 335.6 444.83 344.54 447.45 350.63 450.5 357.02 454.01 363.62 458.48 370.24 463.43 377.05 468.72 383.98 474.79 390.91 480.64 397.63 486.07 404.08 491.74 410.55 496.62 416.75 500.54 422.66 505.56 431.43 508.88 447.58 507.1 454.95 505.1 459.85 501.96 464.47 497.82 468.74 493.39 473.14 488.1 477.23 482.13 480.94 476 484.78 469.32 488.24 462.21 491.23 455.07 494.33 447.58 496.94 439.86 498.95 432.13 501 424.53 502.3 417.12 502.87 409.68 503.4 402.38 503.15 395.23 502.18 388 501.11 380.84 499.29 373.8 496.78 366.61 494.16 359.45 490.86 352.39 486.94 345.14 482.93 337.96 478.34 330.93 473.24 323.76 468.08 316.78 462.44 310.13 456.42 303.47 450.36 297.25 443.94 291.64 437.25 286.24 430.54 281.62 423.58 277.97 416.42 274.79 409.27 272.86 402.26 272.14 395.47 271.98 388.68 273.03 382.08 275.18 375.75 277.87 369.39 281.58 363.28 286.14 357.45 291.15 351.59 296.9 345.99 303.22 340.72 309.85 335.39 316.92 330.38 324.27 325.74 331.81 321.03 339.52 316.7 347.25 312.82 355.08 308.88 362.85 305.4 370.4 302.48 378 299.54 385.33 297.18 392.24 295.51" stroke-dasharray="4 4" transform="rotate(239.25925925925927, 400, 400)" opacity="0.36"></path><path d="M387.2 301.49C396.47 299.53 411.3 299.34 416.84 301.04 424.94 307.68 432.51 323.66 434.34 330.8 436.05 335.75 437.85 341.09 439.85 346.74 442.6 352.42 445.7 358.38 449.17 364.57 453.48 370.76 458.17 377.15 463.11 383.67 468.74 390.19 474.13 396.53 479.11 402.64 484.33 408.75 488.84 414.64 492.49 420.26 497.24 428.6 500.82 444.04 499.53 451.1 496.64 458 485.61 470.46 477.94 475.95 472.46 479.6 466.39 482.88 459.87 485.71 453.3 488.63 446.35 491.09 439.09 492.97 431.83 494.88 424.62 496.1 417.53 496.62 410.41 497.12 403.36 496.9 396.43 496 389.43 495.02 382.47 493.35 375.6 491.02 368.61 488.62 361.65 485.57 354.78 481.95 347.77 478.25 340.83 474 334.05 469.27 327.17 464.48 320.49 459.25 314.14 453.64 307.81 448 301.9 442.01 296.58 435.74 291.46 429.47 287.07 422.93 283.58 416.2 280.51 409.46 278.6 402.85 277.81 396.43 277.52 390.01 278.34 383.76 280.18 377.75 282.5 371.72 285.77 365.9 289.84 360.36 294.32 354.77 299.49 349.44 305.22 344.42 311.23 339.35 317.68 334.57 324.41 330.15 331.31 325.68 338.41 321.56 345.53 317.88 352.76 314.14 359.94 310.85 366.94 308.09 373.98 305.31 380.78 303.08 387.2 301.49" stroke-dasharray="13 7" transform="rotate(245.55555555555554, 400, 400)" opacity="0.66"></path><path d="M382.38 307.47C390.98 305.62 404.87 305.38 410.16 306.92 416.85 309.63 421.31 314.81 424.05 321.97 427.87 329.36 431.29 338.59 434.99 349.06 437.83 354.33 440.95 359.89 444.35 365.65 448.48 371.43 452.9 377.4 457.5 383.52 462.69 389.63 467.64 395.59 472.2 401.34 476.98 407.1 481.11 412.67 484.48 417.99 490.91 428.71 493.36 438.6 491.75 447.32 489.04 456.33 482.59 464.37 473.18 470.97 468.31 474.42 462.83 477.52 456.87 480.19 450.87 482.93 444.44 485.23 437.66 486.98 430.88 488.77 424.07 489.9 417.31 490.39 410.55 490.85 403.8 490.65 397.12 489.82 383.6 487.96 370.05 483.51 356.92 476.9 343.37 470.03 330.14 461.13 318.1 450.74 312.11 445.5 306.53 439.93 301.5 434.09 296.67 428.24 292.52 422.13 289.19 415.82 286.25 409.51 284.36 403.3 283.51 397.25 283.1 391.2 283.71 385.31 285.25 379.62 289.65 368.2 297.38 357.53 307.4 348.05 318.47 338.4 331.07 329.84 344.01 322.92 350.63 319.4 357.23 316.29 363.67 313.69 370.15 311.07 376.44 308.97 382.38 307.47" stroke-dasharray="4 11" transform="rotate(251.85185185185185, 400, 400)" opacity="0.18"></path><path d="M377.86 313.46C388.83 310.73 397.52 310.63 403.89 312.82 410.38 315.26 414.99 319.99 418.15 326.57 422.33 333.34 426.19 341.83 430.25 351.52 436.58 361.27 443.94 372.1 451.89 383.51 461.87 394.92 470.39 405.83 476.52 415.86 482.51 425.97 484.98 435.34 483.8 443.62 481.74 452.16 476.24 459.76 467.91 466.01 459.17 472.58 448.19 477.78 435.59 481 422.98 484.33 410.05 485.13 397.31 483.63 384.42 481.95 371.43 477.87 358.83 471.79 345.93 465.51 333.38 457.31 322 447.71 310.83 438.03 301.39 427.06 294.8 415.29 289.55 403.52 288.24 392.06 290.42 381.38 294.1 370.64 300.87 360.58 309.79 351.63 319.65 342.53 330.99 334.47 342.75 327.95 354.85 321.31 366.89 316.28 377.86 313.46" stroke-dasharray="9 9" transform="rotate(258.14814814814815, 400, 400)" opacity="0.27"></path><path d="M373.72 319.44C383.79 316.89 391.92 316.76 398.08 318.75 404.36 320.94 409.1 325.24 412.64 331.24 417.09 337.41 421.3 345.19 425.63 354.1 431.88 363.07 438.91 373.07 446.28 383.67 455.38 394.26 463.08 404.45 468.62 413.86 474.13 423.34 476.54 432.16 475.69 439.99 474.17 448.02 469.5 455.18 462.15 461.06 454.45 467.19 444.54 472.03 432.91 475.02 421.28 478.09 409.14 478.83 397.05 477.44 384.86 475.92 372.51 472.2 360.51 466.63 348.34 460.9 336.52 453.4 325.84 444.57 315.42 435.67 306.6 425.54 300.41 414.62 295.4 403.7 293.95 393.02 295.67 383.02 298.7 372.98 304.55 363.55 312.4 355.14 321.09 346.62 331.21 339.07 341.8 332.97 352.7 326.77 363.64 322.08 373.72 319.44" stroke-dasharray="4 4" transform="rotate(264.44444444444446, 400, 400)" opacity="0.57"></path><path d="M370.02 325.43C379.23 323.05 386.82 322.89 392.76 324.69 398.85 326.64 403.68 330.52 407.51 335.98 412.17 341.57 416.63 348.65 421.12 356.8 427.22 365 433.88 374.19 440.67 383.97 448.92 393.76 455.82 403.21 460.78 411.99 465.8 420.83 468.08 429.08 467.48 436.42 466.39 443.93 462.44 450.63 455.97 456.12 449.23 461.81 440.34 466.29 429.68 469.03 419.01 471.85 407.71 472.52 396.35 471.26 384.93 469.88 373.3 466.5 362 461.43 350.61 456.23 339.58 449.39 329.64 441.32 319.98 433.18 311.81 423.89 306.02 413.82 301.26 403.74 299.71 393.84 301.02 384.55 303.44 375.23 308.43 366.44 315.27 358.6 322.84 350.67 331.77 343.64 341.22 337.97 350.94 332.22 360.8 327.87 370.02 325.43" stroke-dasharray="6 6" transform="rotate(270.74074074074076, 400, 400)" opacity="0.46"></path><path d="M366.83 331.41C375.2 329.21 382.27 329.04 387.99 330.64 393.86 332.37 398.72 335.86 402.78 340.79 407.55 345.82 412.15 352.22 416.71 359.63 422.59 367.07 428.85 375.45 435.06 384.43 442.48 393.4 448.62 402.12 453.01 410.25 457.51 418.43 459.63 426.09 459.21 432.92 458.43 439.89 455.09 446.1 449.44 451.18 443.56 456.43 435.63 460.54 425.94 463.05 416.24 465.62 405.82 466.22 395.25 465.07 384.66 463.83 373.83 460.77 363.3 456.18 352.75 451.49 342.55 445.31 333.39 437.97 324.51 430.58 317 422.11 311.63 412.88 307.14 403.65 305.53 394.55 306.47 385.98 308.34 377.38 312.52 369.26 318.4 362.01 324.9 354.69 332.69 348.2 341.05 342.96 349.64 337.67 358.45 333.66 366.83 331.41" stroke-dasharray="3 13" transform="rotate(277.037037037037, 400, 400)" opacity="0.78"></path><path d="M364.2 337.39C371.76 335.38 378.31 335.2 383.78 336.62 389.39 338.14 394.24 341.25 398.43 345.66 403.21 350.15 407.86 355.9 412.4 362.58 418 369.28 423.82 376.87 429.45 385.03 436.07 393.19 441.47 401.16 445.31 408.62 449.29 416.12 451.2 423.18 450.89 429.47 450.34 435.88 447.52 441.59 442.59 446.26 437.5 451.05 430.48 454.8 421.76 457.07 413.03 459.39 403.53 459.93 393.81 458.88 384.11 457.77 374.14 455.02 364.45 450.9 354.79 446.69 345.46 441.14 337.11 434.52 329.03 427.86 322.17 420.2 317.24 411.82 313.05 403.44 311.4 395.15 312.01 387.31 313.39 379.45 316.83 372.02 321.82 365.37 327.32 358.67 334.03 352.73 341.34 347.94 348.83 343.11 356.64 339.45 364.2 337.39" stroke-dasharray="13 8" transform="rotate(283.33333333333337, 400, 400)" opacity="0.12"></path><path d="M362.18 343.38C371.96 341.46 387.86 345.31 394.46 350.59 399.17 354.57 403.76 359.67 408.18 365.64 413.45 371.62 418.79 378.42 423.84 385.77 429.68 393.12 434.39 400.33 437.69 407.11 441.99 417.13 441 434.51 435.53 441.34 431.14 445.67 424.97 449.05 417.21 451.08 409.44 453.16 400.88 453.64 392.08 452.69 383.3 451.7 374.25 449.26 365.46 445.59 356.73 441.85 348.32 436.9 340.79 430.99 333.52 425.05 327.34 418.19 322.85 410.66 318.98 403.12 317.32 395.64 317.66 388.55 318.61 381.44 321.37 374.71 325.53 368.68 330.11 362.62 335.8 357.24 342.11 352.9 348.57 348.54 355.41 345.24 362.18 343.38" stroke-dasharray="3 11" transform="rotate(289.6296296296296, 400, 400)" opacity="0.77"></path><path d="M360.81 349.36C369.54 347.63 384.42 350.96 390.86 355.59 395.4 359.06 399.83 363.55 404.05 368.81 408.91 374.08 413.75 380.1 418.23 386.64 423.32 393.18 427.36 399.63 430.15 405.7 433.82 414.69 432.99 430.3 428.3 436.43 424.54 440.3 419.19 443.3 412.36 445.1 405.54 446.93 397.95 447.35 390.1 446.5 382.28 445.63 374.22 443.48 366.37 440.24 358.6 436.96 351.12 432.6 344.44 427.38 337.99 422.15 332.49 416.08 328.46 409.39 324.93 402.7 323.31 396.04 323.41 389.71 323.99 383.37 326.15 377.35 329.56 371.95 333.28 366.54 338.03 361.73 343.41 357.86 348.89 353.97 354.81 351.03 360.81 349.36" stroke-dasharray="13 12" transform="rotate(295.9259259259259, 400, 400)" opacity="0.97"></path><path d="M360.1 355.34C370.56 352.49 379.96 354.73 387.62 360.63 396.47 366.66 405.34 376.19 412.62 387.64 421.75 399.1 426.55 410.35 426.11 419.45 425.53 428.72 419.11 436.02 407.31 439.11 395.5 442.32 380.98 440.49 367.2 434.88 353.74 429.17 341.51 419.72 334.07 408.04 328.15 396.34 328.68 384.67 333.9 375.19 340.07 365.67 349.62 358.29 360.1 355.34" stroke-dasharray="4 13" transform="rotate(302.22222222222223, 400, 400)" opacity="0.68"></path><path d="M360.06 361.33C369.04 358.86 377.54 360.73 384.72 365.73 392.77 370.82 400.72 378.92 407.01 388.76 414.64 398.59 418.51 408.31 418.02 416.2 417.51 424.2 412.13 430.48 402.13 433.13 392.14 435.86 379.75 434.29 367.98 429.51 356.51 424.66 346.08 416.61 339.68 406.61 334.41 396.6 334.49 386.56 338.57 378.39 343.31 370.21 351.09 363.87 360.06 361.33" stroke-dasharray="4 5" transform="rotate(308.51851851851853, 400, 400)" opacity="0.67"></path><path d="M360.71 367.31C368.2 365.23 375.66 366.76 382.15 370.89 389.22 375.06 396.13 381.78 401.4 389.98 407.59 398.18 410.59 406.34 410.06 412.97 409.57 419.68 405.14 424.94 396.92 427.15 388.7 429.4 378.46 428.09 368.74 424.12 359.27 420.1 350.64 413.44 345.29 405.11 340.74 396.79 340.5 388.41 343.56 381.57 347.07 374.74 353.22 369.44 360.71 367.31" stroke-dasharray="7 12" transform="rotate(314.81481481481484, 400, 400)" opacity="0.84"></path><path d="M362.02 373.29C374.05 369.99 387.97 378.15 395.79 391.29 405.92 404.43 404.74 417.7 391.76 421.16 378.77 424.76 359.92 416.87 350.91 403.57 343.96 390.27 349.99 376.73 362.02 373.29" stroke-dasharray="7 7" transform="rotate(321.1111111111111, 400, 400)" opacity="0.58"></path><path d="M363.98 379.28C373.05 376.76 384.14 382.81 390.18 392.69 383.55 411.24 352.95 386.95 363.98 379.28" stroke-dasharray="5 4" transform="rotate(327.4074074074074, 400, 400)" opacity="0.68"></path><path d="M366.55 385.26C376.86 401.91 359.35 390.38 366.55 385.26" stroke-dasharray="8 13" transform="rotate(333.7037037037037, 400, 400)" opacity="0.91"></path></g></svg>