<svg xmlns="http://www.w3.org/2000/svg" version="1.1" xmlns:xlink="http://www.w3.org/1999/xlink" xmlns:svgjs="http://svgjs.dev/svgjs" viewBox="0 0 800 400"><path d="M330.044850712932 17.937219619750977C329.7458954313565 20.029895146687824 329.29745996586166 25.112106641133625 328.25111902347885 30.49327278137207C327.20477808109604 35.87443892161051 324.5141907194424 44.8430503209432 323.7668050586351 50.22421646118164C323.0194193978278 55.60538260142008 323.16889449548404 57.847534815470375 323.7668050586351 62.780269622802734C324.36471562178616 67.71300443013509 325.5605469206143 75.03736686706543 327.35426843754135 79.82062530517578C329.1479899544684 84.60388374328613 332.1375071663825 88.19132995605469 334.5291341601976 91.47982025146484C336.9207611540127 94.768310546875 338.1165822803148 96.86098353068034 341.704030400432 99.55156707763672C345.29147852054916 102.2421506245931 350.5231781462002 105.23169199625652 356.0538228809007 107.62332153320312C361.5844676156012 110.01495107014973 367.56353764327054 112.4065767923991 374.8878988086351 113.9013442993164C382.21225997399966 115.39611180623372 391.0313822884528 115.54558817545573 399.9999898730882 116.59192657470703C408.96859745772366 117.63826497395833 420.4783173063565 118.68460591634114 428.6995443164476 120.17937469482422C436.9207713265387 121.6741434733073 443.7967071989346 123.46786371866862 449.3273519336351 125.56053924560547C454.8579966683356 127.65321477254231 458.1464945931403 129.59641393025717 461.8834127246507 132.7354278564453C465.62033085616116 135.87444178263345 468.9088033496507 140.2092717488607 471.7488607226976 144.39462280273438C474.5889180957445 148.57997385660806 477.4289856413174 153.6621831258138 478.923756962932 157.8475341796875C480.41852828454654 162.0328852335612 480.26905827315335 165.62033081054688 480.7174886523851 169.50672912597656C481.16591903161685 173.39312744140625 481.46486414066635 177.72795613606772 481.6143392383226 181.16592407226562C481.76381433597885 184.60389200846353 481.76381433597885 187.14500172932944 481.6143392383226 190.13453674316406C481.46486414066635 193.1240717569987 481.16591903161685 196.4125518798828 480.7174886523851 199.10313415527344C480.26905827315335 201.79371643066406 479.82061772139554 203.5874455769857 478.923756962932 206.2780303955078C478.0268962044684 208.96861521402994 476.8310903369554 212.55606079101562 475.33632410160385 215.24664306640625C473.8415578662523 217.93722534179688 472.0478363493252 220.17937215169272 469.9551595508226 222.42152404785156C467.86248275232 224.6636759440104 466.51718652836166 226.45740254720053 462.7802633105882 228.69955444335938C459.0433400928148 230.94170633951822 452.4663544157315 234.23019154866537 447.533620244182 235.8744354248047C442.6008860726325 237.518679300944 438.2660675504971 237.07024892171225 433.18385828129135 238.5650177001953C428.1016490120856 240.05978647867838 422.8699595589606 242.30194091796875 417.0403646289476 244.84304809570312C411.2107696989346 247.3841552734375 404.9327494759528 250.97159830729166 398.2062887012132 253.81166076660156C391.47982792647366 256.65172322591144 381.76381433597885 259.64126841227215 376.6815999805101 261.8834228515625C371.59938562504135 264.12557729085285 371.00149032067935 264.5740051269531 367.7130025684007 267.26458740234375C364.4245148161221 269.9551696777344 360.38864140303616 274.2899983723958 356.9506734668382 278.02691650390625C353.5127055306403 281.7638346354167 349.6263021289476 286.5470835367839 347.0851949512132 289.68609619140625C344.54408777347885 292.8251088460286 343.3482768197028 294.17041015625 341.704030400432 296.8609924316406C340.05978398116116 299.55157470703125 338.56500757328354 302.8400522867839 337.2197164355882 305.82958984375C335.8744252978929 308.8191274007161 334.6786194303799 311.36024983723956 333.6322835742601 314.7982177734375C332.5859477181403 318.23618570963544 331.5396067757575 322.42152404785156 330.9417012988695 326.4573974609375C330.3437958219815 330.49327087402344 330.3438059945075 334.9775848388672 330.044850712932 339.0134582519531C329.7458954313565 343.04933166503906 329.2974497933356 346.6367645263672 329.14796960941635 350.6726379394531C328.9984894254971 354.70851135253906 329.14796960941635 359.1928253173828 329.14796960941635 363.22869873046875C329.14796960941635 367.2645721435547 329.14796960941635 372.94468180338544 329.14796960941635 374.88787841796875 " fill="none" stroke-width="25" stroke="url(&quot;#SvgjsLinearGradient1001&quot;)" stroke-linecap="round"></path><defs><linearGradient id="SvgjsLinearGradient1001" gradientTransform="rotate(201, 0.5, 0.5)"><stop stop-color="hsl(230, 49%, 59%)" offset="0"></stop><stop stop-color="hsl(230, 56%, 30%)" offset="1"></stop></linearGradient></defs></svg>