<svg xmlns="http://www.w3.org/2000/svg" version="1.1" xmlns:xlink="http://www.w3.org/1999/xlink" xmlns:svgjs="http://svgjs.dev/svgjs" viewBox="0 0 800 800"><defs><linearGradient x1="50%" y1="0%" x2="50%" y2="100%" id="ccchaos-grad"><stop stop-color="hsl(206, 75%, 49%)" stop-opacity="1" offset="0%"></stop><stop stop-color="hsl(331, 90%, 56%)" stop-opacity="1" offset="100%"></stop></linearGradient></defs><g stroke-width="2" stroke="url(#ccchaos-grad)" fill="none" stroke-linecap="round"><path d="M368.51 124.75C377.62 122.94 386.88 120.96 396.28 119.01 405.72 116.77 415.34 115.03 425.15 113.98 435.05 113.33 445.22 113.72 455.65 115.25 466.25 117.53 477.19 121 488.48 125.58 499.99 130.82 511.9 136.97 524.19 143.85 536.7 151.01 549.58 158.6 562.75 166.44 576.04 174.15 589.51 181.89 603.02 189.56 616.39 196.83 629.57 203.96 642.32 210.93 654.54 217.46 666.01 223.88 676.43 230.23 685.86 236.23 693.89 242.28 700.27 248.44 705.25 254.39 708.33 260.56 709.36 267 708.87 273.35 706.35 280.04 701.85 287.07 696.18 294.1 688.91 301.51 680.31 309.29 671.39 317.08 661.86 325.25 652.15 333.76 643.3 342.29 635.12 351.15 628.02 360.32 622.91 369.49 619.53 378.97 618.11 388.73 619.24 398.5 622.34 408.32 627.21 418.19 634.09 428.07 642.09 438.01 650.81 448.01 660.43 458.04 669.92 468.16 678.85 478.35 687.5 488.6 694.87 498.94 700.67 509.33 705.33 519.78 708.03 530.25 708.72 540.69 707.9 551.09 705.04 561.36 700.26 571.38 694.09 581.19 686.25 590.57 676.99 599.39 666.72 607.74 655.39 615.31 643.28 621.96 630.62 627.93 617.51 632.85 604.19 636.65 590.71 639.77 577.26 641.85 563.96 642.96 550.78 643.76 537.87 643.95 525.33 643.75 512.99 643.94 501.04 644.27 489.48 645.01 478.13 646.83 467.14 649.46 456.49 653.01 446.01 657.87 435.8 663.57 425.85 669.93 416 677.02 406.35 684.13 396.88 690.81 387.46 697.03 378.18 701.96 369.05 705.19 359.92 706.9 351.14 706.46 342.7 703.95 334.26 699.99 326.15 694.39 318.4 687.54 310.64 680.19 303.23 672.37 296.2 664.48 289.15 657.18 282.46 650.4 276.15 644.33 269.8 639.41 263.8 635.3 258.16 631.94 249.71 628.66 234.04 624.2 226.66 621.74 221.54 619.89 216.57 617.31 211.7 613.93 206.5 610.11 201.34 605.38 196.22 599.75 190.71 593.62 185.2 586.66 179.71 578.96 173.85 570.86 168.01 562.17 162.25 553.01 156.2 543.6 150.28 533.87 144.56 523.9 138.71 513.82 133.16 503.61 128 493.34 122.89 483.05 118.29 472.74 114.27 462.48 110.5 452.22 107.42 442.01 105.1 431.9 103.17 421.8 102.08 411.79 101.88 401.9 102.13 392.01 103.27 382.46 105.24 373.27 107.6 364.07 110.72 355.2 114.52 346.68 118.56 338.12 123.17 329.89 128.29 321.96 133.45 313.97 138.98 306.25 144.81 298.76 150.5 291.15 156.38 283.71 162.39 276.41 168.11 268.89 173.9 261.42 179.71 253.96 185.14 246.2 190.59 238.39 196.05 230.49 201.11 222.26 206.22 213.95 211.37 205.58 216.19 196.97 221.13 188.4 226.2 179.98 231.03 171.57 236.06 163.5 241.34 155.94 246.45 148.74 251.86 142.29 257.59 136.73 263.23 131.82 269.22 127.95 275.58 125.19 281.89 123.08 288.58 122 295.64 121.86 302.69 122.03 310.1 122.8 317.87 123.98 325.62 124.85 333.73 125.71 342.18 126.4 350.61 126.26 359.38 125.71 368.5 124.76" stroke-dasharray="3 9" transform="rotate(0, 400, 400)" opacity="0.58"></path><path d="M374.51 135.92C383.42 134.16 392.52 132.26 401.81 130.37 411.14 128.2 420.7 126.47 430.49 125.35 440.37 124.57 450.53 124.74 460.98 125.96 471.56 127.85 482.48 130.88 493.73 134.97 505.14 139.71 516.9 145.36 528.97 151.78 541.17 158.54 553.64 165.8 566.29 173.4 578.96 180.98 591.67 188.67 604.28 196.38 616.66 203.79 628.71 211.1 640.21 218.3 651.13 225.11 661.2 231.8 670.19 238.41 678.19 244.68 684.81 250.94 689.84 257.25 693.59 263.32 695.56 269.54 695.65 275.95 694.43 282.23 691.39 288.77 686.6 295.61 680.85 302.39 673.73 309.5 665.49 316.96 657.08 324.39 648.2 332.18 639.21 340.31 631.1 348.43 623.63 356.9 617.17 365.69 612.54 374.47 609.48 383.59 608.19 393.01 609.2 402.44 612.01 411.97 616.4 421.57 622.65 431.18 629.94 440.88 637.92 450.66 646.81 460.46 655.65 470.34 664.05 480.29 672.33 490.26 679.52 500.29 685.37 510.32 690.29 520.35 693.5 530.33 694.9 540.2 694.99 549.96 693.22 559.5 689.67 568.69 684.84 577.61 678.4 586.04 670.57 593.82 661.74 601.13 651.81 607.65 641.01 613.26 629.62 618.26 617.66 622.3 605.34 625.32 592.78 627.83 580.11 629.46 567.46 630.32 554.82 631.03 542.34 631.33 530.12 631.4 518.03 631.96 506.24 632.76 494.79 634.01 483.51 636.32 472.55 639.39 461.92 643.28 451.43 648.35 441.23 654.12 431.32 660.41 421.49 667.29 411.9 674.11 402.55 680.45 393.23 686.33 384.11 690.98 375.19 694.03 366.27 695.69 357.74 695.36 349.59 693.1 341.43 689.49 333.63 684.32 326.21 677.93 318.76 670.99 311.68 663.51 304.97 655.85 298.21 648.62 291.82 641.75 285.78 635.45 279.66 630.15 273.88 625.57 268.42 621.67 260.18 617.55 244.71 611.88 237.3 609.26 232.16 607.51 227.11 605.22 222.16 602.29 216.86 599.08 211.6 595.07 206.36 590.28 200.76 585.07 195.15 579.07 189.56 572.36 183.62 565.28 177.73 557.57 171.9 549.36 165.83 540.88 159.9 532 154.17 522.83 148.34 513.51 142.81 503.99 137.67 494.35 132.61 484.64 128.04 474.87 124.06 465.09 120.33 455.29 117.28 445.51 114.99 435.8 113.09 426.08 112.01 416.43 111.81 406.87 112.06 397.31 113.19 388.07 115.14 379.15 117.47 370.21 120.56 361.58 124.32 353.24 128.33 344.87 132.91 336.77 137.98 328.92 143.12 320.99 148.64 313.27 154.45 305.73 160.15 298.06 166.05 290.49 172.09 283.02 177.87 275.33 183.72 267.65 189.6 259.96 195.14 252 200.69 243.99 206.24 235.92 211.42 227.59 216.63 219.22 221.87 210.87 226.77 202.37 231.77 194.01 236.87 185.87 241.71 177.85 246.73 170.25 251.94 163.22 256.97 156.59 262.26 150.75 267.82 145.8 273.27 141.47 279.05 138.13 285.15 135.84 291.19 134.12 297.58 133.32 304.33 133.36 311.05 133.62 318.13 134.4 325.58 135.53 332.99 136.31 340.79 137.07 348.94 137.65 357.08 137.45 365.6 136.87 374.51 135.92" stroke-dasharray="8 14" transform="rotate(4.04, 400, 400)" opacity="0.93"></path><path d="M381.7 147.08C390.41 145.39 399.35 143.56 408.51 141.74 417.71 139.64 427.16 137.92 436.87 136.77 446.65 135.87 456.72 135.85 467.07 136.78 477.52 138.31 488.29 140.9 499.34 144.51 510.51 148.75 521.96 153.89 533.63 159.81 545.37 166.12 557.27 172.99 569.23 180.27 581.12 187.62 592.94 195.17 604.54 202.81 615.83 210.25 626.68 217.67 636.89 225.02 646.49 232.04 655.19 238.98 662.79 245.82 669.44 252.35 674.75 258.84 678.55 265.35 681.18 271.6 682.19 277.94 681.49 284.4 679.66 290.71 676.22 297.22 671.26 303.95 665.53 310.61 658.64 317.54 650.8 324.76 642.93 331.95 634.69 339.45 626.42 347.27 619.02 355.08 612.23 363.21 606.37 371.66 602.2 380.11 599.43 388.88 598.26 397.98 599.18 407.07 601.69 416.28 605.64 425.58 611.29 434.88 617.91 444.27 625.18 453.74 633.35 463.21 641.53 472.75 649.39 482.33 657.23 491.89 664.18 501.47 669.99 510.99 675.07 520.46 678.65 529.82 680.63 538.98 681.5 547.99 680.67 556.68 678.22 564.97 674.6 572.95 669.47 580.38 662.98 587.14 655.55 593.45 646.99 598.98 637.53 603.65 627.43 607.82 616.68 611.11 605.47 613.53 593.94 615.58 582.17 616.92 570.31 617.66 558.38 618.42 546.49 618.91 534.75 619.32 523.08 620.29 511.62 621.57 500.43 623.32 489.36 626.08 478.56 629.54 468.08 633.72 457.7 638.94 447.59 644.73 437.79 650.91 428.05 657.56 418.57 664.07 409.35 670.08 400.16 675.61 391.2 679.98 382.48 682.87 373.76 684.48 365.45 684.24 357.54 682.22 349.61 678.95 342.07 674.2 334.91 668.26 327.71 661.75 320.88 654.63 314.41 647.24 307.88 640.14 301.69 633.27 295.84 626.82 289.89 621.22 284.25 616.23 278.89 611.86 270.75 606.93 255.29 599.92 247.8 596.97 242.58 595.17 237.44 592.99 232.36 590.33 226.96 587.53 221.58 584.07 216.22 579.94 210.51 575.5 204.8 570.34 199.12 564.52 193.12 558.37 187.17 551.61 181.31 544.31 175.22 536.76 169.29 528.77 163.58 520.43 157.79 511.93 152.31 503.16 147.21 494.2 142.21 485.17 137.71 476.01 133.78 466.77 130.11 457.51 127.11 448.22 124.86 438.94 122.99 429.65 121.94 420.38 121.74 411.17 121.99 401.96 123.1 393.01 125.01 384.33 127.31 375.64 130.35 367.2 134.05 359.01 138.01 350.78 142.53 342.76 147.54 334.94 152.64 327.03 158.12 319.28 163.89 311.66 169.59 303.9 175.49 296.2 181.54 288.56 187.36 280.72 193.27 272.88 199.21 265.01 204.84 256.93 210.49 248.81 216.15 240.67 221.45 232.35 226.78 224.05 232.12 215.84 237.14 207.58 242.23 199.53 247.41 191.79 252.31 184.23 257.35 177.17 262.57 170.72 267.58 164.71 272.81 159.48 278.29 155.13 283.62 151.37 289.25 148.54 295.18 146.66 301.02 145.29 307.2 144.74 313.72 144.92 320.18 145.25 327.01 146.02 334.2 147.07 341.35 147.77 348.88 148.42 356.8 148.9 364.69 148.63 372.99 148.02 381.69 147.08" stroke-dasharray="13 6" transform="rotate(8.08, 400, 400)" opacity="0.47"></path><path d="M389.74 158.24C398.25 156.61 407.02 154.86 416.02 153.12 425.04 151.09 434.34 149.41 443.88 148.22 453.49 147.24 463.37 147.04 473.51 147.71 483.73 148.91 494.21 151.09 504.93 154.23 515.71 157.96 526.69 162.58 537.82 167.98 548.94 173.8 560.13 180.22 571.28 187.11 582.29 194.14 593.11 201.46 603.61 208.94 613.76 216.31 623.37 223.73 632.29 231.14 640.59 238.3 647.96 245.4 654.24 252.43 659.63 259.18 663.74 265.9 666.43 272.59 668.09 279.04 668.27 285.54 666.92 292.11 664.61 298.52 660.9 305.06 655.86 311.78 650.24 318.39 643.63 325.23 636.25 332.31 628.92 339.34 621.33 346.63 613.77 354.21 607.05 361.77 600.91 369.63 595.62 377.78 591.88 385.93 589.4 394.38 588.33 403.14 589.16 411.9 591.4 420.77 594.93 429.71 600.02 438.65 606 447.67 612.58 456.74 620.04 465.81 627.56 474.9 634.86 483.99 642.24 493.04 648.89 502.05 654.57 510.94 659.7 519.75 663.53 528.37 665.97 536.73 667.47 544.9 667.45 552.71 665.95 560.05 663.43 567.08 659.49 573.54 654.25 579.33 648.13 584.72 640.91 589.37 632.74 593.23 623.95 596.7 614.44 599.4 604.38 601.38 593.97 603.13 583.21 604.33 572.25 605.09 561.14 606 549.99 606.76 538.88 607.56 527.76 608.96 516.78 610.71 506 612.94 495.27 616.1 484.77 619.89 474.54 624.3 464.38 629.61 454.48 635.38 444.85 641.42 435.28 647.82 425.97 654.02 416.92 659.68 407.9 664.89 399.11 668.99 390.58 671.7 382.05 673.26 373.94 673.12 366.24 671.32 358.52 668.38 351.19 664.03 344.23 658.53 337.23 652.46 330.58 645.73 324.29 638.65 317.92 631.74 311.87 624.93 306.13 618.42 300.28 612.6 294.7 607.29 289.38 602.51 283.9 598.57 278.63 595.1 273.55 592.01 265.67 588.41 250.08 581.89 242.24 578.23 236.73 575.66 231.22 572.58 225.73 568.94 219.93 565.09 214.13 560.63 208.36 555.55 202.32 550.22 196.33 544.31 190.44 537.86 184.38 531.2 178.47 524.06 172.79 516.54 167.06 508.87 161.65 500.88 156.62 492.64 151.71 484.32 147.29 475.81 143.43 467.16 139.85 458.49 136.91 449.72 134.71 440.91 132.89 432.09 131.86 423.23 131.66 414.38 131.92 405.52 133 396.87 134.87 388.43 137.12 379.97 140.1 371.71 143.72 363.64 147.61 355.53 152.05 347.58 156.97 339.77 162.01 331.88 167.42 324.1 173.13 316.39 178.8 308.57 184.68 300.78 190.72 293.01 196.57 285.08 202.51 277.14 208.51 269.2 214.23 261.09 219.97 252.98 225.72 244.88 231.15 236.7 236.6 228.59 242.06 220.64 247.22 212.73 252.42 205.09 257.69 197.83 262.7 190.82 267.81 184.34 273.07 178.51 278.12 173.13 283.35 168.51 288.8 164.75 294.09 161.52 299.64 159.16 305.47 157.67 311.19 156.59 317.22 156.24 323.57 156.54 329.85 156.91 336.48 157.65 343.47 158.62 350.41 159.22 357.73 159.76 365.44 160.13 373.13 159.81 381.22 159.18 389.73 158.24" stroke-dasharray="13 1" transform="rotate(12.12, 400, 400)" opacity="0.65"></path><path d="M398.25 169.4C406.57 167.83 415.13 166.16 423.93 164.5 432.75 162.55 441.82 160.91 451.13 159.71 460.48 158.66 470.08 158.31 479.9 158.74 489.77 159.64 499.85 161.44 510.09 164.13 520.36 167.37 530.76 171.47 541.21 176.34 551.61 181.64 561.97 187.56 572.2 194 582.24 200.64 592.01 207.62 601.36 214.84 610.34 222.05 618.72 229.36 626.37 236.72 633.41 243.92 639.53 251.09 644.57 258.24 648.81 265.15 651.84 272.03 653.57 278.89 654.4 285.52 653.88 292.18 652.01 298.88 649.36 305.41 645.48 312.03 640.47 318.77 635.02 325.41 628.75 332.21 621.85 339.21 615.09 346.14 608.14 353.29 601.26 360.68 595.2 368.05 589.67 375.67 584.93 383.55 581.59 391.42 579.37 399.57 578.4 407.99 579.14 416.41 581.14 424.91 584.27 433.45 588.83 442 594.19 450.59 600.12 459.19 606.9 467.77 613.77 476.34 620.49 484.84 627.38 493.3 633.67 501.65 639.16 509.83 644.25 517.9 648.22 525.73 650.99 533.23 652.98 540.55 653.64 547.45 652.95 553.87 651.38 559.99 648.51 565.55 644.42 570.46 639.52 575.04 633.55 578.94 626.64 582.15 619.11 585.07 610.84 587.35 601.96 589.05 592.69 590.64 583 591.83 573.03 592.72 562.86 593.86 552.53 594.96 542.17 596.17 531.74 598.01 521.36 600.2 511.1 602.86 500.86 606.37 490.78 610.43 480.9 615.02 471.08 620.37 461.47 626.07 452.1 631.93 442.78 638.07 433.69 643.94 424.85 649.27 416.04 654.15 407.46 657.99 399.12 660.54 390.78 662.04 382.87 661.98 375.35 660.4 367.81 657.76 360.64 653.8 353.85 648.74 347 643.1 340.49 636.79 334.31 630.05 328.04 623.39 322.08 616.71 316.39 610.2 310.59 604.26 305.03 598.71 299.69 593.6 294.19 589.23 288.87 585.3 283.7 581.74 278.32 578.81 273.06 576.08 267.88 573.46 262.44 571.2 257.06 568.82 251.71 566.23 246.08 563.73 240.46 560.84 234.85 557.52 228.96 554.1 223.09 550.15 217.26 545.67 211.19 541.01 205.2 535.82 199.31 530.12 193.28 524.25 187.42 517.9 181.8 511.16 176.16 504.27 170.84 497.04 165.91 489.51 161.11 481.91 156.79 474.06 153.03 466.03 149.54 457.96 146.69 449.74 144.54 441.42 142.78 433.08 141.78 424.66 141.59 416.17 141.84 407.69 142.89 399.34 144.71 391.14 146.9 382.93 149.8 374.85 153.32 366.9 157.12 358.92 161.46 351.04 166.28 343.26 171.22 335.41 176.54 327.62 182.18 319.88 187.79 312.04 193.62 304.21 199.63 296.4 205.48 288.47 211.44 280.54 217.46 272.62 223.25 264.6 229.07 256.62 234.9 248.7 240.45 240.77 246.02 232.97 251.6 225.4 256.89 217.93 262.22 210.8 267.6 204.1 272.73 197.69 277.95 191.84 283.28 186.64 288.4 181.88 293.68 177.87 299.15 174.66 304.45 171.93 309.98 169.99 315.75 168.84 321.41 168.02 327.36 167.83 333.6 168.2 339.76 168.59 346.25 169.28 353.08 170.16 359.86 170.66 367 171.09 374.53 171.36 382.02 170.98 389.93 170.33 398.24 169.4" stroke-dasharray="10 12" transform="rotate(16.16, 400, 400)" opacity="0.47"></path><path d="M406.85 180.56C414.95 179.06 423.29 177.47 431.83 175.89 440.39 174.03 449.18 172.44 458.17 171.23 467.2 170.14 476.42 169.66 485.82 169.89 495.24 170.51 504.81 171.96 514.48 174.23 524.13 177 533.83 180.58 543.5 184.91 553.08 189.67 562.55 195.07 571.79 201 580.81 207.18 589.48 213.76 597.69 220.63 605.5 227.56 612.68 234.67 619.11 241.88 624.97 249 629.92 256.15 633.85 263.31 637.05 270.29 639.14 277.27 640.03 284.22 640.16 291 639.1 297.78 636.84 304.57 633.95 311.22 630.01 317.93 625.1 324.71 619.9 331.39 614.01 338.19 607.61 345.13 601.42 352 595.1 359.05 588.89 366.28 583.45 373.49 578.52 380.9 574.28 388.53 571.32 396.15 569.35 403.99 568.48 412.06 569.13 420.13 570.9 428.23 573.67 436.34 577.72 444.45 582.5 452.56 587.81 460.63 593.92 468.67 600.15 476.65 606.29 484.52 612.66 492.32 618.56 499.97 623.79 507.39 628.75 514.69 632.77 521.71 635.75 528.37 638.71 537.86 637.57 554.11 633.52 560.65 629.73 564.55 624.92 567.86 619.19 570.57 612.88 573.1 605.81 575.11 598.1 576.67 589.99 578.24 581.4 579.53 572.45 580.64 563.27 582.06 553.86 583.54 544.33 585.17 534.69 587.43 525.02 590.04 515.39 593.08 505.74 596.88 496.18 601.16 486.76 605.86 477.37 611.2 468.14 616.78 459.11 622.45 450.11 628.3 441.31 633.84 432.73 638.84 424.17 643.4 415.82 646.99 407.7 649.38 399.58 650.82 391.85 650.83 384.5 649.45 377.13 647.1 370.11 643.52 363.44 638.89 356.71 633.69 350.3 627.79 344.19 621.43 338 615.06 332.07 608.57 326.4 602.15 320.6 596.16 315.02 590.46 309.63 585.1 304.08 580.39 298.68 576.05 293.41 572.06 287.93 568.67 282.55 565.51 277.24 562.5 271.69 559.89 266.18 557.26 260.7 554.51 254.96 551.94 249.24 549.11 243.54 545.94 237.59 542.76 231.67 539.17 225.8 535.13 219.73 530.98 213.75 526.36 207.9 521.28 201.93 516.08 196.16 510.42 190.62 504.37 185.1 498.2 179.89 491.67 175.08 484.82 170.41 477.9 166.22 470.7 162.57 463.27 159.19 455.8 156.44 448.13 154.36 440.31 152.66 432.47 151.7 424.49 151.52 416.38 151.76 408.28 152.78 400.25 154.53 392.31 156.66 384.36 159.46 376.49 162.87 368.69 166.56 360.87 170.78 353.1 175.47 345.39 180.29 337.63 185.5 329.89 191.03 322.19 196.55 314.41 202.32 306.64 208.26 298.88 214.09 291.05 220.03 283.24 226.06 275.47 231.89 267.66 237.76 259.93 243.66 252.32 249.31 244.75 254.98 237.38 260.66 230.28 266.08 223.35 271.54 216.79 277.04 210.7 282.3 204.92 287.63 199.71 293.06 195.15 298.28 191 303.64 187.56 309.15 184.87 317.27 181.81 334.4 179.52 343.52 179.91 349.6 180.29 355.99 180.91 362.69 181.69 369.34 182.08 376.34 182.4 383.69 182.58 391.02 182.15 398.73 181.47 406.84 180.57" stroke-dasharray="6 7" transform="rotate(20.200000000000003, 400, 400)" opacity="0.23"></path><path d="M415.12 191.73C423 190.28 431.06 188.77 439.31 187.28 447.57 185.51 456.02 183.98 464.62 182.79 473.24 181.66 482.01 181.09 490.9 181.14 499.78 181.52 508.75 182.64 517.75 184.52 526.71 186.85 535.63 189.93 544.46 193.73 553.16 197.94 561.67 202.79 569.9 208.19 577.88 213.86 585.46 219.96 592.53 226.41 599.21 232.97 605.25 239.77 610.55 246.72 615.31 253.65 619.2 260.67 622.13 267.73 624.44 274.69 625.71 281.66 625.91 288.63 625.48 295.46 624 302.3 621.47 309.15 618.46 315.87 614.55 322.63 609.82 329.43 604.91 336.14 599.43 342.94 593.56 349.82 587.94 356.65 582.24 363.6 576.67 370.69 571.83 377.74 567.44 384.96 563.68 392.33 561.07 399.7 559.33 407.24 558.55 414.94 559.13 422.65 560.68 430.34 563.1 437.99 566.7 445.64 570.93 453.23 575.64 460.74 581.11 468.21 586.72 475.57 592.29 482.77 598.13 489.9 603.59 496.82 608.51 503.48 613.28 510.03 617.25 516.26 620.33 522.12 623.74 530.44 624.41 544.48 621.65 550.08 616.96 554.88 602.3 561.92 592.75 564.41 585.77 566.07 578.28 567.55 570.38 568.94 562.22 570.69 553.77 572.55 545.12 574.6 536.35 577.25 527.46 580.23 518.53 583.59 509.56 587.62 500.61 592.05 491.73 596.8 482.86 602.08 474.09 607.52 465.47 612.95 456.87 618.5 448.42 623.72 440.15 628.39 431.89 632.64 423.81 635.98 415.92 638.22 408.03 639.6 400.5 639.68 393.32 638.48 386.12 636.4 379.24 633.18 372.67 628.97 366.05 624.2 359.72 618.74 353.65 612.78 347.5 606.72 341.59 600.49 335.9 594.22 330.09 588.27 324.46 582.5 319 576.99 313.38 572.01 307.89 567.35 302.51 562.99 296.94 559.18 291.44 555.6 286 552.2 280.34 549.21 274.72 546.27 269.13 543.29 263.32 540.54 257.52 537.62 251.75 534.48 245.77 531.4 239.83 527.99 233.96 524.23 227.93 520.44 222 516.24 216.2 511.64 210.34 506.96 204.67 501.87 199.25 496.4 193.87 490.85 188.81 484.94 184.14 478.7 179.63 472.4 175.58 465.8 172.06 458.94 168.81 452.05 166.16 444.92 164.17 437.58 162.54 430.23 161.62 422.7 161.45 414.99 161.68 407.28 162.66 399.59 164.34 391.94 166.39 384.28 169.08 376.64 172.37 369.04 175.93 361.42 180 353.82 184.54 346.25 189.23 338.64 194.3 331.04 199.68 323.46 205.1 315.84 210.76 308.22 216.61 300.64 222.38 293.02 228.28 285.45 234.28 277.96 240.11 270.47 246.01 263.11 251.94 255.92 257.66 248.82 263.41 241.96 269.18 235.42 274.71 229.08 280.28 223.15 285.89 217.71 291.27 212.57 296.72 208 302.25 204.05 307.58 200.49 313.03 197.58 318.6 195.36 326.82 192.87 343.98 191.19 353.04 191.64 359.08 191.99 365.39 192.54 371.98 193.2 378.52 193.49 385.38 193.7 392.56 193.79 399.73 193.31 407.24 192.62 415.11 191.73" stroke-dasharray="12 12" transform="rotate(24.24, 400, 400)" opacity="0.87"></path><path d="M422.7 202.89C430.31 201.51 438.07 200.08 445.97 198.67 453.88 197 461.93 195.54 470.08 194.37 478.23 193.24 486.48 192.59 494.79 192.49 503.07 192.66 511.37 193.5 519.64 195.02 527.83 196.93 535.94 199.54 543.87 202.83 551.66 206.5 559.21 210.79 566.41 215.63 573.37 220.75 579.89 226.34 585.87 232.29 591.49 238.41 596.47 244.8 600.72 251.4 604.49 258.04 607.45 264.81 609.52 271.67 611.05 278.48 611.65 285.34 611.3 292.23 610.44 299.02 608.66 305.83 605.98 312.65 602.93 319.38 599.13 326.13 594.65 332.9 590.07 339.6 585.04 346.35 579.7 353.16 574.64 359.92 569.55 366.76 564.59 373.68 560.31 380.58 556.45 387.59 553.13 394.7 550.85 401.81 549.32 409.03 548.62 416.36 549.13 423.69 550.48 430.96 552.59 438.13 555.74 445.3 559.47 452.36 563.62 459.29 568.47 466.19 573.48 472.93 578.48 479.46 583.77 485.93 588.78 492.15 593.35 498.09 599.78 506.68 608.48 521.86 610.36 528.3 608.04 538.65 593.85 549.82 585.89 552.42 580 554.24 573.57 555.97 566.7 557.69 559.57 559.79 552.09 562.02 544.36 564.47 536.48 567.46 528.42 570.75 520.26 574.37 512.03 578.58 503.75 583.09 495.49 587.84 487.2 593.02 478.96 598.27 470.81 603.45 462.67 608.69 454.62 613.58 446.71 617.92 438.81 621.86 431.03 624.96 423.41 627.06 415.78 628.38 408.47 628.51 401.46 627.48 394.44 625.66 387.7 622.79 381.23 618.98 374.72 614.64 368.45 609.61 362.41 604.06 356.3 598.37 350.4 592.43 344.68 586.38 338.85 580.55 333.17 574.8 327.63 569.22 321.95 564.07 316.37 559.17 310.89 554.52 305.23 550.35 299.63 546.39 294.09 542.62 288.35 539.25 282.65 535.97 276.97 532.71 271.11 529.71 265.27 526.62 259.47 523.38 253.5 520.27 247.58 516.92 241.74 513.3 235.78 509.71 229.93 505.78 224.24 501.52 218.5 497.22 212.98 492.57 207.7 487.57 202.49 482.52 197.6 477.12 193.1 471.41 188.76 465.65 184.87 459.59 181.5 453.25 178.4 446.88 175.87 440.25 173.97 433.39 172.42 426.52 171.54 419.43 171.37 412.13 171.6 404.83 172.53 397.5 174.14 390.16 176.09 382.82 178.67 375.47 181.82 368.12 185.23 360.76 189.15 353.4 193.52 346.04 198.04 338.67 202.95 331.29 208.17 323.94 213.44 316.58 218.96 309.23 224.68 301.94 230.36 294.65 236.19 287.43 242.12 280.33 247.92 273.28 253.81 266.39 259.74 259.71 265.49 253.16 271.29 246.89 277.11 240.97 282.73 235.26 288.39 229.98 294.07 225.19 299.57 220.69 305.12 216.74 310.73 213.38 316.17 210.36 321.7 207.94 327.33 206.13 335.65 204.12 352.88 202.93 361.89 203.39 367.9 203.69 374.14 204.15 380.62 204.69 387.07 204.88 393.79 204.99 400.79 204.99 407.78 204.47 415.07 203.76 422.69 202.89" stroke-dasharray="6 5" transform="rotate(28.28, 400, 400)" opacity="0.14"></path><path d="M429.22 214.05C436.54 212.74 443.96 211.39 451.47 210.07 458.99 208.49 466.58 207.11 474.22 205.98 481.87 204.85 489.54 204.15 497.2 203.94 504.84 203.93 512.43 204.52 519.92 205.71 527.33 207.24 534.58 209.42 541.62 212.22 548.5 215.36 555.08 219.1 561.29 223.37 567.26 227.94 572.77 232.96 577.75 238.38 582.38 243.98 586.4 249.9 589.72 256.06 592.62 262.3 594.77 268.73 596.11 275.28 597.01 281.83 597.08 288.47 596.3 295.16 595.13 301.81 593.16 308.49 590.43 315.19 587.44 321.83 583.81 328.49 579.63 335.17 575.42 341.79 570.86 348.44 566.05 355.12 561.54 361.76 557.03 368.45 552.65 375.19 548.91 381.9 545.53 388.68 542.63 395.51 540.64 402.34 539.31 409.23 538.69 416.18 539.14 423.12 540.3 429.95 542.12 436.65 544.87 443.33 548.11 449.87 551.74 456.23 556.01 462.57 560.44 468.71 564.88 474.61 569.63 480.46 574.17 486.04 578.36 491.32 584.38 498.97 593.03 512.35 595.29 518.02 594.63 527.32 584.09 538.01 577.58 540.83 572.7 542.88 567.27 544.9 561.38 546.96 555.24 549.39 548.73 551.98 541.9 554.77 534.93 558.05 527.72 561.6 520.36 565.41 512.91 569.72 505.35 574.26 497.74 578.96 490.1 583.98 482.44 589.01 474.81 593.93 467.18 598.85 459.59 603.4 452.07 607.43 444.57 611.08 437.14 613.95 429.8 615.89 422.47 617.16 415.4 617.34 408.59 616.47 401.76 614.89 395.17 612.33 388.81 608.91 382.41 604.99 376.22 600.4 370.22 595.28 364.16 589.97 358.26 584.37 352.52 578.6 346.68 572.95 340.97 567.31 335.37 561.75 329.64 556.52 324 551.47 318.43 546.61 312.71 542.16 307.05 537.89 301.43 533.8 295.65 530.08 289.89 526.46 284.18 522.9 278.31 519.61 272.47 516.29 266.68 512.9 260.76 509.66 254.9 506.26 249.14 502.67 243.29 499.14 237.57 495.36 232.01 491.3 226.44 487.26 221.08 482.91 215.99 478.26 210.97 473.58 206.28 468.6 201.96 463.32 197.82 458.01 194.11 452.41 190.9 446.53 187.95 440.63 185.55 434.46 183.75 428.05 182.29 421.63 181.46 414.96 181.3 408.08 181.52 401.19 182.4 394.24 183.93 387.25 185.78 380.27 188.23 373.25 191.22 366.22 194.48 359.18 198.22 352.12 202.39 345.07 206.73 338.02 211.44 330.97 216.47 323.95 221.57 316.93 226.93 309.96 232.49 303.07 238.04 296.21 243.74 289.45 249.57 282.84 255.3 276.31 261.13 269.97 267.02 263.88 272.77 257.94 278.57 252.3 284.4 247.03 290.07 241.98 295.78 237.35 301.51 233.19 307.09 229.31 312.71 225.95 318.38 223.13 326.7 219.6 343.58 215.55 352.22 214.89 357.92 214.65 363.79 214.76 369.82 215.14 375.78 215.37 381.95 215.74 388.32 216.16 394.66 216.24 401.23 216.26 408.04 216.18 414.83 215.62 421.89 214.9 429.21 214.05" stroke-dasharray="4 12" transform="rotate(32.32, 400, 400)" opacity="0.70"></path><path d="M434.39 225.21C441.38 223.97 448.43 222.71 455.51 221.47 462.58 220 469.69 218.69 476.79 217.62 483.87 216.51 490.93 215.78 497.93 215.47 504.88 215.32 511.74 215.69 518.44 216.61 525.05 217.8 531.46 219.57 537.6 221.91 543.6 224.56 549.27 227.77 554.53 231.48 559.58 235.48 564.16 239.92 568.21 244.77 571.97 249.82 575.13 255.2 577.64 260.86 579.81 266.63 581.28 272.62 582.03 278.77 582.42 284.96 582.08 291.27 581.01 297.66 579.64 304.05 577.58 310.49 574.89 316.97 572.03 323.42 568.64 329.9 564.79 336.39 560.98 342.85 556.89 349.33 552.61 355.82 548.64 362.28 544.69 368.77 540.86 375.27 537.61 381.76 534.68 388.27 532.17 394.79 530.46 401.32 529.31 407.86 528.77 414.41 529.15 420.95 530.14 427.35 531.7 433.57 534.07 439.78 536.87 445.81 540 451.64 543.72 457.45 547.59 463.03 551.49 468.36 555.72 473.65 559.77 478.67 563.56 483.39 569.1 490.23 577.46 502.19 579.94 507.28 580.55 515.94 573.08 526.61 567.87 529.75 561.65 533.22 546.43 540.97 537.69 545.5 531.61 549.02 525.25 552.75 518.68 556.69 512.02 561.04 505.2 565.54 498.28 570.13 491.31 574.97 484.27 579.76 477.2 584.38 470.12 588.98 463.02 593.2 455.95 596.92 448.87 600.28 441.82 602.93 434.82 604.73 427.82 605.93 421.02 606.16 414.43 605.43 407.82 604.07 401.41 601.83 395.18 598.77 388.91 595.26 382.82 591.09 376.88 586.41 370.88 581.51 365.01 576.28 359.27 570.83 353.45 565.43 347.72 559.97 342.09 554.52 336.35 549.31 330.67 544.2 325.06 539.22 319.32 534.58 313.63 530.08 307.98 525.74 302.2 521.72 296.45 517.8 290.74 513.96 284.9 510.38 279.11 506.81 273.38 503.21 267.56 499.79 261.81 496.27 256.16 492.61 250.47 489.06 244.91 485.32 239.53 481.36 234.16 477.45 229.01 473.29 224.12 468.88 219.33 464.48 214.85 459.8 210.75 454.86 206.81 449.91 203.31 444.68 200.27 439.2 197.49 433.71 195.23 427.95 193.53 421.96 192.15 415.95 191.37 409.71 191.23 403.23 191.43 396.76 192.27 390.21 193.71 383.61 195.45 377.02 197.76 370.38 200.59 363.72 203.67 357.06 207.22 350.39 211.18 343.72 215.32 337.06 219.81 330.42 224.62 323.83 229.52 317.26 234.67 310.75 240.04 304.35 245.42 298 250.96 291.78 256.64 285.74 262.27 279.79 267.99 274.07 273.79 268.61 279.49 263.31 285.25 258.33 291.04 253.71 296.71 249.3 302.42 245.3 308.16 241.76 313.77 238.45 319.43 235.62 325.12 233.29 333.51 230.38 350.47 227.14 359.1 226.65 364.8 226.47 370.64 226.56 376.6 226.88 382.52 227.04 388.59 227.3 394.83 227.61 401.03 227.59 407.43 227.51 414.02 227.35 420.59 226.76 427.38 226.04 434.38 225.22" stroke-dasharray="5 6" transform="rotate(36.36, 400, 400)" opacity="0.42"></path><path d="M437.96 236.38C444.6 235.2 451.23 234.02 457.85 232.88 464.46 231.5 471.05 230.28 477.57 229.27 490.57 227.14 503.2 226.53 515.12 227.69 526.7 229.73 537.2 233.88 546.21 239.99 554.42 247.11 560.68 255.89 564.64 265.95 567.47 276.54 567.78 288 565.53 299.95 562.41 312.02 557.15 324.37 550.17 336.81 543.53 349.21 536.3 361.68 529.21 374.11 526.42 380.32 523.91 386.53 521.75 392.72 520.3 398.9 519.32 405.08 518.84 411.22 519.17 417.36 520.01 423.33 521.32 429.09 523.34 434.86 525.73 440.41 528.41 445.75 535.31 456.38 542.41 466.04 548.98 474.6 555.94 483.02 561.23 490.31 564.42 496.41 566.78 502.53 566.59 507.72 563.9 512.18 560.1 517.22 553.98 522.11 545.91 527.16 537.04 533.54 526.65 540.55 515.16 548.18 503.33 557.09 490.76 566.19 477.79 574.81 471.29 579.08 464.72 582.98 458.11 586.38 451.5 589.47 444.87 591.9 438.23 593.57 431.58 594.71 425.09 594.97 418.75 594.37 412.4 593.22 406.19 591.26 400.11 588.56 387.9 581.93 376.13 573.15 364.79 563.05 353.19 552.91 341.84 542.5 330.72 532.3 319.22 523.1 307.83 514.32 296.63 505.93 285.08 498.49 273.75 491.06 262.83 483.41 251.84 476.22 241.49 468.42 232.11 459.87 223.15 451.43 215.53 442.05 209.61 431.76 205.94 423.91 201.65 407.06 201.16 398.07 201.35 392.01 202.13 385.87 203.47 379.69 205.11 373.52 207.28 367.3 209.93 361.06 215.93 348.63 223.62 336.17 232.63 323.95 242.03 311.88 252.38 300.21 263.36 289.25 274.24 278.73 285.53 269.21 297.02 261.07 308.15 253.66 319.47 247.86 330.9 243.84 341.94 240.51 353.22 238.77 364.76 238.47 376.04 238.06 387.75 238.37 399.92 239.02 405.97 238.9 412.16 238.74 418.5 238.51 424.83 237.9 431.31 237.18 437.95 236.38" stroke-dasharray="4 9" transform="rotate(40.400000000000006, 400, 400)" opacity="0.71"></path><path d="M439.78 247.54C452.27 245.03 464.56 242.72 476.46 240.93 488.28 238.89 499.54 238.15 509.96 238.95 520.05 240.43 528.98 243.79 536.41 248.93 543.15 254.95 548.05 262.58 550.84 271.47 552.75 280.93 552.45 291.32 549.96 302.31 546.89 313.49 542.04 325.05 535.8 336.76 530.01 348.48 523.78 360.3 517.7 372.04 513.5 383.79 510.44 395.47 508.91 406.94 510.17 418.41 512.97 429.1 516.95 438.91 522.85 448.68 528.95 457.52 534.65 465.34 540.86 473.11 545.71 479.9 548.83 485.73 551.59 494.34 544.94 509.85 535.93 518.14 528.63 524.9 519.8 532.16 509.8 539.85 499.47 548.52 488.26 557.18 476.48 565.21 464.62 572.94 452.35 578.92 439.86 582.41 427.36 584.07 415.22 582.58 403.49 578.27 391.7 572.41 380.2 564.5 369.01 555.21 357.63 545.72 346.41 535.74 335.39 525.75 324.08 516.49 312.88 507.49 301.89 498.8 290.67 490.93 279.69 483.13 269.18 475.24 258.68 467.83 248.85 459.99 239.98 451.61 231.57 443.39 224.44 434.41 218.92 424.68 214.32 414.96 211.62 404.41 211.08 393.1 211.74 381.79 214.54 370.26 219.24 358.72 224.84 347.22 232.04 335.79 240.51 324.66 249.4 313.72 259.25 303.26 269.74 293.57 280.24 284.31 291.18 276.07 302.36 269.14 313.3 262.84 324.44 258 335.68 254.74 346.64 251.97 357.8 250.54 369.12 250.32 380.25 249.87 391.7 249.99 403.46 250.41 415.15 249.68 427.27 248.73 439.77 247.54" stroke-dasharray="6 11" transform="rotate(44.44, 400, 400)" opacity="0.43"></path><path d="M439.75 258.7C451.41 256.36 462.69 254.25 473.42 252.61 484.07 250.67 494.02 249.86 503.03 250.37 511.74 251.39 519.25 254.06 525.3 258.31 530.78 263.31 534.55 269.81 536.43 277.54 537.65 285.82 536.96 295.07 534.42 304.98 531.53 315.14 527.18 325.75 521.7 336.58 516.76 347.47 511.47 358.49 506.33 369.45 502.85 380.42 500.3 391.32 498.98 401.97 500.05 412.62 502.36 422.51 505.64 431.55 510.61 440.58 515.76 448.75 520.61 456.03 526.03 463.33 530.37 469.81 533.27 475.54 535.87 481.49 536.63 486.95 535.5 492.08 533.71 497.85 530.05 503.67 524.67 509.69 518.73 516.7 511.31 524.06 502.68 531.67 493.75 540 483.86 548.15 473.25 555.57 462.56 562.64 451.3 568.07 439.64 571.24 427.98 572.84 416.48 571.64 405.24 567.9 393.94 562.78 382.81 555.72 371.89 547.29 360.83 538.52 349.87 529.11 339.08 519.51 328.09 510.39 317.2 501.36 306.54 492.54 295.75 484.4 285.25 476.32 275.23 468.25 265.3 460.61 256.05 452.71 247.76 444.44 239.92 436.34 233.31 427.68 228.22 418.43 223.97 409.21 221.5 399.32 221.01 388.8 221.61 378.29 224.19 367.66 228.53 357.1 233.71 346.59 240.39 336.24 248.28 326.27 256.62 316.49 265.89 307.26 275.82 298.83 285.83 290.78 296.32 283.74 307.08 277.92 317.7 272.6 328.54 268.58 339.49 265.94 350.23 263.6 361.14 262.39 372.15 262.17 383.02 261.64 394.12 261.57 405.38 261.75 416.6 260.89 428.09 259.88 439.75 258.7" stroke-dasharray="11 13" transform="rotate(48.48, 400, 400)" opacity="0.91"></path><path d="M437.88 269.86C448.66 267.7 458.92 265.78 468.51 264.3 478.02 262.5 486.73 261.66 494.45 261.95 501.91 262.6 508.18 264.67 513.05 268.14 517.48 272.21 520.35 277.66 521.57 284.26 522.3 291.37 521.41 299.44 518.97 308.21 516.38 317.26 512.59 326.82 507.9 336.65 503.77 346.59 499.37 356.7 495.09 366.79 492.27 376.91 490.18 386.97 489.06 396.81 489.95 406.65 491.82 415.79 494.46 424.17 498.57 432.55 502.84 440.19 506.87 447.08 511.49 454.04 515.25 460.36 517.85 466.09 520.31 472.11 521.24 477.79 520.57 483.26 519.43 489.33 516.64 495.48 512.29 501.78 507.51 508.88 501.32 516.21 493.93 523.61 486.28 531.51 477.62 539.09 468.15 545.9 458.6 552.31 448.37 557.21 437.59 560.08 426.81 561.6 416.03 560.66 405.35 557.45 394.65 553.03 383.99 546.81 373.46 539.25 362.84 531.26 352.27 522.54 341.84 513.47 331.29 504.67 320.85 495.82 310.64 487.06 300.4 478.82 290.46 470.62 281.02 462.45 271.74 454.68 263.13 446.73 255.45 438.56 248.22 430.57 242.16 422.18 237.5 413.38 233.63 404.61 231.37 395.34 230.94 385.6 231.48 375.87 233.84 366.15 237.81 356.59 242.55 347.08 248.69 337.82 255.97 329.02 263.7 320.38 272.34 312.34 281.64 305.1 291.08 298.19 301.01 292.22 311.24 287.38 321.42 282.9 331.83 279.56 342.35 277.38 352.74 275.36 363.27 274.28 373.86 274 384.35 273.36 394.98 273.1 405.66 273.05 416.32 272.08 427.09 271.01 437.88 269.86" stroke-dasharray="2 0" transform="rotate(52.52, 400, 400)" opacity="0.94"></path><path d="M434.25 281.03C444.12 279.04 453.37 277.31 461.87 275.99 470.29 274.34 477.87 273.52 484.43 273.66 493.39 274.81 504.59 283.89 506.44 291.68 506.89 297.67 505.96 304.58 503.75 312.21 501.52 320.1 498.33 328.54 494.41 337.32 491.06 346.22 487.49 355.34 483.99 364.52 481.75 373.72 480.07 382.92 479.13 391.96 479.87 401 481.35 409.44 483.42 417.25 486.75 425.06 490.2 432.27 493.45 438.88 497.29 445.59 500.44 451.82 502.65 457.62 504.86 463.71 505.81 469.59 505.41 475.33 504.71 481.6 502.57 487.94 499.05 494.36 495.2 501.41 490.06 508.56 483.76 515.63 477.25 523.03 469.73 530 461.34 536.17 452.88 541.95 443.66 546.33 433.8 548.92 423.93 550.36 413.92 549.64 403.9 546.93 393.88 543.16 383.81 537.74 373.79 531.05 363.73 523.9 353.68 515.95 343.74 507.54 333.76 499.23 323.88 490.74 314.25 482.24 304.65 474.09 295.37 465.95 286.6 457.84 278.03 450.04 270.12 442.14 263.08 434.13 256.5 426.27 250.99 418.16 246.78 409.79 243.28 401.46 241.25 392.78 240.87 383.81 241.35 374.85 243.48 366.01 247.08 357.44 251.37 348.91 256.95 340.71 263.6 333.02 270.68 325.47 278.64 318.54 287.24 312.39 296.02 306.49 305.31 301.46 314.9 297.43 324.52 293.64 334.38 290.83 344.34 288.99 354.25 287.19 364.28 286.15 374.31 285.78 384.3 285.01 394.35 284.56 404.37 284.31 414.37 283.24 424.38 282.14 434.25 281.03" stroke-dasharray="13 7" transform="rotate(56.56, 400, 400)" opacity="0.32"></path><path d="M429.04 292.19C437.98 290.37 446.24 288.83 453.71 287.68 464.39 285.81 480.79 286.22 486.11 289.04 489.89 293.43 491.12 307.71 488.82 317.13 487.01 323.88 484.43 331.21 481.26 338.91 478.62 346.73 475.81 354.84 473.02 363.06 471.3 371.32 469.99 379.64 469.2 387.9 469.8 396.15 470.94 403.94 472.5 411.22 475.14 418.52 477.83 425.36 480.37 431.75 483.46 438.24 485.99 444.4 487.76 450.26 489.63 456.39 490.47 462.38 490.18 468.28 489.73 474.61 488.05 480.99 485.17 487.38 482.06 494.23 477.79 501.07 472.43 507.71 466.92 514.53 460.41 520.87 453.04 526.4 445.6 531.55 437.37 535.45 428.43 537.76 419.5 539.11 410.33 538.59 401.05 536.33 391.78 533.17 382.4 528.52 373.02 522.68 363.63 516.39 354.22 509.26 344.91 501.61 335.6 493.94 326.41 485.98 317.47 477.92 308.61 470.07 300.07 462.16 292.03 454.27 284.22 446.61 277.04 438.88 270.69 431.12 264.76 423.48 259.82 415.69 256.06 407.78 252.93 399.9 251.12 391.83 250.79 383.61 251.22 375.39 253.12 367.42 256.34 359.79 260.18 352.19 265.2 345 271.19 338.34 277.6 331.78 284.83 325.84 292.67 320.64 300.73 315.6 309.28 311.36 318.15 307.99 327.09 304.74 336.28 302.32 345.58 300.71 354.88 299.04 364.27 297.99 373.65 297.49 383.01 296.58 392.38 295.95 401.65 295.52 410.92 294.38 420.09 293.26 429.04 292.19" stroke-dasharray="1 7" transform="rotate(60.599999999999994, 400, 400)" opacity="0.29"></path><path d="M422.48 303.35C430.49 301.71 437.79 300.35 444.31 299.36 460.56 297.78 475.06 303.51 476.12 308.74 476.09 315.18 471.91 331.87 468.45 341.65 466.48 348.41 464.33 355.5 462.18 362.78 460.92 370.09 459.92 377.54 459.27 385.03 459.75 392.51 460.6 399.66 461.72 406.45 463.74 413.26 465.76 419.75 467.64 425.92 470.02 432.19 471.95 438.24 473.27 444.09 474.74 450.16 475.37 456.15 475.09 462.07 474.73 468.32 473.35 474.57 470.94 480.77 468.39 487.28 464.81 493.68 460.25 499.8 455.57 505.99 449.97 511.68 443.53 516.58 437.03 521.12 429.75 524.55 421.76 526.59 413.76 527.86 405.46 527.5 397 525.65 388.56 523.05 379.95 519.12 371.31 514.12 362.7 508.67 354.04 502.42 345.47 495.6 336.95 488.67 328.54 481.39 320.38 473.92 312.33 466.56 304.61 459.08 297.36 451.58 290.35 444.23 283.94 436.83 278.28 429.43 273.02 422.12 268.65 414.74 265.35 407.33 262.59 399.95 261 392.49 260.72 385.01 261.09 377.53 262.77 370.37 265.62 363.63 269 356.9 273.44 350.62 278.77 344.87 284.48 339.2 290.95 334.11 298 329.71 305.27 325.39 313.02 321.78 321.08 318.91 329.25 316.08 337.67 313.93 346.19 312.44 354.76 310.84 363.41 309.74 372.03 309.09 380.66 308.06 389.26 307.27 397.7 306.68 406.16 305.49 414.47 304.37 422.48 303.35" stroke-dasharray="3 8" transform="rotate(64.64, 400, 400)" opacity="0.87"></path><path d="M414.88 314.51C425.15 312.45 442.03 309.63 448.45 309.33 457.1 311.87 461.44 323.53 460.15 330.06 458.52 337.38 453.84 354.47 451.47 363.9 450.59 370.29 449.86 376.89 449.35 383.61 449.72 390.34 450.31 396.87 451.06 403.15 452.53 409.47 453.97 415.58 455.26 421.49 457 427.49 458.36 433.35 459.22 439.08 460.27 444.98 460.65 450.83 460.28 456.6 459.91 462.61 458.69 468.58 456.61 474.43 454.46 480.47 451.42 486.34 447.52 491.88 443.54 497.41 438.74 502.42 433.14 506.7 427.51 510.66 421.14 513.65 414.07 515.43 407 516.59 399.6 516.38 392.02 514.89 384.45 512.8 376.71 509.55 368.91 505.33 361.14 500.72 353.34 495.34 345.61 489.39 337.95 483.3 330.4 476.8 323.1 470.06 315.93 463.34 309.07 456.45 302.66 449.51 296.48 442.65 290.84 435.73 285.9 428.82 281.31 421.98 277.51 415.1 274.65 408.27 272.25 401.45 270.88 394.63 270.65 387.88 270.97 381.12 272.42 374.75 274.9 368.81 277.84 362.88 281.71 357.41 286.37 352.46 291.37 347.55 297.06 343.18 303.28 339.41 309.72 335.69 316.62 332.55 323.81 330.05 331.13 327.52 338.69 325.55 346.36 324.12 354.09 322.53 361.91 321.36 369.67 320.56 377.48 319.42 385.23 318.51 392.8 317.79 400.39 316.57 407.79 315.47 414.88 314.51" stroke-dasharray="0 0" transform="rotate(68.68, 400, 400)" opacity="0.84"></path><path d="M406.59 325.67C418.93 322.71 428.67 321.16 435.55 321.32 444.11 322.43 447.3 337.67 443.91 351 442.57 360.71 440.91 371.85 439.42 383.81 440.67 395.76 442.1 407.42 443.26 418.48 445.91 429.82 447 441 445.93 451.76 445.02 463.11 441.27 474.12 434.61 483.9 427.76 493.47 418.05 500.74 405.73 504.27 393.41 505.86 379.86 502.89 366.04 496.31 352.39 488.38 338.65 477.91 325.76 466.14 313.4 454.23 302.32 441.59 293.57 429 286.01 416.53 281.38 403.99 280.58 391.93 281.55 379.88 286.32 369.4 294.01 360.83 302.86 352.3 314.03 345.7 326.46 341.23 339.39 336.53 353.17 333.47 366.84 331.89 380.68 329.12 394.24 327.01 406.59 325.67" stroke-dasharray="6 10" transform="rotate(72.72, 400, 400)" opacity="0.23"></path><path d="M397.99 336.84C408.57 334.29 416.88 333.07 422.75 333.31 430.23 334.22 434.14 346.55 432.18 357.59 431.61 365.63 430.63 375.1 429.49 385.58 430.41 396.06 431.21 406.58 431.62 416.77 433.23 427.15 433.55 437.48 432.16 447.39 431.02 457.61 427.62 467.37 421.84 475.85 415.97 484.02 407.68 490.14 397.12 493.11 386.57 494.6 374.91 492.33 363 487.04 351.27 480.65 339.48 471.96 328.49 461.97 317.98 451.73 308.63 440.68 301.32 429.57 294.98 418.49 291.13 407.37 290.5 396.78 291.28 386.18 295.26 377.06 301.71 369.65 309.13 362.2 318.57 356.39 329.15 352.31 340.19 347.93 352.03 344.86 363.79 343.04 375.73 340.24 387.41 338.12 397.99 336.84" stroke-dasharray="8 5" transform="rotate(76.76, 400, 400)" opacity="0.78"></path><path d="M389.49 348C401.87 345.4 416.99 346.12 419.89 350.26 421.48 353.62 421.71 358.7 420.83 365.22 420.86 371.81 420.39 379.76 419.56 388.77 420.21 397.78 420.51 407.04 420.35 416.14 421.1 425.34 420.78 434.55 419.12 443.31 417.73 452.2 414.57 460.56 409.56 467.68 404.51 474.47 397.51 479.51 388.65 481.95 379.79 483.31 370.03 481.64 360.07 477.51 350.27 472.54 340.48 465.57 331.4 457.38 322.74 448.91 315.09 439.61 309.17 430.14 304.01 420.64 300.9 411.07 300.43 401.94 301.03 392.81 304.26 384.95 309.52 378.53 315.55 372.05 323.28 366.88 332.02 363.1 341.15 359.01 351 355.98 360.83 353.99 370.82 351.25 380.6 349.19 389.49 348" stroke-dasharray="5 2" transform="rotate(80.80000000000001, 400, 400)" opacity="0.41"></path><path d="M381.47 359.16C398.1 357.57 409.68 366.29 409.83 373.66 410.28 378.99 410.21 385.52 409.64 393.06 410.06 400.6 410 408.46 409.44 416.26 409.53 424.11 408.72 431.94 406.89 439.34 405.3 446.75 402.38 453.62 398.06 459.37 393.75 464.83 387.94 468.84 380.71 470.78 373.47 471.98 365.56 470.82 357.56 467.72 349.67 464.02 341.84 458.66 334.65 452.22 327.78 445.53 321.76 438.04 317.15 430.29 313.1 422.5 310.69 414.55 310.36 406.91 310.8 399.26 313.32 392.62 317.46 387.11 322.16 381.53 328.26 376.95 335.2 373.46 342.45 369.7 350.32 366.78 358.25 364.74 366.29 362.16 374.22 360.24 381.47 359.16" stroke-dasharray="3 2" transform="rotate(84.84, 400, 400)" opacity="0.29"></path><path d="M374.31 370.32C385.7 367.22 393.02 368.19 396.11 372.82 399.91 377.18 401.07 385.9 399.71 398.03 400.85 410.16 399.49 423.51 395.57 435.3 392.38 446.93 385.02 456.23 373.65 459.62 362.28 461.15 349.36 455.76 338.35 446.38 328.22 436.23 321.2 423.49 320.29 411.2 321.39 398.91 328.57 389.34 338.81 383.24 349.93 376.37 362.92 371.72 374.31 370.32" stroke-dasharray="11 13" transform="rotate(88.88, 400, 400)" opacity="0.50"></path><path d="M368.34 381.49C379.68 379.78 389.81 390.74 389.78 403.19 390.38 412.33 388.75 422.32 385.2 430.99 382.11 439.46 376.22 446.1 367.82 448.46 359.42 449.78 350.25 446.24 342.63 439.75 335.54 432.78 330.73 423.64 330.21 414.4 330.87 405.15 335.81 397.54 343 392.34 350.7 386.68 359.93 382.72 368.34 381.49" stroke-dasharray="4 9" transform="rotate(92.92, 400, 400)" opacity="0.26"></path><path d="M363.84 392.65C374.92 389.47 381.15 395.78 379.85 408.04 380.93 420.29 374.55 433.98 363.48 437.3 352.4 438.79 341.11 428.52 340.14 416.18 341.31 403.83 352.75 394.08 363.84 392.65" stroke-dasharray="6 1" transform="rotate(96.96, 400, 400)" opacity="0.22"></path></g></svg>