<svg xmlns="http://www.w3.org/2000/svg" version="1.1" xmlns:xlink="http://www.w3.org/1999/xlink" viewBox="0 0 700 700" style="overflow: hidden; display: block;" width="700" height="700"><defs><linearGradient id="two-3" x1="350" y1="-350" x2="350" y2="350" spreadMethod="pad" gradientUnits="userSpaceOnUse"><stop offset="0%" stop-color="hsl(238, 55%, 50%)" stop-opacity="1"></stop><stop offset="100%" stop-color="hsl(354, 55%, 24%)" stop-opacity="1"></stop></linearGradient></defs><g id="two-0" transform="matrix(1 0 0 1 0 0)" opacity="1"><path transform="matrix(1 0 0 1 350 350)" id="two-611" d="M 272.240333 35.101503 C 264.104976 44.234821 251.152933 53.823542 251.824821 66.036244 C 253.10034 89.220959 306.023538 98.852025 296.790202 120.157036 C 286.872701 143.040687 239.020335 107.06244 221.347862 124.660793 C 212.282365 133.688268 217.00359 150.694513 218.874927 163.350604 C 222.799399 189.892303 268.548857 223.108756 247.320075 239.516136 C 206.482343 271.078956 162.019435 120.626668 119.32559 149.629558 C 97.432563 164.501983 157.504331 209.749565 137.990629 227.629975 C 126.786573 237.896254 106.958964 204.626312 94.310576 213.049236 C 71.211783 228.431384 112.247738 283.199477 88.123654 296.917834 C 74.130606 304.875095 55.96971 286.403981 44.480714 275.128948 C 25.174012 256.1818 33.473798 200.539662 6.493469 202.490297 C -29.185544 205.069832 -5.318391 278.324204 -29.401305 304.775277 C -40.374909 316.827955 -59.944043 333.1849 -74.274554 325.418082 C -100.155278 311.391305 -84.252058 266.448166 -87.279588 237.166834 C -89.410747 216.554931 -72.941979 184.597529 -91.029018 174.485584 C -107.028236 165.540881 -124.530703 210.533418 -139.999192 200.699368 C -153.789336 191.932322 -141.019068 167.178013 -137.362478 151.251353 C -133.080933 132.602642 -102.721808 112.573382 -114.885776 97.803686 C -126.026409 84.276543 -156.748574 122.925761 -166.875373 108.623829 C -175.759263 96.07724 -137.537173 83.21032 -142.774481 68.756566 C -146.527274 58.39973 -165.660915 64.673378 -174.335104 57.883242 C -180.913006 52.734075 -181.45844 41.714952 -188.085897 36.629725 C -205.533196 23.242466 -249.523972 38.049372 -251.500979 16.146898 C -253.310772 -3.903092 -197.67642 7.435709 -197.745404 -12.695677 C -197.844525 -41.621785 -272.753367 -24.791439 -275.267183 -53.60828 C -276.505376 -67.802157 -254.89168 -76.305311 -241.149487 -80.067146 C -208.621387 -88.9715 -154.172061 -36.814529 -139.753408 -67.301695 C -124.229919 -100.124955 -202.030967 -111.209512 -219.634141 -142.965982 C -228.314937 -158.626309 -244.518872 -185.129165 -230.403312 -196.145199 C -203.813112 -216.896664 -168.195829 -167.468912 -138.157722 -152.127006 C -120.849707 -143.28697 -101.422573 -111.541834 -86.450923 -123.933899 C -57.356765 -148.015192 -126.775943 -195.48688 -121.49506 -232.883284 C -119.581937 -246.431004 -108.338638 -257.925886 -98.366628 -267.293905 C -89.182925 -275.921364 -77.41041 -290.413863 -65.408879 -286.575023 C -28.532145 -274.779536 -55.957415 -177.045966 -17.321678 -179.557308 C 12.179398 -181.474891 -16.483723 -249.547329 8.508888 -265.338466 C 17.98011 -271.32269 32.480299 -266.012564 42.070502 -260.220932 C 54.002254 -253.015211 53.208493 -226.548085 67.143606 -226.229091 C 105.216869 -225.357539 103.818676 -328.271307 139.825845 -315.869022 C 165.655044 -306.97243 122.445569 -252.86219 141.306056 -233.099121 C 150.985508 -222.956454 176.991809 -242.665705 183.702807 -230.356035 C 204.273749 -192.623712 89.951315 -146.929793 120.365289 -116.567283 C 158.51945 -78.477685 209.133111 -198.967239 262.97787 -196.265486 C 278.322199 -195.495558 300.618998 -184.954246 301.141057 -169.599484 C 302.856005 -119.159558 164.74709 -121.11278 182.015332 -73.689842 C 194.147125 -40.372885 268.488358 -104.505692 289.438109 -75.899611 C 297.745347 -64.556397 272.302786 -49.185034 275.747335 -35.553682 C 279.970481 -18.841141 314.446024 -17.232514 314.016523 -0.000001 C 313.567869 18.000939 284.217073 21.655581 272.240333 35.101503 Z " fill="url(#two-3)" stroke="undefined" stroke-width="1" stroke-opacity="1" fill-opacity="1" visibility="visible" stroke-linecap="butt" stroke-linejoin="miter" stroke-miterlimit="4"></path></g></svg>