<svg xmlns="http://www.w3.org/2000/svg" version="1.1" xmlns:xlink="http://www.w3.org/1999/xlink" viewBox="0 0 700 700" style="overflow: hidden; display: block;" width="700" height="700"><defs><linearGradient id="two-3" x1="350" y1="-350" x2="350" y2="350" spreadMethod="pad" gradientUnits="userSpaceOnUse"><stop offset="0%" stop-color="hsl(273, 55%, 50%)" stop-opacity="1"></stop><stop offset="100%" stop-color="hsl(211, 55%, 24%)" stop-opacity="1"></stop></linearGradient></defs><g id="two-0" transform="matrix(1 0 0 1 0 0)" opacity="1"><path transform="matrix(1 0 0 1 350 350)" id="two-469" d="M 201.577788 38.850934 C 195.943819 80.113134 304.428333 78.307671 298.605631 119.543662 C 295.233676 143.423631 242.785189 127.483104 231.674345 148.888061 C 217.826299 175.566214 274.201525 220.64445 249.772199 238.157311 C 207.297673 268.60639 158.612994 133.223576 112.883512 158.522712 C 89.008342 171.731284 129.340764 221.779685 110.134013 241.159851 C 98.251977 253.149169 74.155621 235.829748 59.028848 243.320225 C 38.27148 253.59886 36.964756 301.367778 14.162085 297.298766 C -25.230785 290.269324 -0.30502 213.407005 -26.310641 182.994524 C -33.915176 174.101341 -45.980779 164.014849 -57.492298 166.113084 C -114.559041 176.514787 -118.411601 319.647599 -172.603184 298.957482 C -203.920868 287.000523 -176.24482 230.501314 -171.035831 197.38587 C -166.5974 169.169146 -134.162564 140.722408 -145.737149 114.60896 C -151.653853 101.260269 -171.551954 99.080467 -185.773601 95.772947 C -228.400616 85.859208 -306.137503 135.502236 -318.373983 93.483036 C -330.712704 51.112747 -205.650916 63.863099 -206.810584 19.748016 C -207.61748 -10.947192 -289.525793 3.196248 -287.024486 -27.407516 C -284.613187 -56.910033 -210.033214 -30.871871 -203.341714 -59.706515 C -194.578028 -97.470508 -298.939107 -110.564484 -283.107727 -145.952178 C -269.675684 -175.976664 -207.506122 -121.835009 -183.448994 -144.265884 C -168.088129 -158.588361 -198.747377 -198.202347 -180.076436 -207.819286 C -147.058055 -224.826236 -116.57094 -127.675126 -85.110491 -147.415695 C -43.235575 -173.691058 -147.496802 -275.692678 -102.518059 -296.206477 C -70.813756 -310.666102 -65.754261 -212.528994 -31.369681 -218.180922 C 6.596861 -224.421632 -20.531474 -311.397441 15.479212 -324.948652 C 34.879044 -332.24902 59.365613 -314.474892 72.376211 -298.338808 C 92.203841 -273.748063 74.978119 -230.503291 93.62186 -205.003279 C 101.960381 -193.59825 116.448723 -184.576476 130.51792 -183.286774 C 165.428574 -180.086566 202.576152 -241.033061 230.341306 -219.629992 C 250.315145 -204.232942 228.104557 -168.293532 223.335547 -143.529042 C 219.337179 -122.766337 199.993647 -102.627081 205.094016 -82.107259 C 209.087331 -66.041338 228.485413 -57.968299 240.22939 -46.30042 C 255.80882 -30.821942 291.824579 -21.63148 288.032345 -0.000001 C 282.631282 30.808485 205.80929 7.860151 201.577788 38.850934 Z " fill="url(#two-3)" stroke="undefined" stroke-width="1" stroke-opacity="1" fill-opacity="1" visibility="visible" stroke-linecap="butt" stroke-linejoin="miter" stroke-miterlimit="4"></path></g></svg>