<svg xmlns="http://www.w3.org/2000/svg" version="1.1" xmlns:xlink="http://www.w3.org/1999/xlink" viewBox="0 0 700 700" style="overflow: hidden; display: block;" width="700" height="700"><defs><linearGradient id="two-3" x1="350" y1="-350" x2="350" y2="350" spreadMethod="pad" gradientUnits="userSpaceOnUse"><stop offset="0%" stop-color="hsl(206, 75%, 49%)" stop-opacity="1"></stop><stop offset="100%" stop-color="hsl(331, 90%, 56%)" stop-opacity="1"></stop></linearGradient></defs><g id="two-0" transform="matrix(1 0 0 1 0 0)" opacity="1"><path transform="matrix(1 0 0 1 350 350)" id="two-1125" d="M 202.814466 44.642839 C 202.137218 68.894118 227.698105 87.313052 237.081626 109.68564 C 249.56778 139.455654 291.040693 181.471126 266.866614 202.866726 C 224.652148 240.229218 154.462936 94.769584 111.671801 131.470208 C 66.956543 169.821091 212.99298 275.988685 160.702079 303.116277 C 106.259822 331.359955 103.235927 142.575095 43.998809 158.469388 C -10.372695 173.058157 56.658023 286.358349 17.73077 327.024816 C 0.559658 344.963108 -33.961644 353.207828 -56.043226 341.848552 C -86.463998 326.199403 -67.06361 260.714715 -98.528462 247.28779 C -127.884352 234.760817 -167.506184 302.698343 -189.64955 279.712158 C -229.266059 238.587768 -88.284782 162.197384 -125.592834 118.967851 C -151.940372 88.438469 -208.869122 165.985487 -244.508678 147.115989 C -262.41301 137.636473 -269.780081 109.73241 -266.393642 89.758468 C -261.565511 61.281113 -232.02468 41.500937 -209.98106 22.836816 C -190.910883 6.690281 -144.306312 9.230773 -144.831302 -15.751354 C -146.132012 -77.646809 -327.93224 -45.200238 -310.119615 -104.491465 C -294.78455 -155.535868 -189.465378 -54.808037 -149.277974 -89.817577 C -136.970939 -100.538937 -145.733575 -122.950371 -146.977997 -139.224954 C -149.812148 -176.29004 -200.51519 -229.515789 -169.263405 -249.644845 C -135.725409 -271.246433 -104.50189 -200.925938 -71.265549 -178.86304 C -56.272489 -168.91037 -41.277038 -143.572874 -24.676641 -150.520847 C 31.910408 -174.204935 -43.235568 -327.352132 17.970809 -331.452073 C 57.521671 -334.101409 34.464745 -248.815222 60.876247 -219.256429 C 71.6324 -207.218534 96.47944 -210.881466 104.321262 -196.770776 C 117.43058 -173.18168 76.020549 -131.057228 97.890129 -115.24517 C 132.687862 -90.085849 174.98171 -167.79708 217.866733 -165.617985 C 242.011719 -164.391119 263.015489 -145.277479 282.192921 -130.556349 C 302.639179 -114.861233 338.640062 -99.608845 336.02953 -73.965693 C 331.698293 -31.420132 258.833427 -31.23125 229.618817 -0.000001 C 217.880057 12.549068 203.294155 27.465893 202.814466 44.642839 Z " fill="url(#two-3)" stroke="undefined" stroke-width="1" stroke-opacity="1" fill-opacity="1" visibility="visible" stroke-linecap="butt" stroke-linejoin="miter" stroke-miterlimit="4"></path></g></svg>