<svg xmlns="http://www.w3.org/2000/svg" version="1.1" xmlns:xlink="http://www.w3.org/1999/xlink" xmlns:svgjs="http://svgjs.dev/svgjs" viewBox="0 0 800 800" opacity="0.56"><defs><linearGradient x1="50%" y1="0%" x2="50%" y2="100%" id="uundulate-grad"><stop stop-color="hsl(200, 100%, 58%)" stop-opacity="1" offset="45%"></stop><stop stop-color="hsl(270, 73%, 53%)" stop-opacity="1" offset="100%"></stop></linearGradient></defs><g stroke-width="6" stroke="url(#uundulate-grad)" fill="none"><path d="M2479.3179072301664 -840.25729370799C2732.425812626825 -217.14240350146952 2496.3197086958253 1423.937037097433 1615.8448793355938 1920.7619296754433C735.3700499753631 2417.5868222534546 -1493.8533683022783 2167.6170808729853 -1746.9612736989377 1544.5021906664647C-2000.069179095597 921.3873004599445 -479.5478959286047 -573.3646507378419 400.92693343162637 -1070.1895433158525C1281.4017627918574 -1567.0144358938628 2226.210001833507 -1463.3721839145105 2479.3179072301664 -840.25729370799C2732.425812626825 -217.14240350146952 2496.3197086958253 1423.937037097433 1615.8448793355938 1920.7619296754433 "></path><path d="M2437.7315741099765 -815.45206177426C2685.777321398704 -204.79946937186992 2454.3933395463227 1403.4583824150545 1591.5280067732956 1890.3467771415044C728.6626740002698 2377.2351718679547 -1455.9762759118187 2132.2648253150955 -1704.022023200545 1521.6122329127056C-1952.0677704892712 910.9596405103157 -461.9569129856186 -553.8972716635149 400.90841978740764 -1040.7856663899652C1263.7737525604343 -1527.6740611164153 2189.685826821251 -1426.10465417665 2437.7315741099765 -815.45206177426C2685.777321398704 -204.79946937186992 2454.3933395463227 1403.4583824150545 1591.5280067732956 1890.3467771415044 "></path><path d="M2396.1452104722093 -790.6469519108424C2639.1287996530027 -192.45665731258282 2412.466939879242 1382.9796056623636 1567.2111036934202 1859.931502537254C721.9552675075984 2336.8833994121437 -1418.0992140389371 2096.9124476868938 -1661.0828032197303 1498.722153088634C-1904.0663924005232 900.5318584903744 -444.3659605602106 -534.4300146595001 400.88987562561124 -1011.3819115343902C1246.145711811433 -1488.3338084092802 2153.161621291416 -1388.837246509102 2396.1452104722093 -790.6469519108424C2639.1287996530027 -192.45665731258282 2412.466939879242 1382.9796056623636 1567.2111036934202 1859.931502537254 "></path><path d="M2354.558785799287 -765.8417504946904C2592.4802168721462 -180.11375370056112 2370.540479177005 1362.5009204624075 1542.8941395783877 1829.5163194857373C715.2477999797707 2296.531718509067 -1380.222213201212 2061.5601616114263 -1618.143644274072 1475.8321648172973C-1856.0650753469317 890.1041680231679 -426.77506916995867 -514.962666102751 400.8712704286586 -981.978065126081C1228.5176100272752 -1448.9934641494108 2116.6373547264266 -1351.5697472888196 2354.558785799287 -765.8417504946904C2592.4802168721462 -180.11375370056112 2370.540479177005 1362.5009204624075 1542.8941395783877 1829.5163194857373 "></path><path d="M2312.972422161519 -741.036701666429C2545.831695126445 -167.77100267643027 2328.6140795099236 1342.0220826745604 1518.5772364985119 1799.1009838463297C708.5403934870997 2256.1798850180994 -1342.3451513283305 2026.2077229480683 -1575.204424293257 1452.9420239580695C-1808.0636972581838 879.6763249680707 -409.1841167445507 -495.4954701338927 400.8527262668613 -952.5743713056623C1210.889569278274 -1409.653272477432 2080.113149196592 -1314.3024006564278 2312.972422161519 -741.036701666429C2545.831695126445 -167.77100267643027 2328.6140795099236 1342.0220826745604 1518.5772364985119 1799.1009838463297 "></path><path d="M2271.38608904133 -716.231469732699C2499.183203898323 -155.42806854683067 2286.687710360422 1321.543427992182 1494.2603639362142 1768.6858313123912C701.8330175120063 2215.828234632601 -1304.4680589378709 1990.8554673901785 -1532.2651737948643 1430.0520662043104C-1760.0622886518577 869.2486650184424 -391.5931338015646 -476.02809105956567 400.83421262264346 -923.1704943797749C1193.2615590468513 -1370.3128976999844 2043.5889741843357 -1277.0348709185673 2271.38608904133 -716.231469732699C2499.183203898323 -155.42806854683067 2286.687710360422 1321.543427992182 1494.2603639362142 1768.6858313123912 "></path><path d="M2229.7997559211403 -691.4264209044375C2452.5347126702 -143.0853175226996 2244.7613412109195 1301.0645902043348 1469.9434913739165 1738.270495672984C695.125641536913 2175.4764011416332 -1266.5909665474112 1955.503028726821 -1489.3259232964715 1407.1619253450826C-1712.0608800455318 858.8208219633452 -374.00215085857826 -456.56089509070716 400.81569897842473 -893.7668005593564C1175.6335488154282 -1330.9727060280056 2007.0647991720798 -1239.7675242861756 2229.7997559211403 -691.4264209044375C2452.5347126702 -143.0853175226996 2244.7613412109195 1301.0645902043348 1469.9434913739165 1738.270495672984 "></path><path d="M2188.2133922833727 -666.6212500058637C2405.8861909245006 -130.74244442825602 2202.834941543839 1280.5858744868 1445.6265882940402 1707.8552821038893C688.4182350442416 2135.1246897209785 -1228.7139046745297 1920.150712133775 -1446.3867033156569 1384.2719065561673C-1664.0595019567838 848.3931009785601 -356.4111984331703 -437.09357705153616 400.79715481662834 -864.3629846686252C1158.005508066427 -1291.6323922857143 1970.5405936422458 -1202.5000555834713 2188.2133922833727 -666.6212500058637C2405.8861909245006 -130.74244442825602 2202.834941543839 1280.5858744868 1445.6265882940402 1707.8552821038893 "></path><path d="M2146.6270591631837 -641.8159875545555C2359.2376996963776 -118.3994797810783 2160.9085723943367 1260.1072503219998 1421.3097157317425 1677.4401600875285C681.7108590691487 2094.773069853057 -1190.83681228407 1884.7984870934638 -1403.447452817264 1361.3819793199864C-1616.0580933504577 837.9654715465094 -338.8202154901842 -417.626167459631 400.77864117241006 -834.9590772251597C1140.3774978350039 -1252.2919869906887 1934.0164186299894 -1165.2324953280327 2146.6270591631837 -641.8159875545555C2359.2376996963776 -118.3994797810783 2160.9085723943367 1260.1072503219998 1421.3097157317425 1677.4401600875285 "></path><path d="M2105.0407260429943 -617.0109692438723C2312.589208468255 -106.05675927452558 2118.982203244834 1239.6283820165745 1396.9928431694448 1647.0247939305432C675.0034830940554 2054.421205844512 -1152.9597198936103 1849.4460179125272 -1360.508202318871 1338.491807943181C-1568.0566847441319 827.5375979738337 -321.22923254719785 -398.15900200835085 400.76012752819133 -805.5554139223193C1122.7494876035807 -1212.951825836288 1897.4922436177335 -1127.965179213219 2105.0407260429943 -617.0109692438723C2312.589208468255 -106.05675927452558 2118.982203244834 1239.6283820165745 1396.9928431694448 1647.0247939305432 "></path><path d="M2063.454392922805 -592.2057678277201C2265.9407172401325 -93.71385566250387 2077.0558340953316 1219.149696816618 1372.6759706071466 1616.6096108790266C668.296107118962 2014.0695249414348 -1115.082627503151 1814.0937318370602 -1317.5689518204783 1315.6018196718437C-1520.0552761378058 817.1099075066277 -303.63824960421175 -378.6916534516016 400.7416138839726 -776.15156751401C1105.1214773721576 -1173.6114815764186 1860.9680686054776 -1090.6976799929364 2063.454392922805 -592.2057678277201C2265.9407172401325 -93.71385566250387 2077.0558340953316 1219.149696816618 1372.6759706071466 1616.6096108790266 "></path><path d="M2021.8679377323033 -567.4006579643026C2219.2921039416974 -81.37104360321655 2035.129342875517 1198.6709200639275 1348.3589759745364 1586.1943362747757C661.5886090735567 1973.7177524856238 -1077.2056571830037 1778.741354208858 -1274.629823392398 1292.7117398477722C-1472.0539896017924 806.6821254866863 -286.04738873153815 -359.22439644758697 400.72297816944183 -746.7478126584351C1087.493345070422 -1134.2712288692833 1824.4437715229087 -1053.4302723253884 2021.8679377323033 -567.4006579643026C2219.2921039416974 -81.37104360321655 2035.129342875517 1198.6709200639275 1348.3589759745364 1586.1943362747757 "></path><path d="M1980.2816046121138 -542.5954870657288C2172.643612713575 -69.0281705087732 1993.202973726014 1178.1922043463928 1324.0421034122387 1555.7791227056805C654.8812330984629 1933.3660410649686 -1039.328564792544 1743.3890376158124 -1231.690572894005 1269.8217210588568C-1424.0525809954663 796.2544045019013 -268.4564057885518 -339.7570784084161 400.70446452522333 -717.3439967677041C1069.865334838999 -1094.930915126992 1787.9195965106528 -1016.1628036226841 1980.2816046121138 -542.5954870657288C2172.643612713575 -69.0281705087732 1993.202973726014 1178.1922043463928 1324.0421034122387 1555.7791227056805 "></path><path d="M1938.6952409743467 -517.7902551319986C2125.9950909678746 -56.6852363791736 1951.2765740589339 1157.7135496640144 1299.7252003323629 1525.3639701717425C648.1738266057919 1893.0143906794701 -1001.4515029196625 1708.0367820579231 -1188.7513529131904 1246.9317633050978C-1376.0512029067186 785.8267445522729 -250.86545336314407 -320.28969933408894 400.68592036342693 -687.9401198418167C1052.2372940899977 -1055.5905403495444 1751.3953909808188 -978.8952738848236 1938.6952409743467 -517.7902551319986C2125.9950909678746 -56.6852363791736 1951.2765740589339 1157.7135496640144 1299.7252003323629 1525.3639701717425 "></path><path d="M1897.1089078541572 -492.9852063037372C2079.346599739752 -44.34248535504253 1909.3502049094313 1137.2347118761677 1275.4083277700652 1494.9486345323353C641.466450630699 1852.662557188503 -963.5744105292029 1672.684343394565 -1145.8121024147977 1224.0416224458704C-1328.0497943003925 775.3989014971755 -233.27447042015797 -300.82250336523055 400.66740671920843 -658.536426021398C1034.6092838585746 -1016.2503486775656 1714.8712159685624 -941.6279272524318 1897.1089078541572 -492.9852063037372C2079.346599739752 -44.34248535504253 1909.3502049094313 1137.2347118761677 1275.4083277700652 1494.9486345323353 "></path><path d="M1855.5224831812338 -468.17997437000713C2032.698016958895 -31.999551225443156 1867.4237442071944 1116.7560571937888 1251.091363655033 1464.5334819983964C634.7589831028713 1812.3109068030035 -925.6974096914777 1637.3320878366753 -1102.8729434691393 1201.1516646921114C-1280.0484772468008 764.9712415475469 -215.683579029906 -281.3551242909034 400.64880152225555 -629.1325490955107C1016.9811820744171 -976.9099739001181 1678.3469494035721 -904.3603975145713 1855.5224831812338 -468.17997437000713C2032.698016958895 -31.999551225443156 1867.4237442071944 1116.7560571937888 1251.091363655033 1464.5334819983964 "></path><path d="M1813.9362416137787 -443.3748950241677C1986.049617283507 -19.656769683733728 1825.4974666104263 1096.2772499235198 1226.7745826454693 1434.1181768765673C628.0516986805123 1771.959103829614 -887.8202257482836 1601.9796796908954 -1059.9336014180121 1178.2615543504617C-1232.0469770877405 754.5434290100277 -198.09250453418554 -261.8878978044669 400.6303794307714 -599.7288247575141C999.3532633957284 -937.5697517105611 1641.8228659440506 -867.0930203646014 1813.9362416137787 -443.3748950241677C1986.049617283507 -19.656769683733728 1825.4974666104263 1096.2772499235198 1226.7745826454693 1434.1181768765673 "></path><path d="M1772.3499084935893 -418.56981567832804C1939.4011260553848 -7.313988142024755 1783.5710974609237 1075.7984426532512 1202.4577100831716 1403.7028717547382C621.3443227054192 1731.6073008562248 -849.9431333578241 1566.6272715451155 -1016.9943509196193 1155.371444008812C-1184.0455684814144 744.1156164725087 -180.50152159119943 -242.42067131803037 400.61186578655315 -570.3251004195173C981.7252531643053 -898.2295295210042 1605.2986909317942 -829.8256432146316 1772.3499084935893 -418.56981567832804C1939.4011260553848 -7.313988142024755 1783.5710974609237 1075.7984426532512 1202.4577100831716 1403.7028717547382 "></path><path d="M1730.7634533030878 -393.7646142621761C1892.7525127569497 5.028915469996946 1741.6446062411092 1055.319757453295 1178.1407154505614 1373.2876887032216C614.6368246600136 1691.2556199531482 -812.0661630376769 1531.274985469648 -974.0552224915389 1132.4814557374752C-1136.0442819454008 733.687926005302 -162.91066071852583 -222.95332276128124 400.5932300720219 -540.921254011208C964.0971208625697 -858.8891852611348 1568.7743938492258 -792.5581439943492 1730.7634533030878 -393.7646142621761C1892.7525127569497 5.028915469996946 1741.6446062411092 1055.319757453295 1178.1407154505614 1373.2876887032216 "></path><path d="M1689.1770896653202 -368.95959595149293C1846.103991011249 17.37163597654967 1699.7182065740285 1034.8408891478693 1153.8238123706851 1342.8723225462354C607.9294181673422 1650.9037559446024 -774.1891011647954 1495.9225162887114 -931.1160025107242 1109.5912843606689C-1088.042903856653 723.2600524326263 -145.31970829311786 -203.4861573100011 400.5746859102255 -511.5175907083676C946.4690801135689 -819.5490241067341 1532.2501883193913 -755.2908278795355 1689.1770896653202 -368.95959595149293C1846.103991011249 17.37163597654967 1699.7182065740285 1034.8408891478693 1153.8238123706851 1342.8723225462354 "></path><path d="M1647.5907565451312 -344.1543945353409C1799.455499783127 29.71453958857137 1657.791837424526 1014.3622039479128 1129.5069398083879 1312.4571394947188C601.2220421922489 1610.5520750415253 -736.3120087743357 1460.570230213244 -888.1767520123315 1086.7012960893317C-1040.041495250327 712.8323619654198 -127.72872535013153 -184.01880875325196 400.556172266007 -482.11374430005833C928.8410698821453 -780.2086798468646 1495.7260133071354 -718.0233286592531 1647.5907565451312 -344.1543945353409C1799.455499783127 29.71453958857137 1657.791837424526 1014.3622039479128 1129.5069398083879 1312.4571394947188 "></path><path d="M1606.0043013546292 -319.3492846719232C1752.8068864846919 42.05735164785847 1615.865346204711 993.8834271952221 1105.1899451757772 1282.0418648904683C594.5145441468433 1570.2003025857143 -698.4350384541887 1425.2178525850422 -845.2376235842511 1063.8112162652606C-992.0402087143135 702.4045799454786 -110.13786447745792 -164.55155174923743 400.537536551476 -452.7099894444834C911.2129375804097 -740.8684271397295 1459.2017162245666 -680.7559209917051 1606.0043013546292 -319.3492846719232C1752.8068864846919 42.05735164785847 1615.865346204711 993.8834271952221 1105.1899451757772 1282.0418648904683 "></path><path d="M1564.4180903047527 -294.5440832557713C1706.1585173268818 54.400255259880055 1573.939099125521 973.4047419952656 1080.873194683792 1251.6266818389513C587.8072902420624 1529.8486216826373 -660.5578239934165 1389.8655665095748 -802.2982510155457 1040.9212279939234C-944.038678037675 691.9768894782719 -92.5467594641591 -145.0842031924883 400.51914497757 -423.30614303617426C893.5850494192991 -701.5280828798601 1422.6776632826231 -643.4884217714227 1564.4180903047527 -294.5440832557713C1706.1585173268818 54.400255259880055 1573.939099125521 973.4047419952656 1080.873194683792 1251.6266818389513 "></path><path d="M1522.8316351142507 -269.73888183961935C1659.5099040284467 66.74315887190164 1532.0126079057063 952.9260567953093 1056.5562000511818 1221.2114987874347C581.0997921966568 1489.4969407795606 -622.6808536732694 1354.5132804341074 -759.3591225874654 1018.0312397225862C-896.0373915016614 681.5491990110652 -74.9558985914855 -125.61685463573929 400.50050926303925 -393.902296627865C875.9569171175638 -662.1877386199907 1386.1533662000547 -606.2209225511403 1522.8316351142507 -269.73888183961935C1659.5099040284467 66.74315887190164 1532.0126079057063 952.9260567953093 1056.5562000511818 1221.2114987874347 "></path><path d="M1481.2452714764831 -244.93383301135793C1612.861382282746 79.0859098960326 1490.0862082386257 932.4472190074621 1032.2392969713055 1190.7961631480275C574.3923857039854 1449.145107288593 -584.8037918003879 1319.1608417707494 -716.4199026066508 995.1410988633586C-848.0360134129137 671.1213559559678 -57.36494616607763 -106.1496586668809 400.4819651012424 -364.49860280744633C858.3288763685625 -622.8475469480118 1349.6291606702202 -568.9535759187486 1481.2452714764831 -244.93383301135793C1612.861382282746 79.0859098960326 1490.0862082386257 932.4472190074621 1032.2392969713055 1190.7961631480275 "></path><path d="M1439.6589688738723 -220.1286315952059C1566.2129215722016 91.4288135080543 1448.1598696067017 911.9685338075055 1007.9224549265859 1160.3809800965107C567.6850402464706 1408.7934263855163 -546.9266688923501 1283.808555695282 -673.4806215906798 972.2511105920214C-800.0345742890095 660.6936654887613 -39.77393270551329 -86.68231011013188 400.46348197460225 -335.09475639913717C840.7008966547178 -583.5072026881423 1313.1050161755425 -531.6860766984662 1439.6589688738723 -220.1286315952059C1566.2129215722016 91.4288135080543 1448.1598696067017 911.9685338075055 1007.9224549265859 1160.3809800965107 "></path><path d="M1398.0726357536828 -195.32355224936646C1519.5644303440795 103.77159504976328 1406.2335004571992 891.4897265372365 983.6055823642882 1129.9656749746816C560.9776642713773 1368.4416234121263 -509.0495765018905 1248.4561475495016 -630.541371092287 949.3610002503717C-752.0331656826835 650.2658529512419 -22.182949762527187 -67.21508362369536 400.44496833038374 -305.6910320611404C823.0728864232947 -544.1669804985854 1276.580841163286 -494.41869954849625 1398.0726357536828 -195.32355224936646C1519.5644303440795 103.77159504976328 1406.2335004571992 891.4897265372365 983.6055823642882 1129.9656749746816 "></path><path d="M1356.4862721159157 -170.51835083321453C1472.9159085983788 116.11449866178486 1364.307100790118 871.0110413372802 959.2886792844122 1099.5504919231648C554.2702577787061 1328.0899425090497 -471.172514629009 1213.1038614740341 -587.6021511114723 926.4710119790348C-704.0317875939356 639.8381624840354 -4.591997337119096 -47.74773506694635 400.4264241685869 -276.2871856528311C805.4448456742932 -504.826636238716 1240.056635633452 -457.15120032821386 1356.4862721159157 -170.51835083321453C1472.9159085983788 116.11449866178486 1364.307100790118 871.0110413372802 959.2886792844122 1099.5504919231648 "></path><path d="M1314.8999389957262 -145.71314941706248C1426.2674173702562 128.45740227380645 1322.380731640616 850.5323561373236 934.9718067221145 1069.1353088716482C547.5628818036128 1287.7382616059729 -433.29542223854935 1177.7515753985667 -544.6629006130795 903.5810237076976C-656.0303789876095 629.4104720168289 12.99898560586712 -28.28038651019733 400.4079105243686 -246.88333924452195C787.8168354428703 -465.48629197884657 1203.5324606211962 -419.8837011079315 1314.8999389957262 -145.71314941706248C1426.2674173702562 128.45740227380645 1322.380731640616 850.5323561373236 934.9718067221145 1069.1353088716482 "></path><path d="M1273.313544840381 -120.90807007122305C1379.6188651069779 140.80018381551554 1280.4543014559576 830.0535488670546 910.6548731246603 1038.720003749819C540.8554447933634 1247.3864586325833 -395.41839088324593 1142.3991672527866 -501.7237111498429 880.6909133660479C-608.0290314164399 618.9826594793094 30.58990751369697 -8.813160023760815 400.3893358449941 -217.47961490652517C770.188764176291 -426.1460697892896 1167.0082245737838 -382.6163239579616 1273.313544840381 -120.90807007122305C1379.6188651069779 140.80018381551554 1280.4543014559576 830.0535488670546 910.6548731246603 1038.720003749819 "></path><path d="M1231.7271812026133 -96.10289917264913C1332.9703433612772 153.143056909959 1238.527901788877 809.5748331495199 886.3379700447842 1008.3047901807242C534.148038300692 1207.0347472119283 -357.5413290103645 1107.046850659741 -458.78449116902823 857.8008945771328C-560.027653327692 608.5549384945248 48.18085993910506 10.654158015410076 400.37079168319724 -188.07579901579408C752.5607234272898 -386.8057560469983 1130.4840190439497 -345.3488552552573 1231.7271812026133 -96.10289917264913C1332.9703433612772 153.143056909959 1238.527901788877 809.5748331495199 886.3379700447842 1008.3047901807242 "></path><path d="M1190.1408786000022 -71.29778930923158C1286.3218826507327 165.4858689692462 1196.6015631569524 789.0960563968292 862.0211280000647 977.8895155764731C527.4406928431767 1166.6829747561171 -319.6642061023267 1071.694473031539 -415.8452101530573 834.9108147530612C-512.0262142037878 598.1271564745834 65.7718733996694 30.12141501942483 400.3523085565571 -158.67204416021923C734.9327437134448 -347.4655033398632 1093.9598745492717 -308.08144758770925 1190.1408786000022 -71.29778930923158C1286.3218826507327 165.4858689692462 1196.6015631569524 789.0960563968292 862.0211280000647 977.8895155764731 "></path><path d="M1148.5544539270786 -46.49258789307953C1239.673299869876 177.8287725812678 1154.6751024547157 768.6173711968729 837.7041638850326 947.4743325249567C520.7332253153495 1126.3312938530405 -281.7872052646014 1036.3421869560716 -372.90605120739883 812.0208264817243C-464.02489715019624 587.6994660073769 83.36276478992102 49.58876357617373 400.3337033596042 -129.26819775190995C717.3046419292873 -308.12515907999375 1057.4356079842812 -270.81394836742686 1148.5544539270786 -46.49258789307953C1239.673299869876 177.8287725812678 1154.6751024547157 768.6173711968729 837.7041638850326 947.4743325249567 "></path><path d="M1106.9681208068894 -21.687416994505725C1193.0248086417535 190.17164567571126 1112.7487333052131 748.138655479338 813.3872913227347 917.0591189558618C514.0258493402562 1085.979582432385 -243.91011287414182 1000.9898703630258 -329.966800709006 789.130807692809C-416.0234885438702 577.2717450225919 100.95374773290723 69.05608161534474 400.3151897153857 -99.86438186117891C699.6766316978642 -268.78484533770245 1020.9114329720253 -233.5464796647226 1106.9681208068894 -21.687416994505725C1193.0248086417535 190.17164567571126 1112.7487333052131 748.138655479338 813.3872913227347 917.0591189558618 "></path><path d="M1065.3817266515439 3.11766235133382C1146.3762563784749 202.51442721742035 1070.8223031205546 727.6598482090694 789.0703577252807 886.6438138340327C507.3184123300068 1045.627779458996 -206.03308151883846 965.6374622172459 -287.02761124576944 766.2406973511595C-368.02214097270047 566.8439324850729 118.54466964073708 88.52330810178125 400.29661503601096 -70.46065752318214C682.0485604312848 -229.44462314814552 984.3871969246129 -196.2791025147527 1065.3817266515439 3.11766235133382C1146.3762563784749 202.51442721742035 1070.8223031205546 727.6598482090694 789.0703577252807 886.6438138340327 "></path><path d="M1023.7953630137765 27.9228027323295C1099.7277346327744 214.85726979428568 1028.895903453474 707.1811019739564 764.7534546454049 856.2285697473594C500.61100583733537 1005.2760375207627 -168.15601964595692 930.285115106622 -244.08839126495474 743.3506480446658C-320.02076288395256 556.4161809827099 136.13562206614517 107.99059562337402 400.27807087421445 -41.056872150029164C664.4205196822836 -190.1043399234323 947.8629913947786 -159.01166432962657 1023.7953630137765 27.9228027323295C1099.7277346327744 214.85726979428568 1028.895903453474 707.1811019739564 764.7534546454049 856.2285697473594 "></path><path d="M982.2090298935873 52.727943113325296C1053.0792434046518 227.2001123711509 986.9695343039714 686.7023557388438 740.4365820831069 825.8133256606866C493.90362986224227 964.9242955825296 -130.2789272554973 894.9327679959983 -201.14914076656197 720.4605987381726C-272.0193542776266 545.9884294803469 153.7266050091314 127.45788314496679 400.25955722999595 -11.653086776876194C646.7925094508605 -150.76405669871912 911.3388163825225 -121.74422614450043 982.2090298935873 52.727943113325296C1053.0792434046518 227.2001123711509 986.9695343039714 686.7023557388438 740.4365820831069 825.8133256606866 "></path><path d="M940.6226662558197 77.53314452947728C1006.4307216589511 239.5430159831726 945.043134636891 666.2236705388873 716.1196790032309 795.39814260917C487.1962233695708 924.5726146794527 -92.40186538261582 859.5804819205309 -158.20992078574727 697.5706104668357C-224.01797618887872 535.5607390131402 171.31755743453937 146.9252317017158 400.2410130681993 17.750759631433084C629.1644687018593 -111.42371243884963 874.8146108526882 -84.47672692421804 940.6226662558197 77.53314452947728C1006.4307216589511 239.5430159831726 945.043134636891 666.2236705388873 716.1196790032309 795.39814260917 "></path><path d="M899.0363026180523 102.33828491047302C959.7821999132507 251.88585856003783 903.1167349698105 645.7449243037745 691.8027759233551 764.9828985224972C480.4888168768996 884.2208727412194 -54.524803509734284 824.228134809907 -115.27070080493257 674.6805611603422C-176.0165981001308 525.1329875107772 188.90850985994734 166.39251922330857 400.2224689064028 47.154545004586055C611.5364279528583 -72.08342921413646 838.290405322854 -47.2092887390919 899.0363026180523 102.33828491047302C959.7821999132507 251.88585856003783 903.1167349698105 645.7449243037745 691.8027759233551 764.9828985224972 "></path><path d="M857.4499084627068 127.14342529146876C913.1336476499719 264.2287011369033 861.1903047851517 625.2661780686618 667.4858423259011 734.5676544358241C473.7813798666501 843.8691308029865 -16.647772154430925 788.8757876992834 -72.331511341696 651.7905118538488C-128.01525052896108 514.7052360084144 206.4994317677773 185.85980674490133 400.20389422702806 76.55833037773903C593.9083566862789 -32.74314598942328 801.7661692754418 -9.941850553965764 857.4499084627068 127.14342529146876C913.1336476499719 264.2287011369033 861.1903047851517 625.2661780686618 667.4858423259011 734.5676544358241 "></path><path d="M815.8635753425176 151.9485656724645C866.4851564218495 276.5715437137685 819.2639356356494 604.787431833549 643.1689697636031 704.1524103491511C467.0740038915569 803.5173888647532 21.229320236028684 753.5234405886595 -29.392260843303177 628.9004625473555C-80.01384192263504 504.27748450605145 224.09041471076353 205.3270942664941 400.18538058280956 105.96211575089205C576.2803464548558 6.5971372352898925 765.2419942631859 27.32558763116043 815.8635753425176 151.9485656724645C866.4851564218495 276.5715437137685 819.2639356356494 604.787431833549 643.1689697636031 704.1524103491511 "></path><path d="M774.2772117047502 176.75370605346023C819.8366346761491 288.91438629063396 777.3375359685688 584.3086855984365 618.8520666837272 673.7371662624784C460.3665973988857 763.1656469265204 59.106382108910225 718.1710934780358 13.546959137511521 606.0104132408621C-32.01246383388718 493.84973300368847 241.6813671361715 224.79438178808687 400.16683642101304 135.36590112404502C558.6523057058546 45.937420460003125 728.7177887333514 64.59302581628657 774.2772117047502 176.75370605346023C819.8366346761491 288.91438629063396 777.3375359685688 584.3086855984365 618.8520666837272 673.7371662624784 "></path><path d="M732.690878584561 201.55884643445597C773.1881434480265 301.2572288674992 735.4111668190662 563.8299393633238 594.5351941214294 643.3219221758054C453.6592214237925 722.813904988287 96.98347449936983 682.818746367412 56.486209635904345 583.1203639343688C15.988944772438856 483.4219815013255 259.2723500791576 244.2616693096797 400.14832277679454 164.769686497198C541.0242954744315 85.2777036847163 692.1936137210955 101.86046400141271 732.690878584561 201.55884643445597C773.1881434480265 301.2572288674992 735.4111668190662 563.8299393633238 594.5351941214294 643.3219221758054 "></path><path d="M691.1045149467936 226.36397155666265C726.5396217023259 313.60005618557545 693.4847671519857 543.3511778694219 570.2182910415535 612.9066628303433C446.95181493112113 682.4621477912648 134.86053637225132 647.4663839979992 99.42542961671904 560.2302993690863C63.99032286118671 472.99421474017345 276.8633025045657 263.7289415724834 400.12977861499803 194.1734566115619C523.3962547254303 124.61797165064047 655.6694081912613 139.12788692774978 691.1045149467936 226.36397155666265C726.5396217023259 313.60005618557545 693.4847671519857 543.3511778694219 570.2182910415535 612.9066628303433 "></path><path d="M649.5181513090262 251.16912719644745C679.8910999566253 325.94291402122985 651.5583674849053 522.8724468930982 545.9013879616775 582.4914340024595C440.2444084384498 642.1104211118206 172.73759824513286 612.1140521461645 142.36464959753374 537.340265321382C111.99170094993462 462.56647849659953 294.4542549299737 283.1962443528652 400.1112344532014 223.57725724350394C505.76821397642914 163.9582701341427 619.145202661427 176.395340371665 649.5181513090262 251.16912719644745C679.8910999566253 325.94291402122985 651.5583674849053 522.8724468930982 545.9013879616775 582.4914340024595 "></path><path d="M607.9317876712588 275.9742675774432C633.2425782109248 338.2857565980952 609.6319678178247 502.3937006579854 521.5844848818015 552.0761899157865C433.53700194577846 601.7586791735876 210.61466011801434 576.7617050355407 185.30386957834844 514.4502160148886C159.99307903868248 452.13872699423666 312.04520735538176 302.663531874458 400.0926902914048 252.98104261665696C488.1401732274279 203.29855335885588 582.620997131593 213.66277855679112 607.9317876712588 275.9742675774432C633.2425782109248 338.2857565980952 609.6319678178247 502.3937006579854 521.5844848818015 552.0761899157865 "></path><path d="M566.3454240334914 300.779423217228C586.5940564652242 350.6286144337496 567.705568150744 481.9149696816619 497.26758180192564 521.6609610879027C426.82959545310723 561.4069524941435 248.49172199089583 541.4093731837061 228.24308955916308 491.56018196718446C207.99445712743034 441.71099075066275 329.63615978078974 322.1308346548399 400.07414612960815 282.384843248599C470.5121324784267 242.63885184235818 546.0967916017587 250.93023200070633 566.3454240334914 300.779423217228C586.5940564652242 350.6286144337496 567.705568150744 481.9149696816619 497.26758180192564 521.6609610879027 "></path><path d="M524.759075654513 325.58454833943466C539.9455499783127 362.97144175182586 525.7791837424527 461.43620818776003 472.95069398083876 491.2457017424407C420.1222042192249 521.0551952971213 286.36879912256643 506.0570108142931 271.18232479876684 468.67011740190196C255.9958504749673 431.2832239895107 347.22712746498684 341.5981069176436 400.0556172266007 311.7886133629629C452.8841069882146 281.9791198082823 509.5726013307135 288.19765492704346 524.759075654513 325.58454833943466C539.9455499783127 362.97144175182586 525.7791837424527 461.43620818776003 472.95069398083876 491.2457017424407 "></path><path d="M483.17271201674566 350.38970397921946C493.2970282326121 375.31429958748026 483.852784075372 440.9574772114364 448.6337909009628 460.8304729145568C413.4147977265536 480.70346861767723 324.2458609954479 470.7046789624585 314.12154477958154 445.7800833541977C303.99722856371517 420.85548774593684 364.81807989039487 361.0654096980254 400.0370730648041 341.192413994905C435.25606623921334 321.31941829178453 473.04839580087935 325.46510837095866 483.17271201674566 350.38970397921946C493.2970282326121 375.31429958748026 483.852784075372 440.9574772114364 448.6337909009628 460.8304729145568 "></path><path d="M441.5863483789783 375.1948443602152C446.6485064869115 387.6571421643456 441.9263844082915 420.4787309763237 424.3168878210869 430.4152288278839C406.7073912338823 440.3517266794441 362.12292286832945 435.3523318518347 357.06076476039624 422.8900340477043C351.9986066524631 410.4277362435739 382.4090323158029 380.53269721961817 400.0185289030075 370.59619936805797C417.62802549021217 360.65970151649776 436.52419027104514 362.7325465560848 441.5863483789783 375.1948443602152C446.6485064869115 387.6571421643456 441.9263844082915 420.4787309763237 424.3168878210869 430.4152288278839 "></path></g></svg>